<svg width="25" height="24" viewBox="0 0 25 24" fill="none" xmlns="http://www.w3.org/2000/svg">
<path d="M6.1871 14.7533C5.4271 14.7533 4.63379 15.3688 4.41598 16.1288C4.19822 16.8888 4.63821 17.5044 5.39821 17.5044C6.13379 17.5044 6.90044 16.9266 7.1471 16.2C7.15598 16.1755 7.16267 16.1533 7.16933 16.1288C7.17598 16.1044 7.18267 16.08 7.1871 16.0555C7.35598 15.3311 6.92044 14.7533 6.1871 14.7533ZM3.17156 9.24661C2.41156 9.24661 1.61822 9.86219 1.40044 10.6222C1.18266 11.3822 1.62266 11.9977 2.38266 11.9977C3.14266 11.9977 3.936 11.3822 4.15377 10.6222C4.37156 9.86219 3.93156 9.24661 3.17156 9.24661ZM9.67156 3.74219C8.91156 3.74219 8.11821 4.35773 7.90044 5.11773C7.68267 5.87773 8.12267 6.49331 8.88267 6.49331C9.64267 6.49331 10.436 5.87773 10.6538 5.11773C10.8716 4.35773 10.4316 3.74219 9.67156 3.74219ZM7.16491 16.1311C7.15821 16.1555 7.15156 16.1777 7.1471 16.2022C7.15598 16.1777 7.16267 16.1555 7.16933 16.1311C7.17598 16.1066 7.18267 16.0822 7.1871 16.0577C7.17821 16.0822 7.17156 16.1066 7.16491 16.1311ZM23.5071 6.91108C23.4316 7.17773 23.3071 7.43108 23.1493 7.66442C22.6316 8.42442 21.7382 8.95996 20.8716 8.95996C20.4471 8.95996 20.0893 8.83108 19.8249 8.61108C19.8027 8.59108 19.7804 8.57331 19.7582 8.55108C19.2227 8.10219 18.4982 7.84219 17.636 7.84219C15.7471 7.84219 13.7916 9.09996 12.7871 10.8244C12.5693 11.2 12.396 11.5955 12.2782 12.0066L12.276 12.0111C12.1538 12.44 12.1004 12.8533 12.1093 13.2422C12.1493 14.9377 13.3782 16.1688 15.2471 16.1688C16.0804 16.1688 16.9293 15.9244 17.7004 15.5C17.7982 15.4488 17.8916 15.3933 17.9871 15.3333C18.3449 15.1488 18.736 15.0444 19.1182 15.0444C19.9782 15.0444 20.5649 15.5755 20.6538 16.3266C20.6827 16.5644 20.6604 16.8244 20.5827 17.0977C20.3916 17.7666 19.9004 18.36 19.296 18.7377C19.2938 18.74 19.2916 18.74 19.2871 18.7422C19.2538 18.7622 19.2227 18.78 19.1893 18.7977C19.1782 18.8066 19.1671 18.8111 19.1582 18.8177C17.6782 19.6666 16.0493 20.1888 14.4338 20.2577L13.656 20.2555L11.3938 20.2466H8.58267C9.22491 20.1688 9.85821 19.6777 10.116 19.0577C10.1404 19 10.1604 18.94 10.1782 18.88C10.396 18.12 9.95598 17.5044 9.19598 17.5044H8.15598H8.14491C7.40933 17.5044 6.97379 16.9266 7.14491 16.2C7.15379 16.1755 7.16044 16.1533 7.1671 16.1288C7.17379 16.1044 7.18044 16.08 7.18491 16.0555C7.30491 15.7044 7.54491 15.3888 7.84491 15.1555C7.86044 15.1444 7.87598 15.1311 7.89156 15.12C8.20267 14.8911 8.57156 14.7533 8.93379 14.7533C9.69379 14.7533 10.4871 14.1377 10.7049 13.3777C10.9227 12.6177 10.4827 12.0022 9.72267 12.0022H7.39379C6.63379 12.0022 6.19379 11.3866 6.41156 10.6266C6.62933 9.86661 7.42267 9.25108 8.18267 9.25108H12.236C12.996 9.25108 13.7893 8.63554 14.0071 7.87554C14.2249 7.11554 13.7849 6.49996 13.0249 6.49996H13.0116C12.6849 6.49996 12.416 6.38661 12.236 6.19554C11.996 5.94442 11.9049 5.55554 12.0293 5.12442C12.2471 4.36442 13.0404 3.74885 13.8004 3.74885L18.8093 3.74441C20.2493 3.74441 21.4938 4.11331 22.4871 4.75996C22.5049 4.77108 22.5249 4.78442 22.5427 4.79773C22.616 4.84661 22.6893 4.89773 22.7604 4.95108C22.8671 5.02885 22.9716 5.11331 23.0716 5.19773C23.1004 5.22219 23.1293 5.24661 23.156 5.27108C23.5471 5.64219 23.6982 6.23996 23.5071 6.91108Z" fill="url(#paint0_linear_629_409)"/>
<defs>
<linearGradient id="paint0_linear_629_409" x1="1.34462" y1="12" x2="23.5896" y2="12" gradientUnits="userSpaceOnUse">
<stop stop-color="#9985E7"/>
<stop offset="0.1643" stop-color="#A085E1"/>
<stop offset="0.3951" stop-color="#B285D0"/>
<stop offset="0.6652" stop-color="#D084B4"/>
<stop offset="0.963" stop-color="#F9848D"/>
<stop offset="1" stop-color="#FF8488"/>
</linearGradient>
</defs>
</svg>
