<svg width="285" height="179" viewBox="0 0 285 179" fill="none" xmlns="http://www.w3.org/2000/svg">
<rect width="285" height="179" fill="#F3F4F8"/>
<path d="M167.169 93.7499V123.501H107.521V64H128.909C129.122 60.9823 129.846 58.135 130.954 55.4997H107.521C102.835 55.4997 99 59.3247 99 64V123.501C99 128.175 102.835 132 107.521 132H167.169C171.856 132 175.69 128.175 175.69 123.501V102.25L167.169 93.7499ZM160.778 115H113.912L125.628 99.9974L133.979 110.028L145.696 94.9826L160.778 115ZM172.707 76.2823C174.582 73.3076 175.69 69.8651 175.69 66.1253C175.69 55.5428 167.126 47 156.518 47C145.909 47 137.345 55.5428 137.345 66.1253C137.345 76.7078 145.909 85.2504 156.474 85.2504C160.224 85.2504 163.718 84.1451 166.657 82.2748L179.95 95.5349L186 89.5001L172.707 76.2823ZM156.518 76.7501C150.638 76.7501 145.866 71.9903 145.866 66.1253C145.866 60.2603 150.638 55.4997 156.518 55.4997C162.397 55.4997 167.169 60.2603 167.169 66.1253C167.169 71.9903 162.397 76.7501 156.518 76.7501Z" fill="#9A9AA2"/>
</svg>
