<svg width="300" height="300" viewBox="0 0 300 300" fill="none" xmlns="http://www.w3.org/2000/svg">
<rect width="300" height="300" fill="#F3F4F8"/>
<path d="M182 155.333V192.667H107.333V118H134.107C134.373 114.213 135.28 110.64 136.667 107.333H107.333C101.467 107.333 96.6666 112.133 96.6666 118V192.667C96.6666 198.533 101.467 203.333 107.333 203.333H182C187.867 203.333 192.667 198.533 192.667 192.667V166L182 155.333ZM174 182H115.333L130 163.173L140.453 175.76L155.12 156.88L174 182ZM188.933 133.413C191.28 129.68 192.667 125.36 192.667 120.667C192.667 107.387 181.947 96.6667 168.667 96.6667C155.387 96.6667 144.667 107.387 144.667 120.667C144.667 133.947 155.387 144.667 168.613 144.667C173.307 144.667 177.68 143.28 181.36 140.933L198 157.573L205.573 150L188.933 133.413ZM168.667 134C161.307 134 155.333 128.027 155.333 120.667C155.333 113.307 161.307 107.333 168.667 107.333C176.027 107.333 182 113.307 182 120.667C182 128.027 176.027 134 168.667 134Z" fill="#9A9AA2"/>
</svg>
