<svg width="40" height="40" viewBox="0 0 40 40" fill="none" xmlns="http://www.w3.org/2000/svg">
<circle cx="20" cy="20" r="20" fill="#F3F4F8"/>
<path fill-rule="evenodd" clip-rule="evenodd" d="M20 31C13.9249 31 9 26.0751 9 20C9 13.9249 13.9249 9 20 9C26.0751 9 31 13.9249 31 20C31 26.0751 26.0751 31 20 31ZM27.3995 25.1246C28.4086 23.6703 29 21.9042 29 20C29 15.0294 24.9706 11 20 11C15.0294 11 11 15.0294 11 20C11 21.9042 11.5914 23.6703 12.6005 25.1246C13.726 23.6381 16.3706 23 20 23C23.6294 23 26.274 23.6381 27.3995 25.1246ZM25.9647 26.7398C25.672 25.6874 23.5694 25 20 25C16.4306 25 14.328 25.6874 14.0353 26.7398C15.6233 28.1462 17.7119 29 20 29C22.2881 29 24.3767 28.1462 25.9647 26.7398ZM20 23C17.7609 23 16 21.4274 16 18C16 15.7558 17.5791 14 20 14C22.4142 14 24 15.9216 24 18.2C24 21.4796 22.2181 23 20 23ZM18 18C18 20.2693 18.8182 21 20 21C21.1777 21 22 20.2984 22 18.2C22 16.9504 21.2157 16 20 16C18.7337 16 18 16.8158 18 18Z" fill="#080816" fill-opacity="0.38"/>
</svg>
