<svg width="167" height="213" viewBox="0 0 167 213" fill="none" xmlns="http://www.w3.org/2000/svg">
<g clip-path="url(#clip0_1791_49229)">
<path d="M6.39911 175.48C6.39911 171.97 6.19911 171.07 4.05911 170.88L2.53911 170.74C2.44955 170.669 2.37722 170.578 2.32749 170.475C2.27777 170.372 2.25195 170.259 2.25195 170.145C2.25195 170.031 2.27777 169.918 2.32749 169.815C2.37722 169.712 2.44955 169.621 2.53911 169.55C5.09911 169.31 8.32911 169.17 12.7391 169.16C15.7391 169.16 18.5791 169.38 20.7391 170.47C21.8615 170.989 22.8046 171.83 23.449 172.886C24.0934 173.941 24.4101 175.164 24.3591 176.4C24.3591 179.82 22.3591 181.58 19.5291 182.91C19.5291 183.39 19.9091 183.53 20.4291 183.62C22.2585 183.97 23.9042 184.959 25.0727 186.409C26.2411 187.86 26.8565 189.678 26.8091 191.54C26.8091 197.04 22.7391 200.75 14.1891 200.77C12.8191 200.77 10.4891 200.63 8.49911 200.63C6.50911 200.63 4.79911 200.74 3.03911 200.79C2.89609 200.627 2.81397 200.419 2.80667 200.202C2.79938 199.985 2.86738 199.773 2.99911 199.6L3.85911 199.46C6.36911 199.03 6.46911 198.46 6.45911 193.52L6.39911 175.48ZM10.2991 181.79C10.2991 183.12 10.2991 183.21 12.7691 183.11C17.6091 182.91 20.2191 181.49 20.2091 177.02C20.2091 172.37 16.7391 170.62 13.1291 170.63C12.3906 170.586 11.6505 170.685 10.9491 170.92C10.4691 171.06 10.2791 171.3 10.2791 172.15L10.2991 181.79ZM10.2991 192.79C10.2991 194.5 10.3991 196.92 11.2991 197.96C11.7844 198.448 12.3737 198.821 13.023 199.049C13.6724 199.278 14.365 199.357 15.0491 199.28C19.2691 199.28 22.4991 197.37 22.4891 192.62C22.4891 188.88 20.5791 184.51 13.0291 184.53C10.4591 184.53 10.2791 184.82 10.2791 185.76L10.2991 192.79Z" fill="#005187"/>
<path d="M49.2898 191C49.2898 196.94 45.2198 201.21 39.2898 201.22C37.9955 201.272 36.7043 201.056 35.4978 200.584C34.2913 200.113 33.1955 199.396 32.2795 198.48C31.3636 197.564 30.6472 196.469 30.1757 195.262C29.7042 194.055 29.4877 192.764 29.5398 191.47C29.5021 190.126 29.7359 188.788 30.2272 187.536C30.7185 186.284 31.4572 185.144 32.3992 184.185C33.3411 183.225 34.4669 182.465 35.7093 181.951C36.9517 181.436 38.2851 181.177 39.6298 181.19C40.9173 181.168 42.1959 181.407 43.3879 181.894C44.5799 182.381 45.6605 183.106 46.564 184.023C47.4674 184.941 48.175 186.032 48.6436 187.232C49.1121 188.431 49.332 189.713 49.2898 191ZM39.0698 182.62C35.9298 182.62 33.6098 185.62 33.6198 190.84C33.6198 195.16 35.6198 199.84 39.7598 199.84C43.8998 199.84 45.2098 195.47 45.2098 191.84C45.1998 187.75 43.5698 182.63 39.0698 182.64V182.62Z" fill="#005187"/>
<path d="M69.8894 193.6C69.8894 197.35 69.9494 199.11 71.2794 199.1C71.9647 199.031 72.6375 198.87 73.2794 198.62C73.6194 198.72 73.6694 199.91 73.2794 200.14C71.1447 200.462 69.0431 200.974 66.9994 201.67C66.7094 201.67 66.4794 201.53 66.4694 201.29V200.49C66.5047 199.998 66.4744 199.504 66.3794 199.02H66.1994C64.1094 200.44 62.4994 201.21 60.1994 201.21C54.9294 201.21 51.4094 197.1 51.3994 192.11C51.3994 185.47 56.3994 181.19 62.8694 181.18C63.9456 181.138 65.021 181.28 66.0494 181.6C66.2894 181.6 66.3394 181.31 66.3394 180.93V173.76C66.3394 170.96 66.3394 170.68 64.8694 169.83L64.3894 169.54C64.2741 169.409 64.2105 169.24 64.2105 169.065C64.2105 168.89 64.2741 168.721 64.3894 168.59C66.1483 168.066 67.8609 167.397 69.5094 166.59C69.6083 166.59 69.7053 166.617 69.79 166.668C69.8746 166.719 69.9436 166.792 69.9894 166.88C69.9894 168.3 69.8494 170.67 69.8494 172.76L69.8894 193.6ZM66.3594 186.49C66.4115 185.831 66.2271 185.175 65.8394 184.64C65.3769 184.016 64.7737 183.509 64.0787 183.162C63.3836 182.814 62.6164 182.635 61.8394 182.64C57.5194 182.64 55.2894 186.4 55.2994 190.53C55.2994 194.85 57.7394 198.93 62.3894 198.92C63.724 198.907 65.0131 198.433 66.0394 197.58C66.3302 197.046 66.4457 196.434 66.3694 195.83L66.3594 186.49Z" fill="#005187"/>
<path d="M73.8998 210.3C73.8803 210.046 73.9161 209.79 74.0047 209.55C74.0933 209.311 74.2326 209.094 74.4131 208.913C74.5935 208.733 74.8109 208.593 75.0503 208.505C75.2896 208.416 75.5453 208.381 75.7998 208.4H76.6998C77.0147 208.411 77.3268 208.337 77.6031 208.186C77.8794 208.035 78.1098 207.811 78.2698 207.54C79.3476 205.875 80.2619 204.111 80.9998 202.27C81.2498 201.629 81.4081 200.955 81.4698 200.27C81.4093 199.135 81.1344 198.022 80.6598 196.99L76.9998 186.8C76.1898 184.57 75.8498 183.43 74.1898 183.1L72.9998 182.87C72.7098 182.63 72.7598 181.82 73.1398 181.68C74.6498 181.77 76.0798 181.82 77.6498 181.81C78.9298 181.81 80.2598 181.76 81.7798 181.67C82.1498 181.81 82.1998 182.61 81.8698 182.85L80.6898 183.09C80.0198 183.24 79.6398 183.38 79.6398 183.71C79.9945 185.225 80.4488 186.715 80.9998 188.17L82.5198 192.53C82.9014 193.685 83.366 194.812 83.9098 195.9C84.5857 194.78 85.1677 193.606 85.6498 192.39L87.2598 188.63C87.9915 187.115 88.5484 185.521 88.9198 183.88C88.9198 183.55 88.6298 183.22 87.7698 183.08L86.2998 182.84C85.9698 182.61 86.0198 181.84 86.3998 181.66C87.9198 181.75 89.3398 181.79 90.5798 181.79C91.8198 181.79 92.8498 181.79 94.1798 181.64C94.27 181.708 94.3448 181.794 94.3993 181.892C94.4539 181.991 94.487 182.1 94.4964 182.213C94.5059 182.325 94.4915 182.438 94.4541 182.544C94.4168 182.651 94.3574 182.748 94.2798 182.83L93.4698 182.97C91.9098 183.26 91.0498 184.64 89.4698 187.97L86.8298 193.44C85.2698 196.62 81.3898 204.88 79.0698 210.06C78.8751 210.705 78.4787 211.271 77.9387 211.674C77.3987 212.077 76.7437 212.297 76.0698 212.3C75.7906 212.337 75.5067 212.312 75.2382 212.227C74.9697 212.142 74.7232 211.999 74.5162 211.809C74.3091 211.618 74.1465 211.384 74.04 211.123C73.9335 210.862 73.8856 210.581 73.8998 210.3Z" fill="#005187"/>
<path d="M105.85 193.34C105.85 198.34 105.96 199.04 108.71 199.27L110.23 199.41C110.51 199.6 110.42 200.41 110.14 200.6C107.43 200.51 105.82 200.46 103.92 200.46C102.02 200.46 100.36 200.52 97.3196 200.62C97.2401 200.543 97.177 200.45 97.1338 200.348C97.0906 200.246 97.0684 200.136 97.0684 200.025C97.0684 199.914 97.0906 199.804 97.1338 199.702C97.177 199.6 97.2401 199.507 97.3196 199.43L99.0296 199.29C101.73 199.04 101.97 198.29 101.96 193.35V172.13C101.96 170.66 101.96 170.61 100.54 170.61H97.8896C95.8896 170.61 93.0797 170.61 92.0497 171.8C91.1856 172.785 90.4681 173.89 89.9196 175.08C89.5396 175.37 88.5496 175.16 88.6796 174.75C89.3096 172.81 89.9497 169.8 90.4797 167.68C90.4797 167.51 91.2296 167.53 91.3796 167.68C91.6596 169.19 93.2296 169.15 95.3796 169.14H114.61C117.17 169.14 117.61 169.04 118.31 167.8C118.55 167.71 119.18 167.73 119.16 167.95C118.97 169.88 118.56 173.64 118.46 175.16C118.46 175.58 117.46 175.54 117.23 175.26C117.08 174.07 116.75 172.26 116.04 171.79C114.94 170.99 113.14 170.61 110.53 170.62H107.16C105.73 170.62 105.78 170.67 105.79 172.24L105.85 193.34Z" fill="#005187"/>
<path d="M123.21 190.6C123.92 190.37 124.01 189.94 124.01 189.23V187.04C124.01 185.29 123.48 182.91 120.54 182.92C119.21 182.92 117.54 183.59 117.54 185.06C117.54 185.82 117.45 186.39 117.07 186.67C116.277 187.229 115.339 187.545 114.37 187.58C114.28 187.591 114.189 187.582 114.103 187.553C114.018 187.524 113.94 187.476 113.875 187.412C113.811 187.349 113.762 187.271 113.731 187.186C113.701 187.101 113.69 187.01 113.7 186.92C113.7 184.45 119.05 181.07 122.52 181.06C125.99 181.05 127.6 183.06 127.46 186.61L127.19 194.87C127.1 197.05 127.53 199 129.38 198.99C129.793 198.988 130.199 198.892 130.57 198.71C130.81 198.56 131.04 198.37 131.19 198.37C131.34 198.37 131.52 198.66 131.52 198.99C131.065 199.63 130.466 200.153 129.771 200.518C129.076 200.882 128.305 201.079 127.52 201.09C126.926 201.103 126.337 200.977 125.801 200.722C125.264 200.466 124.795 200.089 124.43 199.62C124.24 199.33 123.95 198.96 123.67 198.96C123.01 199.184 122.386 199.504 121.82 199.91C120.804 200.6 119.625 201.01 118.4 201.1C117.199 201.157 116.018 200.773 115.08 200.02C114.613 199.603 114.239 199.091 113.984 198.519C113.729 197.947 113.598 197.327 113.6 196.7C113.6 194.85 114.5 193.75 117.54 192.7L123.21 190.6ZM120.28 199C121.341 198.904 122.349 198.489 123.17 197.81C123.74 197.24 123.74 196.58 123.79 195.58L123.88 192.78C123.88 192.26 123.69 192.16 123.4 192.16C122.737 192.245 122.086 192.406 121.46 192.64C118.66 193.64 117.28 194.31 117.28 196.16C117.284 196.546 117.365 196.927 117.519 197.28C117.673 197.633 117.897 197.952 118.177 198.217C118.457 198.482 118.787 198.688 119.149 198.823C119.51 198.957 119.895 199.018 120.28 199Z" fill="#005187"/>
<path d="M139 195.09C139 198.51 139.11 198.98 140.82 199.21L141.95 199.35C142.025 199.433 142.083 199.53 142.119 199.635C142.156 199.741 142.17 199.853 142.162 199.964C142.153 200.076 142.122 200.184 142.07 200.283C142.018 200.382 141.947 200.47 141.86 200.54C140.3 200.45 138.92 200.4 137.26 200.41C135.6 200.42 134.13 200.46 132.7 200.56C132.615 200.489 132.545 200.401 132.493 200.303C132.442 200.204 132.411 200.097 132.402 199.986C132.392 199.875 132.405 199.764 132.439 199.658C132.473 199.552 132.528 199.454 132.6 199.37L133.69 199.23C135.45 198.99 135.5 198.51 135.49 195.09V173.64C135.49 170.84 135.43 170.56 134.01 169.7L133.53 169.42C133.417 169.288 133.354 169.119 133.354 168.945C133.354 168.771 133.417 168.602 133.53 168.47C135.289 167.945 137.001 167.276 138.65 166.47C138.748 166.468 138.845 166.493 138.93 166.542C139.014 166.591 139.084 166.663 139.13 166.75C139.08 168.18 138.99 170.55 139 172.64V195.09Z" fill="#005187"/>
<path d="M147 173.62C147 170.82 146.94 170.54 145.52 169.68L145.04 169.4C144.91 169.266 144.838 169.087 144.838 168.9C144.838 168.714 144.91 168.534 145.04 168.4C146.798 167.873 148.51 167.204 150.16 166.4C150.258 166.398 150.355 166.423 150.44 166.472C150.524 166.522 150.594 166.594 150.64 166.68C150.59 168.11 150.5 170.48 150.51 172.57V188.85C150.51 189.47 150.56 189.56 151.37 189.56C152.37 189.56 153.32 189.03 154.59 187.7L156.54 185.61C157.86 184.18 158.19 183.66 158.19 183.43C158.19 183.2 157.96 183.05 157.19 182.95L156.05 182.81C155.62 182.67 155.62 181.81 156.05 181.62H157.14C159.658 181.621 162.175 181.491 164.68 181.23C165.02 181.37 165.07 182.18 164.78 182.42L163.26 182.7C162.135 182.995 161.104 183.57 160.26 184.37C158.41 185.85 156.8 187.56 155.95 188.37C155.37 188.89 155.33 189.13 155.61 189.5C156.606 190.822 157.671 192.09 158.8 193.3C160.66 195.38 162.32 197.23 163.27 198.13C163.982 198.691 164.838 199.038 165.74 199.13L166.41 199.23C166.74 199.46 166.69 200.23 166.31 200.41C164.94 200.32 163.31 200.27 161.8 200.28C159.91 200.28 158.24 200.28 156.87 200.43C156.78 200.362 156.705 200.276 156.65 200.178C156.596 200.079 156.563 199.97 156.553 199.857C156.544 199.745 156.558 199.632 156.596 199.526C156.633 199.419 156.692 199.322 156.77 199.24L157.62 199.1C158.34 199 158.81 198.91 158.81 198.62C158.81 198.33 158.62 198 158 197.29L152.91 191.42C152.728 191.208 152.503 191.039 152.249 190.923C151.995 190.807 151.719 190.748 151.44 190.75C150.59 190.75 150.54 190.9 150.54 192.37V194.98C150.54 198.4 150.65 198.87 152.36 199.11L153.5 199.25C153.572 199.334 153.626 199.431 153.66 199.536C153.694 199.641 153.707 199.751 153.697 199.861C153.688 199.971 153.657 200.078 153.606 200.175C153.555 200.273 153.485 200.36 153.4 200.43C151.84 200.34 150.46 200.3 148.8 200.3C147.14 200.3 145.67 200.35 144.24 200.45C144.153 200.379 144.083 200.29 144.033 200.189C143.982 200.089 143.954 199.978 143.949 199.866C143.945 199.754 143.964 199.642 144.005 199.538C144.047 199.433 144.11 199.339 144.19 199.26L145.24 199.12C146.99 198.88 147.04 198.4 147.03 194.99L147 173.62Z" fill="#005187"/>
<path d="M147.06 59.73C147.52 60.81 147.95 61.89 148.38 62.97C153.32 55.89 155.88 48.97 155.44 42.91C146.668 27.1469 133.023 14.6523 116.55 7.30004C116.075 10.2632 115.036 13.1078 113.49 15.68C127.34 26.22 139.24 41.45 147.06 59.73ZM89.7796 38.17C83.5519 42.1088 77.0136 45.5335 70.2296 48.41C61.2327 52.3063 51.8175 55.1551 42.1696 56.9C45.0941 69.5422 49.0679 81.9184 54.0496 93.9C58.265 93.5013 62.5144 93.656 66.6896 94.36C67.6163 94.5841 68.583 94.5841 69.5096 94.36C69.5096 94.36 73.4296 92.8901 74.8496 92.23C75.1398 92.1142 75.4002 91.9345 75.6114 91.7043C75.8226 91.474 75.9792 91.1991 76.0696 90.9C76.4627 88.956 76.4966 86.9563 76.1696 85C76.1696 85 74.7496 80 73.8396 77.33C73.0084 76.7986 72.4194 75.9618 72.1996 75C72.1996 75 70.9996 71.4 70.7796 70.84C70.7796 70.84 70.5796 69.17 71.4996 69.29C71.4996 69.29 70.2696 65.62 71.0896 62.84C71.0896 62.84 73.0196 54.84 76.8896 52.06C76.8896 52.06 80.4896 49.93 83.8896 50.22C86.0347 50.3881 88.1185 51.0156 89.9996 52.06C93.8596 54.84 95.7896 62.84 95.7896 62.84C96.6096 65.62 95.3796 69.29 95.3796 69.29C96.2996 69.17 96.0996 70.84 96.0996 70.84C95.8896 71.4 94.6796 74.95 94.6796 74.95C94.45 75.9184 93.8459 76.7563 92.9996 77.28C92.1096 80 90.6896 85 90.6896 85C90.3626 86.9563 90.3965 88.956 90.7896 90.9C90.8854 91.1889 91.0434 91.4533 91.2524 91.6744C91.4615 91.8956 91.7165 92.0682 91.9996 92.18C93.4196 92.84 97.3396 94.31 97.3396 94.31C98.2662 94.5341 99.233 94.5341 100.16 94.31C104.156 93.6355 108.221 93.4641 112.26 93.8C113.38 93.14 114.49 92.4901 115.57 91.8C113.57 85.98 111.31 80.06 108.76 74.1C103.469 61.6042 97.119 49.5837 89.7796 38.17ZM64.2996 9.30004C61.0619 11.5005 57.6112 13.3699 53.9996 14.88C49.3572 16.9794 44.4253 18.3683 39.3696 19C37.7896 28.18 38.6996 40.78 41.7396 55C51.2678 53.2717 60.5655 50.4532 69.4496 46.6C76.121 43.7581 82.5461 40.3699 88.6596 36.47C80.5796 24.35 72.1496 14.85 64.2996 9.30004ZM147 64.9C146.44 63.44 145.85 61.97 145.23 60.52C137.58 42.63 125.97 27.72 112.47 17.39C108.22 23.96 100.96 30.82 91.4696 37.09C98.8777 48.6192 105.288 60.76 110.63 73.38C113.13 79.23 115.36 85.05 117.33 90.78C130.11 82.69 140.34 73.69 147 64.9ZM15.2496 56.6C13.1057 70.2874 14.3276 84.2909 18.8096 97.4L20.8096 97.17C23.6996 96.88 28.0996 96.75 28.0996 96.75C31.5396 96.75 37.6896 96.95 37.6896 96.95C40.6062 96.8891 43.503 96.4556 46.3096 95.66C48.147 94.9574 50.0546 94.4545 51.9996 94.16C47.0324 82.2005 43.0589 69.8521 40.1196 57.24C30.4596 58.71 21.7996 58.54 15.2496 56.6ZM159.34 50.85C158.71 49.36 158.03 47.91 157.34 46.48C156.71 52.3 153.87 58.63 149.2 65.06C153.204 75.7111 155.564 86.9092 156.2 98.27C158.988 98.8094 161.813 99.1436 164.65 99.27C167.735 82.9612 165.887 66.1026 159.34 50.85ZM118 92.7L119 95.1C119.54 95.27 120.08 95.4501 120.61 95.66C123.392 96.4667 126.265 96.9169 129.16 97C129.16 97 135.31 96.84 138.74 96.8C138.74 96.8 143.15 96.93 146.03 97.22C146.03 97.22 150.31 97.72 154.2 98.1C154.62 91.62 152.94 81.46 147.74 67.03C140.87 75.78 130.62 84.7 118 92.7ZM13.5596 53.9H13.6496C15.7596 41.19 20.5496 29.68 27.9096 20.45C18.9097 28.3153 11.7127 38.0296 6.80959 48.93C8.5275 51.2088 10.8736 52.9362 13.5596 53.9ZM114.62 6.47004C102.698 1.47451 89.7766 -0.675622 76.8796 0.190043C88.9996 1.55004 101 6.57004 111.89 14.47C113.351 12.0242 114.281 9.2986 114.62 6.47004ZM13.3196 56L12.8096 55.81C10.1491 54.7984 7.77915 53.1463 5.90959 51C0.389588 64.21 -1.46041 83.78 1.18959 99.3C4.52905 99.222 7.85518 98.8506 11.1296 98.19C12.9696 98.0201 15.0496 97.8101 16.8096 97.62C12.1196 82.69 11.5496 71.3 13.3196 56ZM39.6996 55.34C36.6996 41.15 35.7696 28.56 37.3196 19.09C36.2604 19.1011 35.2076 18.925 34.2096 18.57C33.7555 18.3758 33.3443 18.0937 32.9996 17.74C23.7896 27.34 17.9296 40.18 15.5896 54.59C21.8396 56.54 30.2496 56.73 39.6996 55.29V55.34ZM65.9996 8.05004C73.8696 13.78 82.2796 23.32 90.3296 35.39C99.6096 29.23 106.76 22.51 110.85 16.18C98.4696 7.15004 84.5996 2.00004 70.7796 1.82004C70.6928 2.25021 70.5587 2.66943 70.3796 3.07004C69.3418 5.05846 67.8392 6.76687 65.9996 8.05004ZM34.9996 16.66C37.5096 17.66 44.5996 16.75 53.2896 13.03C57.187 11.419 60.8795 9.35124 64.2896 6.87004C66.5996 5.12004 68.0696 3.53004 68.5396 2.36004C68.6919 2.04954 68.7274 1.69457 68.6396 1.36004C68.6127 1.32098 68.5826 1.28419 68.5496 1.25004C62.1387 2.31916 55.8757 4.13831 49.8896 6.67004C44.3196 9.0604 39.0253 12.0479 34.0996 15.58C34.0623 15.7243 34.0623 15.8757 34.0996 16.02C34.1975 16.1829 34.3279 16.3239 34.4828 16.434C34.6377 16.5441 34.8136 16.6211 34.9996 16.66Z" fill="#006397"/>
<path d="M62.1493 132.58C61.4293 126.21 60.4092 116.77 60.4092 116.77C59.778 113.958 58.1107 111.488 55.7393 109.85C53.9593 108.59 48.6192 108.98 48.6192 108.98C42.6692 109.98 35.4992 108.32 35.4992 108.32C34.5892 107.99 30.6192 107.32 30.6192 107.32C27.7093 107.104 24.8245 106.629 21.9992 105.9C20.62 105.681 19.2257 105.57 17.8292 105.57C16.2186 105.818 14.5965 105.985 12.9692 106.07C9.66505 106.615 6.31737 106.853 2.96926 106.78C5.88926 114.78 15.9692 138.32 36.2692 149.16L37.5793 145.92L44.6692 154.08L33.9292 154.9L35.4292 151C14.8892 140.15 4.52926 116.85 1.23926 108.05V162.35H61.7692C62.6492 159.47 63.8792 156.03 63.8792 156.03C64.8792 153.03 64.2792 148.68 64.2792 148.68C63.3692 146 62.1493 132.58 62.1493 132.58ZM152.149 106.07C150.518 105.985 148.893 105.818 147.279 105.57C145.882 105.57 144.488 105.681 143.109 105.9C140.274 106.638 137.38 107.12 134.459 107.34C134.459 107.34 130.459 107.99 129.589 108.34C129.589 108.34 122.419 109.99 116.469 109C116.469 109 111.129 108.61 109.339 109.87C106.971 111.511 105.305 113.98 104.669 116.79C104.669 116.79 103.669 126.23 102.929 132.6C102.929 132.6 101.719 145.98 100.809 148.73C100.809 148.73 100.189 153.12 101.209 156.08C101.209 156.08 102.429 159.52 103.319 162.4H112.069C113.759 161.8 115.429 161.16 117.069 160.45C130.991 154.53 143.007 144.878 151.789 132.56L147.789 130.4L158.189 123.17L157.789 135.78L153.589 133.52C144.579 146.234 132.217 156.197 117.879 162.3L117.639 162.4H164.699V106.75C160.503 106.94 156.299 106.713 152.149 106.07Z" fill="#B67A00"/>
<path d="M155.07 165.3H153.54V164.46H157.54V165.3H156V169.45H155.09L155.07 165.3ZM158.69 164.46H160.11L161.42 167.83L162.7 164.46H164.11V169.46H163.2V165.65L161.8 169.46H161L159.6 165.65V169.46H158.68L158.69 164.46Z" fill="#005187"/>
<rect width="166" height="213" fill="#C4C4C4"/>
<path d="M45.833 96.4702H56.9512V99H42.7231V75.5391H45.833V96.4702ZM77.4634 88.0269C77.4634 90.3257 77.0767 92.3345 76.3032 94.0532C75.5298 95.7612 74.4341 97.0664 73.0161 97.9688C71.5981 98.8711 69.9438 99.3223 68.0532 99.3223C66.2056 99.3223 64.5674 98.8711 63.1387 97.9688C61.71 97.0557 60.5981 95.7612 59.8032 94.0854C59.019 92.3989 58.6162 90.4492 58.5947 88.2363V86.5444C58.5947 84.2886 58.9868 82.2959 59.771 80.5664C60.5552 78.8369 61.6616 77.5156 63.0903 76.6025C64.5298 75.6787 66.1733 75.2168 68.021 75.2168C69.9009 75.2168 71.5552 75.6733 72.9839 76.5864C74.4233 77.4888 75.5298 78.8047 76.3032 80.5342C77.0767 82.2529 77.4634 84.2563 77.4634 86.5444V88.0269ZM74.3857 86.5122C74.3857 83.73 73.8271 81.5977 72.71 80.1152C71.5928 78.6221 70.0298 77.8755 68.021 77.8755C66.0659 77.8755 64.5244 78.6221 63.3965 80.1152C62.2793 81.5977 61.7046 83.6602 61.6724 86.3027V88.0269C61.6724 90.7231 62.2363 92.8447 63.3643 94.3916C64.5029 95.9277 66.0659 96.6958 68.0532 96.6958C70.0513 96.6958 71.5981 95.9707 72.6938 94.5205C73.7896 93.0596 74.3535 90.9702 74.3857 88.2524V86.5122ZM99.4258 95.9224C98.6309 97.061 97.519 97.915 96.0903 98.4844C94.6724 99.043 93.0181 99.3223 91.1274 99.3223C89.2153 99.3223 87.5181 98.8765 86.0356 97.9849C84.5532 97.0825 83.4038 95.8042 82.5874 94.1499C81.7817 92.4956 81.3682 90.5781 81.3467 88.3975V86.3511C81.3467 82.8169 82.1685 80.0776 83.812 78.1333C85.4663 76.189 87.7866 75.2168 90.7729 75.2168C93.2222 75.2168 95.1934 75.8452 96.6865 77.1021C98.1797 78.3481 99.0928 80.1206 99.4258 82.4194H96.332C95.752 79.3149 93.9043 77.7627 90.7891 77.7627C88.7158 77.7627 87.1421 78.4932 86.0679 79.9541C85.0044 81.4043 84.4673 83.5098 84.4565 86.2705V88.188C84.4565 90.8198 85.0581 92.9146 86.2612 94.4722C87.4644 96.019 89.0918 96.7925 91.1436 96.7925C92.3037 96.7925 93.3188 96.6636 94.189 96.4058C95.0591 96.1479 95.7788 95.7129 96.3481 95.1006V89.8315H90.918V87.3179H99.4258V95.9224ZM122.645 88.0269C122.645 90.3257 122.258 92.3345 121.485 94.0532C120.711 95.7612 119.616 97.0664 118.198 97.9688C116.78 98.8711 115.125 99.3223 113.235 99.3223C111.387 99.3223 109.749 98.8711 108.32 97.9688C106.892 97.0557 105.78 95.7612 104.985 94.0854C104.201 92.3989 103.798 90.4492 103.776 88.2363V86.5444C103.776 84.2886 104.168 82.2959 104.953 80.5664C105.737 78.8369 106.843 77.5156 108.272 76.6025C109.711 75.6787 111.355 75.2168 113.203 75.2168C115.083 75.2168 116.737 75.6733 118.166 76.5864C119.605 77.4888 120.711 78.8047 121.485 80.5342C122.258 82.2529 122.645 84.2563 122.645 86.5444V88.0269ZM119.567 86.5122C119.567 83.73 119.009 81.5977 117.892 80.1152C116.774 78.6221 115.211 77.8755 113.203 77.8755C111.248 77.8755 109.706 78.6221 108.578 80.1152C107.461 81.5977 106.886 83.6602 106.854 86.3027V88.0269C106.854 90.7231 107.418 92.8447 108.546 94.3916C109.685 95.9277 111.248 96.6958 113.235 96.6958C115.233 96.6958 116.78 95.9707 117.875 94.5205C118.971 93.0596 119.535 90.9702 119.567 88.2524V86.5122ZM60.7539 138H57.644V127.156H45.8169V138H42.7231V114.539H45.8169V124.626H57.644V114.539H60.7539V138ZM79.5098 127.156H69.3423V135.47H81.1533V138H66.2485V114.539H80.9922V117.085H69.3423V124.626H79.5098V127.156ZM93.6089 128.509H88.0981V138H84.9883V114.539H92.7549C95.3975 114.539 97.4277 115.141 98.8457 116.344C100.274 117.547 100.989 119.298 100.989 121.597C100.989 123.058 100.591 124.331 99.7964 125.416C99.0122 126.5 97.9165 127.312 96.5093 127.849L102.02 137.807V138H98.7007L93.6089 128.509ZM88.0981 125.979H92.8516C94.3877 125.979 95.6069 125.582 96.5093 124.787C97.4224 123.992 97.8789 122.929 97.8789 121.597C97.8789 120.146 97.4438 119.035 96.5737 118.261C95.7144 117.488 94.4683 117.096 92.8354 117.085H88.0981V125.979ZM118.601 127.156H108.433V135.47H120.244V138H105.339V114.539H120.083V117.085H108.433V124.626H118.601V127.156Z" fill="black"/>
</g>
<defs>
<clipPath id="clip0_1791_49229">
<rect width="167" height="213" fill="white"/>
</clipPath>
</defs>
</svg>
