<svg width="388" height="245" viewBox="0 0 388 245" fill="none" xmlns="http://www.w3.org/2000/svg">
<g clip-path="url(#clip0_1791_49242)">
<path d="M371.44 38.1501C371.48 38.9501 371.5 39.7601 371.5 40.5801C371.504 48.8443 369.44 56.9782 365.496 64.2407C361.552 71.5032 355.854 77.6634 348.92 82.1601C347.283 85.5058 345.433 88.7425 343.38 91.8501C342.761 93.1324 342.269 94.4721 341.91 95.8501L341.73 97.1401C341.91 95.8501 340.16 103.95 338.87 107.14C337.15 111.554 336.673 116.354 337.49 121.02C337.49 121.02 340.29 141.46 340.25 153.43C339.851 159.024 339.045 164.582 337.84 170.06H387.23V38.0601L371.44 38.1501Z" fill="#005187"/>
<path d="M91 48.5001V45.5001C91.8753 45.2826 92.7639 45.1223 93.66 45.0201L102.92 44.4901C110.6 43.7768 119.203 43.2101 128.73 42.7901C132.543 42.6568 138.543 42.5901 146.73 42.5901C157.897 42.5901 166.073 43.4135 171.26 45.0601C178.807 47.4868 184.437 51.1535 188.15 56.0601C191.787 60.7165 193.749 66.462 193.72 72.3701C193.747 82.1235 186.84 90.3101 173 96.9301L172.5 97.6401C178.746 99.1694 184.64 101.885 189.86 105.64C194.261 108.921 197.821 113.198 200.25 118.12C202.023 121.733 202.907 126.453 202.9 132.28C202.9 142.04 198.457 150.74 189.57 158.38C180.683 166.02 168.43 169.837 152.81 169.83H138.13L123.27 170.32C110.15 170.447 102.483 170.513 100.27 170.52C97.98 170.52 95.71 170.42 93.48 170.22V169.1C93.423 168.498 93.5983 167.897 93.97 167.42C94.6307 166.901 95.4113 166.557 96.24 166.42C104.433 164.72 109.07 163.557 110.15 162.93C110.7 162.603 111.179 162.169 111.559 161.654C111.938 161.138 112.211 160.552 112.36 159.93C113.153 157.31 113.55 150.56 113.55 139.68C113.55 138.68 113.55 137.45 113.45 135.95C113.31 131.56 113.25 129.04 113.25 128.38V118.18C113.25 100.847 113.053 85.7435 112.66 72.8701L112.56 53.1101L112.47 50.6601C106.903 49.8668 101.99 49.3735 97.73 49.1801C95.4697 49.1757 93.2155 48.9479 91 48.5001ZM129.8 98.3701C133.232 99.0454 136.722 99.3803 140.22 99.3701C154.5 99.3701 164.187 96.2401 169.28 89.9801C174.373 83.7201 176.92 77.4935 176.92 71.3001C176.907 68.4316 176.456 65.5818 175.58 62.8501C174.646 59.9159 173.012 57.2528 170.82 55.0901C168.442 52.7278 165.535 50.9658 162.34 49.9501C156.646 48.0511 150.682 47.0853 144.68 47.0901C139.393 47.0584 134.124 47.7002 129 49.0001C128.93 50.3901 128.9 51.4101 128.9 52.0701C128.9 52.7301 128.97 54.6101 129.1 57.7001C129.16 59.7001 129.2 61.7001 129.2 63.6301L128.9 75.6301L129 82.7501L129.69 96.6801L129.8 98.3701ZM153.08 165C158.785 164.764 164.381 163.358 169.52 160.87C172.199 159.341 174.647 157.439 176.79 155.22C179.629 152.449 181.857 149.114 183.33 145.43C184.812 141.949 185.604 138.213 185.66 134.43C185.551 131.059 184.999 127.717 184.02 124.49C182.984 120.655 181.09 117.105 178.48 114.11C175.873 111.123 171.993 108.663 166.84 106.73C161.394 104.747 155.635 103.765 149.84 103.83C137.84 103.83 131.107 104.06 129.64 104.52C129.57 106.02 129.54 107.14 129.54 107.86L129.64 111.5L129.54 118.88V127.25C129.74 142.663 130.103 151.777 130.63 154.59C131.16 157.42 132.96 159.84 136.03 161.88C139.1 163.92 144.77 165 153.08 165Z" fill="#005187"/>
<path d="M195.16 167.2C195.906 166.74 196.755 166.475 197.63 166.43H199.9C200.36 166.43 201.15 166.43 202.27 166.33C207.33 165.88 210.33 165.42 211.27 164.96C213.84 163.423 215.9 161.162 217.19 158.46C220.583 151.793 224.4 142.31 228.64 130.01C230.64 124.17 231.91 120.627 232.45 119.38C234.077 115.44 235.643 111.303 237.15 106.97L246.35 81.0801C247.777 77.0134 251.233 67.6801 256.72 53.0801C258.053 49.4134 259.72 44.4934 261.72 38.3201L264.78 38.1201L268.22 38.2201C271.139 44.0502 273.635 50.0824 275.69 56.2701C276.87 59.6901 278.803 64.7868 281.49 71.5601L296.42 112.1L304.42 134.1C308.62 146.6 311.377 154.267 312.69 157.1C314 159.96 315.22 161.85 316.33 162.77C317.492 163.345 318.726 163.759 320 164C322.13 164.53 323.63 164.92 324.48 165.19C326.634 165.72 328.741 166.426 330.78 167.3C331 167.815 331.135 168.362 331.18 168.92C331.147 169.411 331.046 169.896 330.88 170.36C328.78 170.43 327.3 170.46 326.45 170.46C323.117 170.46 317.207 170.39 308.72 170.25L298.87 170.1L286.95 170.2C286.16 170.2 285.36 170.2 284.54 170.13C283.72 170.06 283.01 170.05 282.42 170.05H280.26C279.559 170.007 278.876 169.809 278.26 169.47C278.258 168.58 278.424 167.698 278.75 166.87C279.428 166.52 280.163 166.293 280.92 166.2L291.26 165.5C293.344 165.488 295.41 165.119 297.37 164.41C297.694 163.549 297.893 162.647 297.96 161.73C297.96 160.54 297.1 157.45 295.4 152.48C294.22 149.147 293.187 146 292.3 143.04C291.413 140.08 287.913 130.27 281.8 113.61C279.468 113.175 277.102 112.941 274.73 112.91L253.73 113.11L247.54 113.01C245.076 113.023 242.614 113.187 240.17 113.5C239.32 115.5 238.76 116.9 238.5 117.75L229.88 144.9C226.213 155.24 224.38 160.933 224.38 161.98C224.495 163.024 224.793 164.039 225.26 164.98C227.07 165.466 228.911 165.83 230.77 166.07L244.17 167.25C244.9 167.86 245.26 168.4 245.26 168.88C245.226 169.394 245.125 169.902 244.96 170.39C241.96 170.46 239.74 170.5 238.16 170.5C232.9 170.5 226.79 170.23 219.83 169.69C216.61 169.55 214.31 169.49 212.93 169.49C211.55 169.49 209.15 169.55 205.74 169.69C203.5 169.82 201.89 169.89 200.91 169.89C199.33 169.89 197.293 169.793 194.8 169.6V169C194.828 168.385 194.949 167.778 195.16 167.2ZM242.1 108.09C249.113 108.49 257.113 108.687 266.1 108.68C271.213 108.68 275.703 108.517 279.57 108.19C278.946 105.77 278.189 103.386 277.3 101.05C273.033 89.7168 270.667 83.4601 270.2 82.2801L261.2 59.6901L260.2 57.9301C259.807 58.7168 258.37 62.0768 255.89 68.0101C251.71 78.1834 248.71 86.1034 246.89 91.7701C246.037 94.3101 245.153 96.8334 244.24 99.3401C243.578 101.069 243.007 102.831 242.53 104.62C242.292 105.675 241.957 106.706 241.53 107.7L242.1 108.09Z" fill="#005187"/>
<path d="M0 169C1.42246 168.461 2.91374 168.124 4.43 168C14.43 167.333 20.1667 166.13 21.64 164.39C23.1133 162.65 23.8367 154.193 23.81 139.02L23.71 128.64V117.81L23.32 105.81L23.51 98.8099L23.41 91.0899V81.9999L23.22 77.9999L23.41 72.8599C23.48 71.6699 23.51 70.2899 23.51 68.7099C23.51 64.5499 23.3133 60.1632 22.92 55.5499C22.6593 54.6261 22.2971 53.734 21.84 52.8899C19.41 51.6299 15.49 50.7999 10.08 50.3699C4.67 49.9399 1.61 49.4199 0.89 48.8899C0.36 48.4999 0.06 47.4799 0 45.8899H8.25L34.25 46.6999C40.9167 46.6999 49.8233 46.4299 60.97 45.8899C60.9745 46.8934 60.9076 47.8959 60.77 48.8899C58.5997 49.3608 56.4069 49.7212 54.2 49.9699C48.0133 50.6566 44.2333 51.3332 42.86 51.9999C42.0532 52.2834 41.3869 52.8673 41 53.6299C40.35 54.8099 40 57.0199 39.83 60.2299L39.34 72.9399L39.73 116.79V134.12C39.6033 139.58 39.5367 143.293 39.53 145.26C39.53 152.593 39.7133 157.29 40.08 159.35C40.2621 160.971 40.9316 162.498 42 163.73C43.2684 164.808 44.7948 165.539 46.43 165.85C48.7566 166.449 51.1332 166.834 53.53 167C57.24 167.14 59.6 167.67 60.59 168.59C60.7704 169.303 60.871 170.034 60.89 170.77V171.57C54.89 171.77 50.48 171.867 47.66 171.86C46.02 171.86 43.09 171.78 38.88 171.6L25.26 171.78L2.07 171.68H0.2L0 169Z" fill="#005187"/>
<path d="M12.9 228.44C12.62 228.3 11.73 227.91 10.22 227.27C9.00556 226.546 7.88395 225.676 6.88 224.68C6.42821 224.154 6.17987 223.483 6.18 222.79C6.15513 222.245 6.34138 221.711 6.7 221.3C7.56538 220.554 8.59248 220.02 9.7 219.74C10.9582 219.337 12.1876 218.849 13.38 218.28C13.08 218.08 12.61 217.78 11.96 217.39C10.3822 216.543 9.06736 215.28 8.15912 213.737C7.25089 212.193 6.78419 210.43 6.81 208.64C6.78127 207.187 7.05845 205.745 7.62354 204.406C8.18862 203.067 9.02897 201.863 10.09 200.87C11.2145 199.805 12.5402 198.975 13.9895 198.429C15.4387 197.883 16.9824 197.632 18.53 197.69C19.9823 197.676 21.4275 197.895 22.81 198.34C23.9757 198.784 25.0863 199.362 26.12 200.06C27.04 200.63 27.59 200.95 27.75 201.06C28.1699 201.177 28.6041 201.234 29.04 201.23C29.44 201.23 30.43 201.13 31.99 200.92C33.55 200.71 34.48 200.61 34.77 200.61C35.2441 200.59 35.7147 200.7 36.13 200.93C36.4692 201.682 36.6169 202.507 36.56 203.33C36.5711 203.487 36.5492 203.645 36.4958 203.793C36.4425 203.941 36.3587 204.076 36.25 204.19C36.1305 204.295 35.9909 204.375 35.8397 204.425C35.6884 204.475 35.5287 204.494 35.37 204.48C34.2472 204.406 33.1348 204.219 32.05 203.92C31.1298 203.659 30.1901 203.471 29.24 203.36C29.11 203.36 28.89 203.36 28.55 203.42C29.4667 205.064 29.9839 206.9 30.06 208.78C30.0028 210.559 29.4598 212.288 28.49 213.78C27.461 215.489 25.9564 216.862 24.16 217.73C22.4319 218.614 20.5212 219.084 18.58 219.1H17.39C15.3397 219.084 13.3264 219.646 11.58 220.72C10.73 221.26 10.31 221.72 10.31 222.24C10.31 222.76 10.73 223.24 11.57 223.68C13.7767 224.88 17.9733 225.573 24.16 225.76C26.3011 225.749 28.425 226.143 30.42 226.92C31.8361 227.533 33.0177 228.584 33.79 229.92C34.5264 231.162 34.9198 232.577 34.93 234.02C34.9033 235.93 34.222 237.772 33 239.24C31.4497 241.053 29.4391 242.414 27.18 243.18C24.3006 244.241 21.248 244.753 18.18 244.69C15.2467 244.824 12.3169 244.358 9.57 243.32C7.9234 242.667 6.45127 241.64 5.27 240.32C4.4949 239.429 4.04691 238.3 4 237.12C4.12522 235.871 4.60004 234.682 5.37 233.69C6.29 232.323 8.19667 230.887 11.09 229.38C12 228.94 12.58 228.63 12.9 228.44ZM10.43 240.87C12.7441 242.565 15.5634 243.429 18.43 243.32C20.7707 243.314 23.0958 242.939 25.32 242.21C27.2647 241.69 29.0073 240.596 30.32 239.07C31.2584 237.989 31.8138 236.629 31.9 235.2C31.8924 234.426 31.7004 233.665 31.34 232.98C30.9838 232.259 30.4589 231.635 29.81 231.16C29.0536 230.619 28.2021 230.226 27.3 230C26.254 229.746 25.1855 229.595 24.11 229.55C20.1833 229.237 17.7767 229.083 16.89 229.09C14.4559 229.079 12.1056 229.978 10.3 231.61C9.59889 232.174 9.03355 232.888 8.64581 233.7C8.25807 234.512 8.05786 235.4 8.06 236.3C8.08622 237.191 8.31291 238.064 8.72322 238.856C9.13354 239.647 9.71692 240.335 10.43 240.87ZM11.43 208.53C11.3731 210.281 11.6937 212.024 12.37 213.64C12.9164 214.9 13.8338 215.964 15 216.69C15.9878 217.327 17.1347 217.674 18.31 217.69C19.2573 217.704 20.1961 217.51 21.0601 217.121C21.9241 216.732 22.6922 216.158 23.31 215.44C24.6433 213.933 25.31 211.643 25.31 208.57C25.31 205.497 24.61 203.137 23.21 201.49C22.6052 200.732 21.8368 200.12 20.9623 199.701C20.0878 199.282 19.1298 199.066 18.16 199.07C17.2021 199.016 16.2454 199.197 15.3737 199.598C14.5021 199.999 13.742 200.607 13.16 201.37C12.0067 202.91 11.43 205.297 11.43 208.53Z" fill="#4B5C66"/>
<path d="M37.3697 183.07V182.32L39.5097 181.65C40.643 181.277 42.3097 180.707 44.5097 179.94H46.0997V219.69C46.0997 222.31 46.1997 223.77 46.4097 224.07C46.6197 224.37 47.5297 224.79 48.9497 224.95C49.8021 224.994 50.6438 225.159 51.4497 225.44C51.5352 225.481 51.6064 225.547 51.6545 225.629C51.7025 225.711 51.7252 225.805 51.7197 225.9C51.7392 226.086 51.6854 226.273 51.5697 226.42C51.4006 226.538 51.1948 226.591 50.9897 226.57L47.3297 226.46L42.7597 226.32L36.8997 226.57C36.603 226.613 36.3012 226.538 36.0597 226.36C35.9897 226.298 35.9345 226.22 35.8981 226.134C35.8618 226.047 35.8453 225.954 35.8497 225.86C35.8417 225.763 35.8576 225.666 35.8959 225.577C35.9343 225.489 35.994 225.41 36.0697 225.35C36.8851 225.083 37.7264 224.902 38.5797 224.81C39.4762 224.719 40.3551 224.5 41.1897 224.16C41.4655 223.828 41.6175 223.411 41.6197 222.98C41.7064 222.14 41.753 219.77 41.7597 215.87V207.81L41.8697 199.47V191.13L41.9797 187.03C42.0272 186.416 41.8952 185.801 41.5997 185.26C41.1612 184.769 40.603 184.401 39.9797 184.19C38.6797 183.67 37.8297 183.3 37.3697 183.07Z" fill="#4B5C66"/>
<path d="M54.58 212.31C54.6136 210.568 54.952 208.845 55.58 207.22C56.2415 205.414 57.2621 203.761 58.58 202.36C59.788 201.028 61.2411 199.942 62.86 199.16C65.2995 198.115 67.9372 197.613 70.59 197.69C72.6137 197.64 74.6257 198.013 76.4973 198.784C78.3689 199.555 80.0591 200.709 81.46 202.17C82.8747 203.579 83.9908 205.26 84.7417 207.11C85.4925 208.96 85.8626 210.943 85.83 212.94C85.8093 214.835 85.391 216.704 84.602 218.426C83.813 220.149 82.6711 221.687 81.25 222.94C79.7073 224.4 77.8905 225.54 75.9045 226.293C73.9186 227.047 71.803 227.399 69.68 227.33C66.804 227.317 63.9873 226.511 61.54 225C59.5237 223.754 57.839 222.039 56.63 220C55.2363 217.681 54.5257 215.015 54.58 212.31ZM70 225.94C71.7976 225.93 73.5594 225.436 75.1 224.51C76.8487 223.419 78.2151 221.812 79.01 219.91C80.0276 217.607 80.526 215.108 80.47 212.59C80.4148 210.438 80.0338 208.307 79.34 206.27C78.7739 204.15 77.5567 202.261 75.86 200.87C74.2801 199.664 72.3375 199.029 70.35 199.07C68.7273 199.089 67.1277 199.457 65.66 200.15C63.9035 201.056 62.4968 202.519 61.66 204.31C60.52 206.363 59.9667 209.26 60 213C60 217.253 60.96 220.463 62.88 222.63C63.7449 223.678 64.8331 224.519 66.0651 225.091C67.2971 225.664 68.6415 225.954 70 225.94Z" fill="#4B5C66"/>
<path d="M89.4805 182.63V182.45C89.5089 182.103 89.6004 181.764 89.7505 181.45C92.4637 180.945 95.1372 180.247 97.7505 179.36C98.007 179.346 98.264 179.346 98.5205 179.36C98.6034 179.596 98.6604 179.841 98.6905 180.09V190.45V193.76V197.45L98.6205 200.45C98.6205 200.57 98.6205 200.96 98.6905 201.63L101.57 200.55L104.57 199.64C106.74 199.29 108.01 199.12 108.36 199.12C110.515 199.087 112.656 199.463 114.67 200.23C115.943 200.78 117.101 201.567 118.08 202.55C119.124 203.526 119.969 204.694 120.57 205.99C121.413 207.785 121.893 209.729 121.98 211.71C122.059 213.478 121.895 215.248 121.49 216.97C120.871 218.97 119.888 220.838 118.59 222.48C117.264 223.963 115.633 225.143 113.81 225.94C111.85 226.836 109.727 227.322 107.572 227.366C105.417 227.411 103.276 227.014 101.28 226.2C100.257 225.708 99.1934 225.307 98.1005 225C97.3805 225 96.4605 225.94 95.3505 227.83H94.3505C94.2505 226.28 94.2105 224.37 94.2105 222.1L94.2805 216.92V214.27L94.3505 206.7L94.2805 205.24L94.4205 201.66V198.6V197.35C94.4205 197.09 94.4205 196.09 94.4205 194.35V192.27C94.4938 188.27 94.3205 185.937 93.9005 185.27C93.1405 184.21 91.6905 183.35 89.4805 182.63ZM106 225.44C109.54 225.44 112.25 224.44 114.11 222.44C115.97 220.44 116.89 217.44 116.89 213.54C117.029 210.317 115.898 207.168 113.74 204.77C112.756 203.691 111.553 202.834 110.211 202.256C108.87 201.679 107.42 201.394 105.96 201.42C104.023 201.359 102.097 201.728 100.32 202.5C99.4105 202.95 98.9005 203.35 98.8005 203.73C98.7005 204.11 98.6405 206.59 98.6405 211.2C98.6405 216.68 98.7572 219.883 98.9905 220.81C99.2774 222.091 100.056 223.208 101.16 223.92C102.603 224.863 104.278 225.389 106 225.44Z" fill="#4B5C66"/>
<path d="M152.92 221.57C153.024 221.777 153.092 222 153.12 222.23C152.993 222.908 152.712 223.547 152.3 224.1C151.716 225.126 150.901 226.003 149.92 226.66C149.231 227.053 148.442 227.237 147.65 227.19C146.952 227.241 146.253 227.126 145.608 226.855C144.963 226.583 144.392 226.164 143.94 225.63C143.302 224.646 142.933 223.511 142.87 222.34L139 225.09C138.008 225.709 136.952 226.219 135.85 226.61C134.474 226.937 133.064 227.091 131.65 227.07C131.138 227.105 130.624 227.031 130.143 226.851C129.662 226.672 129.225 226.393 128.861 226.031C128.496 225.67 128.213 225.235 128.03 224.755C127.847 224.275 127.769 223.762 127.8 223.25C127.8 221.64 128.8 219.72 130.8 217.48C133.016 215.067 135.751 213.189 138.8 211.99C141.18 210.99 142.63 210.35 143.17 210.07C143.17 209.29 143.24 208.44 143.24 207.51C143.24 204.51 142.83 202.477 142.01 201.41C141.592 200.882 141.053 200.462 140.439 200.185C139.824 199.908 139.153 199.783 138.48 199.82C136.791 199.855 135.182 200.543 133.99 201.74C133.13 202.55 132.49 204.08 132.05 206.32C131.872 207.02 131.599 207.693 131.24 208.32C130.534 208.864 129.695 209.209 128.81 209.32C128.303 209.321 127.809 209.16 127.4 208.86C127.299 208.802 127.214 208.719 127.153 208.62C127.091 208.52 127.056 208.407 127.05 208.29C127.05 207.683 127.693 206.3 128.98 204.14C130.137 202.114 131.824 200.441 133.86 199.3C135.419 198.35 137.187 197.797 139.01 197.69C140.516 197.625 142.023 197.807 143.47 198.23C144.483 198.628 145.373 199.287 146.05 200.14C146.763 201.001 147.233 202.037 147.41 203.14C147.5 203.66 147.55 205.49 147.55 208.64L147.44 214.22V218.28C147.44 218.82 147.44 219.28 147.44 219.65C147.44 220.32 147.44 220.83 147.44 221.15C147.383 221.816 147.583 222.478 148 223C148.189 223.221 148.424 223.398 148.688 223.519C148.952 223.64 149.239 223.701 149.53 223.7C149.982 223.687 150.423 223.558 150.811 223.328C151.199 223.097 151.523 222.77 151.75 222.38L152.16 221.82C152.401 221.702 152.656 221.618 152.92 221.57ZM142.85 220.57C143.023 217.597 143.107 215.507 143.1 214.3C143.1 213.67 143.1 212.82 143 211.74C141.239 212.394 139.56 213.253 138 214.3C136.342 215.341 134.908 216.7 133.78 218.3C133.108 219.162 132.714 220.209 132.65 221.3C132.636 221.725 132.713 222.148 132.875 222.541C133.037 222.934 133.281 223.288 133.59 223.58C133.9 223.882 134.269 224.118 134.672 224.274C135.076 224.431 135.507 224.504 135.94 224.49C136.874 224.439 137.784 224.176 138.6 223.72C140.169 222.873 141.602 221.794 142.85 220.52V220.57Z" fill="#4B5C66"/>
<path d="M155.47 183.07V182.32L157.61 181.65C158.737 181.277 160.403 180.707 162.61 179.94H164.2V219.69C164.2 222.31 164.31 223.77 164.52 224.07C164.73 224.37 165.64 224.79 167.05 224.95C167.902 224.994 168.744 225.159 169.55 225.44C169.638 225.479 169.712 225.544 169.762 225.626C169.812 225.708 169.836 225.804 169.83 225.9C169.841 225.993 169.833 226.087 169.805 226.177C169.778 226.267 169.732 226.349 169.67 226.42C169.505 226.538 169.302 226.591 169.1 226.57L165.43 226.46L160.86 226.32L155 226.57C154.703 226.61 154.403 226.535 154.16 226.36C154.09 226.298 154.035 226.22 153.998 226.134C153.962 226.047 153.946 225.954 153.95 225.86C153.943 225.763 153.961 225.665 154.001 225.576C154.041 225.487 154.102 225.409 154.18 225.35C154.992 225.081 155.83 224.9 156.68 224.81C157.577 224.721 158.456 224.502 159.29 224.16C159.574 223.832 159.73 223.413 159.73 222.98C159.817 222.14 159.86 219.77 159.86 215.87V207.81L159.96 199.47V191.13L160.06 187.03C160.112 186.415 159.98 185.799 159.68 185.26C159.246 184.765 158.686 184.395 158.06 184.19C156.78 183.67 155.93 183.3 155.47 183.07Z" fill="#4B5C66"/>
<path d="M189.05 225.44C190.665 225.241 192.254 224.869 193.79 224.33C194.05 224.17 194.18 223.8 194.18 223.22V220.92V216.85L194.11 206.49V202.63V199.89L194.22 196.51C194.22 191.23 194.16 188.07 194.06 187.04C194.072 186.347 193.858 185.67 193.45 185.11C192.903 184.577 191.373 184.02 188.86 183.44V183.27C188.87 183.036 188.893 182.802 188.93 182.57C189.26 182.57 189.57 182.46 189.87 182.39C190.157 182.326 190.447 182.279 190.74 182.25C192.825 181.721 194.839 180.945 196.74 179.94H198.45C198.45 180.59 198.52 182.65 198.52 186.12V190.55V196.27L198.38 203.27C198.38 203.69 198.38 204.16 198.45 204.67C199.433 203.451 200.503 202.305 201.65 201.24C202.82 200.267 204.128 199.471 205.53 198.88C206.898 198.309 208.367 198.016 209.85 198.02C211.222 198.004 212.577 198.324 213.797 198.952C215.017 199.579 216.065 200.495 216.85 201.62C217.996 203.403 218.546 205.504 218.42 207.62L218.31 211.16V213.16L218.17 216.6C218.07 219.44 218.03 221.12 218.03 221.66C218.03 222.2 218.03 223.07 218.1 224.08L220.04 224.53C221.32 224.81 222.32 225.07 223.04 225.3V226.42L215.71 226.3C215.29 226.3 214.17 226.3 212.34 226.38H210.34H209.58C209.481 226.234 209.423 226.065 209.41 225.89V225.6C209.894 225.125 210.533 224.841 211.21 224.8L213.29 224.31C213.535 224.133 213.709 223.874 213.78 223.58C213.867 222.98 213.97 219.98 214.09 214.58L214.16 212.01C214.295 209.741 214.083 207.465 213.53 205.26C213.2 204.029 212.404 202.975 211.31 202.32C210.11 201.579 208.721 201.2 207.31 201.23C206.078 201.221 204.86 201.495 203.75 202.03C202.75 202.578 201.822 203.25 200.99 204.03C200.133 204.755 199.383 205.596 198.76 206.53C198.428 207.245 198.283 208.033 198.34 208.82V211.24L198.27 213.77C198.27 213.98 198.27 215.42 198.38 218.1V220.31L198.45 222.74C198.458 222.997 198.495 223.252 198.56 223.5L203.42 224.68C203.808 224.796 204.189 224.937 204.56 225.1L204.67 225.49C204.645 225.686 204.584 225.876 204.49 226.05C203.823 226.09 203.313 226.11 202.96 226.11L200.24 226.05L194.24 226.18L189.74 226.3C189.5 226.3 189.16 226.25 188.74 226.23V225.99C188.798 225.784 188.904 225.596 189.05 225.44Z" fill="#4B5C66"/>
<path d="M251.66 208.07L237.79 208.15H235.14H231.85C231.69 208.609 231.585 209.086 231.54 209.57V209.92V210.26V211.96C231.634 213.758 232.086 215.519 232.87 217.14C233.645 219.045 234.977 220.672 236.69 221.81C238.553 222.949 240.697 223.544 242.88 223.53C243.949 223.502 245.01 223.344 246.04 223.06C247.212 222.623 248.329 222.053 249.37 221.36L251.86 219.36L252.07 220.69C252.08 220.857 252.08 221.024 252.07 221.19C250.964 222.558 249.627 223.722 248.12 224.63C246.614 225.578 244.981 226.309 243.27 226.8C241.99 227.053 240.684 227.157 239.38 227.11C237.713 227.105 236.063 226.765 234.53 226.11C232.197 225.109 230.248 223.384 228.97 221.19C227.565 218.68 226.874 215.834 226.97 212.96C227.012 211.632 227.206 210.313 227.55 209.03C228.002 207.241 228.695 205.522 229.61 203.92C230.226 202.769 231.062 201.75 232.07 200.92C233.175 199.986 234.399 199.203 235.71 198.59C237.375 197.936 239.152 197.616 240.94 197.65C242.772 197.574 244.591 197.988 246.21 198.85C247.947 199.797 249.382 201.214 250.35 202.94C251.184 204.331 251.655 205.909 251.72 207.53L251.66 208.07ZM232.3 206.82H233.93C235.11 206.82 238.623 206.653 244.47 206.32C245.05 206.337 245.628 206.238 246.17 206.03C246.518 205.712 246.738 205.279 246.79 204.81C246.753 203.926 246.517 203.061 246.1 202.28C245.641 201.339 244.89 200.571 243.96 200.09C242.929 199.556 241.78 199.291 240.62 199.32C239.376 199.283 238.142 199.545 237.02 200.082C235.898 200.62 234.921 201.418 234.17 202.41C233.062 203.624 232.403 205.18 232.3 206.82Z" fill="#4B5C66"/>
<path d="M282.17 221.57C282.274 221.777 282.342 222 282.37 222.23C282.243 222.908 281.962 223.547 281.55 224.1C280.969 225.128 280.153 226.005 279.17 226.66C278.481 227.053 277.692 227.237 276.9 227.19C276.202 227.241 275.503 227.126 274.858 226.855C274.213 226.583 273.642 226.164 273.19 225.63C272.552 224.646 272.183 223.511 272.12 222.34L268.2 225.09C267.208 225.709 266.152 226.219 265.05 226.61C263.674 226.937 262.264 227.091 260.85 227.07C260.338 227.105 259.824 227.031 259.343 226.851C258.862 226.672 258.425 226.393 258.061 226.031C257.696 225.67 257.413 225.235 257.23 224.755C257.047 224.275 256.969 223.762 257 223.25C257 221.64 258 219.72 260 217.48C262.216 215.067 264.951 213.189 268 211.99C270.38 210.99 271.837 210.35 272.37 210.07C272.42 209.29 272.44 208.44 272.44 207.51C272.44 204.51 272.03 202.477 271.21 201.41C270.792 200.882 270.253 200.462 269.639 200.185C269.024 199.908 268.353 199.783 267.68 199.82C265.992 199.857 264.383 200.545 263.19 201.74C262.337 202.553 261.69 204.08 261.25 206.32C261.076 207.022 260.803 207.695 260.44 208.32C259.734 208.864 258.895 209.209 258.01 209.32C257.503 209.321 257.009 209.16 256.6 208.86C256.499 208.802 256.414 208.719 256.353 208.62C256.291 208.52 256.256 208.407 256.25 208.29C256.25 207.683 256.893 206.3 258.18 204.14C259.337 202.114 261.024 200.441 263.06 199.3C264.619 198.35 266.387 197.797 268.21 197.69C269.716 197.625 271.223 197.807 272.67 198.23C273.683 198.628 274.573 199.287 275.25 200.14C275.963 201.001 276.433 202.037 276.61 203.14C276.7 203.66 276.75 205.49 276.75 208.64L276.64 214.22V218.28C276.64 218.82 276.64 219.28 276.64 219.65C276.64 220.32 276.64 220.83 276.64 221.15C276.605 221.831 276.839 222.499 277.29 223.01C277.479 223.231 277.714 223.408 277.978 223.529C278.242 223.65 278.529 223.711 278.82 223.71C279.272 223.697 279.713 223.568 280.101 223.338C280.489 223.107 280.813 222.78 281.04 222.39L281.45 221.83C281.678 221.712 281.92 221.625 282.17 221.57ZM272.1 220.57C272.267 217.597 272.35 215.507 272.35 214.3C272.35 213.67 272.35 212.82 272.25 211.74C270.489 212.396 268.811 213.255 267.25 214.3C265.593 215.338 264.161 216.698 263.04 218.3C262.361 219.159 261.963 220.207 261.9 221.3C261.886 221.725 261.963 222.148 262.125 222.541C262.287 222.934 262.531 223.288 262.84 223.58C263.152 223.883 263.522 224.119 263.927 224.276C264.333 224.432 264.766 224.505 265.2 224.49C266.13 224.438 267.037 224.174 267.85 223.72C269.419 222.873 270.852 221.794 272.1 220.52V220.57Z" fill="#4B5C66"/>
<path d="M284.73 183.07V182.32L286.86 181.65C287.987 181.277 289.653 180.707 291.86 179.94H293.46V219.69C293.46 222.31 293.56 223.77 293.77 224.07C293.98 224.37 294.89 224.79 296.3 224.95C297.152 224.994 297.994 225.159 298.8 225.44C298.888 225.479 298.962 225.544 299.012 225.626C299.063 225.708 299.086 225.804 299.08 225.9C299.091 225.993 299.083 226.087 299.055 226.177C299.028 226.267 298.982 226.349 298.92 226.42C298.755 226.538 298.552 226.591 298.35 226.57L294.68 226.46L290.11 226.32L284.25 226.57C283.953 226.61 283.653 226.535 283.41 226.36C283.341 226.297 283.288 226.219 283.253 226.133C283.218 226.046 283.204 225.953 283.21 225.86C283.202 225.763 283.218 225.666 283.256 225.577C283.295 225.489 283.354 225.41 283.43 225.35C284.242 225.081 285.08 224.9 285.93 224.81C286.827 224.721 287.706 224.502 288.54 224.16C288.827 223.841 288.99 223.429 289 223C289.087 222.16 289.133 219.79 289.14 215.89V207.83L289.25 199.49V191.15L289.35 187.05C289.402 186.435 289.27 185.819 288.97 185.28C288.536 184.785 287.976 184.415 287.35 184.21C286 183.67 285.18 183.3 284.73 183.07Z" fill="#4B5C66"/>
<path d="M301.18 201.57V200.5C302.016 200.29 302.84 200.036 303.65 199.74C305.66 198.781 307.384 197.312 308.65 195.48C308.874 195.438 309.102 195.414 309.33 195.41H309.75C309.84 196.52 309.89 197.33 309.89 197.83C309.89 197.95 309.89 198.47 309.82 199.39V201.22V211.22L309.72 221.77C309.638 222.393 309.783 223.025 310.13 223.55C310.926 224.11 311.833 224.492 312.79 224.67C313.495 224.85 314.19 225.07 314.87 225.33C314.927 225.47 314.96 225.619 314.97 225.77C314.954 225.968 314.893 226.16 314.79 226.33C313.88 226.33 312.72 226.33 311.3 226.22C309.36 226.13 308.08 226.08 307.45 226.08L301.86 226.2C301.16 226.2 300.48 226.26 299.86 226.33C299.67 226.316 299.482 226.279 299.3 226.22C299.199 226.09 299.136 225.934 299.12 225.77C299.12 225.42 299.34 225.15 299.79 224.95C299.88 224.95 301.06 224.64 303.33 224.16C303.884 224.113 304.402 223.868 304.79 223.47C305.234 222.782 305.438 221.966 305.37 221.15C305.417 219.383 305.443 214.527 305.45 206.58C305.499 205.575 305.428 204.568 305.24 203.58C305.012 203.193 304.693 202.866 304.31 202.63C303.329 202.113 302.273 201.755 301.18 201.57ZM304.18 183.47C304.181 183.1 304.26 182.735 304.414 182.399C304.567 182.062 304.791 181.763 305.07 181.52C305.645 180.971 306.415 180.672 307.21 180.69C307.628 180.689 308.042 180.77 308.428 180.93C308.814 181.089 309.165 181.324 309.46 181.62C309.759 181.863 310.003 182.168 310.175 182.512C310.347 182.857 310.445 183.235 310.46 183.62C310.441 184.004 310.342 184.381 310.17 184.725C309.998 185.069 309.756 185.374 309.46 185.62C309.167 185.921 308.818 186.16 308.431 186.323C308.045 186.486 307.629 186.57 307.21 186.57C306.811 186.578 306.414 186.505 306.043 186.358C305.672 186.21 305.335 185.99 305.05 185.71C304.758 185.417 304.531 185.066 304.381 184.681C304.231 184.295 304.163 183.883 304.18 183.47Z" fill="#4B5C66"/>
<path d="M316.77 225.14C317.428 224.962 318.096 224.822 318.77 224.72C319.697 224.688 320.604 224.442 321.42 224C321.788 223.443 321.941 222.771 321.85 222.11L321.93 220.87C321.93 220.41 321.93 219.82 321.93 219.11L321.86 208.54C321.972 207.587 321.776 206.623 321.3 205.79C320.309 204.989 319.092 204.517 317.82 204.44V203C319.235 202.676 320.567 202.06 321.73 201.19C323.142 200.036 324.283 198.585 325.07 196.94H326.2C326.27 198.04 326.31 198.82 326.31 199.29V201.6V202.24C326.59 202.05 326.91 201.81 327.31 201.53C328.643 200.517 330.081 199.652 331.6 198.95C332.857 198.357 334.17 197.891 335.52 197.56C336.318 197.362 337.138 197.268 337.96 197.28C339.728 197.234 341.462 197.776 342.89 198.82C344.156 199.703 345.094 200.979 345.56 202.45C346.081 205.177 346.286 207.956 346.17 210.73V216.02C346.17 216.17 346.17 216.63 346.12 217.43C346.07 218.23 346.06 219.13 346.06 220.16C346.011 221.205 346.081 222.251 346.27 223.28C346.471 223.671 346.789 223.989 347.18 224.19C349.4 224.5 350.69 224.86 351.06 225.28V225.55C351.045 225.844 350.973 226.133 350.85 226.4H350.18L345.54 226.28L340.96 226.44C339.27 226.44 337.71 226.44 336.28 226.44L336.06 225.66C336.089 225.444 336.175 225.241 336.31 225.07C337.163 224.739 338.065 224.55 338.98 224.51C339.456 224.493 339.929 224.422 340.39 224.3C340.732 224.159 341.052 223.971 341.34 223.74C341.582 223.31 341.726 222.832 341.76 222.34C341.76 222.18 341.76 221.85 341.69 221.34C341.617 220.267 341.57 217.6 341.55 213.34V211.52L341.62 208.73C341.62 205.723 341.02 203.65 339.82 202.51C338.501 201.328 336.769 200.714 335 200.8C333.428 200.794 331.874 201.135 330.45 201.8C328.85 202.571 327.398 203.617 326.16 204.89C326.11 206 326.09 206.96 326.09 207.75L326.19 215.47C326.19 219.47 326.25 221.937 326.37 222.87C326.377 223.144 326.46 223.411 326.61 223.64C326.94 223.881 327.325 224.036 327.73 224.09C328.29 224.21 328.94 224.37 329.67 224.58C330.4 224.79 330.89 224.91 331.12 224.96C331.319 224.995 331.507 225.076 331.67 225.196C331.833 225.315 331.967 225.471 332.06 225.65V226.34H328.4L320.87 226.27L317.56 226.21H316.68L316.62 225.77C316.648 225.555 316.698 225.344 316.77 225.14Z" fill="#4B5C66"/>
<path d="M361.26 228.44C360.98 228.3 360.09 227.91 358.58 227.27C357.366 226.546 356.244 225.676 355.24 224.68C354.788 224.154 354.54 223.483 354.54 222.79C354.515 222.245 354.701 221.711 355.06 221.3C355.925 220.554 356.952 220.02 358.06 219.74C359.318 219.337 360.548 218.849 361.74 218.28C361.44 218.08 360.97 217.78 360.32 217.39C358.744 216.542 357.43 215.278 356.522 213.735C355.614 212.192 355.146 210.43 355.17 208.64C355.141 207.187 355.418 205.745 355.984 204.406C356.549 203.067 357.389 201.863 358.45 200.87C359.575 199.805 360.9 198.975 362.349 198.429C363.799 197.883 365.342 197.632 366.89 197.69C368.342 197.676 369.787 197.895 371.17 198.34C372.336 198.784 373.446 199.362 374.48 200.06C375.4 200.63 375.95 200.95 376.11 201.06C376.53 201.177 376.964 201.234 377.4 201.23C377.81 201.23 378.79 201.13 380.4 200.92C382.01 200.71 382.89 200.61 383.18 200.61C383.654 200.59 384.125 200.7 384.54 200.93C384.879 201.682 385.027 202.507 384.97 203.33C384.981 203.487 384.959 203.645 384.906 203.793C384.852 203.941 384.769 204.076 384.66 204.19C384.54 204.295 384.401 204.375 384.25 204.425C384.098 204.475 383.939 204.494 383.78 204.48C382.657 204.406 381.545 204.219 380.46 203.92C379.54 203.659 378.6 203.471 377.65 203.36C377.53 203.36 377.3 203.38 376.96 203.42C377.877 205.064 378.394 206.9 378.47 208.78C378.413 210.559 377.87 212.288 376.9 213.78C375.871 215.489 374.366 216.862 372.57 217.73C370.842 218.614 368.931 219.084 366.99 219.1H365.8C363.75 219.084 361.736 219.646 359.99 220.72C359.14 221.26 358.72 221.72 358.72 222.24C358.72 222.76 359.14 223.24 359.98 223.68C362.187 224.88 366.383 225.573 372.57 225.76C374.711 225.749 376.835 226.143 378.83 226.92C380.246 227.533 381.428 228.584 382.2 229.92C382.936 231.162 383.33 232.577 383.34 234.02C383.33 235.949 382.651 237.815 381.42 239.3C379.872 241.111 377.865 242.472 375.61 243.24C372.73 244.298 369.678 244.811 366.61 244.75C363.677 244.884 360.747 244.418 358 243.38C356.353 242.727 354.881 241.7 353.7 240.38C352.925 239.489 352.477 238.36 352.43 237.18C352.555 235.931 353.03 234.742 353.8 233.75C354.72 232.383 356.627 230.947 359.52 229.44C360.36 228.94 360.94 228.63 361.26 228.44ZM358.79 240.87C361.104 242.565 363.923 243.429 366.79 243.32C369.131 243.314 371.456 242.939 373.68 242.21C375.625 241.69 377.367 240.596 378.68 239.07C379.618 237.989 380.174 236.629 380.26 235.2C380.252 234.426 380.06 233.665 379.7 232.98C379.344 232.259 378.819 231.635 378.17 231.16C377.403 230.623 376.541 230.236 375.63 230.02C374.584 229.766 373.516 229.615 372.44 229.57C368.51 229.26 366.11 229.11 365.22 229.11C362.786 229.099 360.436 229.998 358.63 231.63C357.929 232.194 357.364 232.908 356.976 233.72C356.588 234.532 356.388 235.42 356.39 236.32C356.423 237.21 356.655 238.081 357.071 238.869C357.486 239.656 358.074 240.34 358.79 240.87ZM359.79 208.53C359.733 210.281 360.054 212.024 360.73 213.64C361.263 214.893 362.162 215.956 363.31 216.69C364.298 217.327 365.445 217.674 366.62 217.69C367.567 217.704 368.506 217.51 369.37 217.121C370.234 216.732 371.002 216.158 371.62 215.44C372.953 213.933 373.62 211.643 373.62 208.57C373.62 205.497 372.92 203.137 371.52 201.49C370.915 200.732 370.147 200.12 369.272 199.701C368.398 199.282 367.44 199.066 366.47 199.07C365.512 199.016 364.555 199.197 363.684 199.598C362.812 199.999 362.052 200.607 361.47 201.37C360.35 202.91 359.79 205.297 359.79 208.53Z" fill="#4B5C66"/>
<path d="M334.87 46.0001C334.97 46.3503 335.04 46.7082 335.08 47.0701C336.953 46.1034 338.74 45.1034 340.44 44.0701C339.51 41.3101 338.44 38.5001 337.23 35.6701C334.951 30.3315 332.277 25.1705 329.23 20.2301C325.949 22.3947 322.478 24.2557 318.86 25.7901C314.749 27.5773 310.457 28.9183 306.06 29.7901C307.395 34.9741 309.096 40.0569 311.15 45.0001C311.81 42.8901 313.56 38.2101 316.38 36.2901C316.38 36.2901 320.32 33.7401 322.51 34.2901C325.35 33.7101 329.28 36.2901 329.28 36.2901C333 38.7001 334.87 46.0001 334.87 46.0001ZM304.87 29.9301C299.98 30.7201 295.61 30.6601 292.34 29.6601C291.766 37.9777 293.21 46.3109 296.55 53.9501C296.84 54.6201 297.13 55.2801 297.44 55.9501C302.065 56.3884 306.729 56.1627 311.29 55.2801L310.56 53.2801C310.56 53.2801 310.36 51.7601 311.24 51.8701C310.701 50.2618 310.504 48.5589 310.66 46.8701C308.299 41.3707 306.367 35.6972 304.88 29.9001L304.87 29.9301ZM328.6 19.1801C324.45 12.6201 320.06 7.50004 316 4.61004C314.468 5.64386 312.841 6.52793 311.14 7.25004C308.914 8.23857 306.556 8.89555 304.14 9.20004C303.32 14.0501 303.95 20.8801 305.78 28.5301C310.116 27.6929 314.348 26.3851 318.4 24.6301C321.966 23.1252 325.385 21.2906 328.61 19.1501L328.6 19.1801ZM363.09 39.1801C363.089 34.1772 362.129 29.2209 360.26 24.5801C359.511 27.0003 358.35 29.2735 356.83 31.3001C359.622 38.6397 360.707 46.519 360 54.3401C362.048 49.5204 363.103 44.3369 363.1 39.1001L363.09 39.1801ZM313.48 59.1801C313.089 58.9403 312.75 58.6233 312.486 58.2485C312.221 57.8737 312.035 57.449 311.94 57.0001L311.71 56.3901C307.219 57.2615 302.632 57.5339 298.07 57.2001C300.574 62.1861 303.862 66.7375 307.81 70.6801C309.369 70.5353 310.908 70.2235 312.4 69.7501C312.4 69.7501 316.4 68.6401 315.83 66.4201C315.83 66.3801 314.37 61.5001 313.49 59.0801L313.48 59.1801ZM339.78 3.33004C334.811 1.12676 329.435 -0.00775704 324 3.9917e-05C323.46 3.9917e-05 322.92 3.9917e-05 322.39 3.9917e-05C328.665 0.895143 334.594 3.42667 339.58 7.34004C340.08 6.06049 340.15 4.65299 339.78 3.33004ZM355.78 28.6101C355.98 29.0601 356.15 29.5201 356.33 29.9801C357.919 27.8249 358.993 25.3346 359.47 22.7001C355.688 14.5537 349.225 7.9524 341.16 4.00004C341.328 5.42095 341.125 6.86121 340.57 8.18004C347.238 13.6448 352.467 20.659 355.8 28.6101H355.78ZM330.22 19.4901C333.299 24.5017 336 29.7362 338.3 35.1501C339.5 37.9301 340.56 40.6801 341.49 43.3601C346.826 40.1193 351.562 35.9819 355.49 31.1301C355.23 30.4401 354.96 29.7501 354.67 29.0801C351.461 21.4025 346.453 14.6085 340.07 9.27004C338.38 12.6201 334.94 16.2001 330.24 19.4901H330.22ZM335.1 48.3501C335.041 49.5299 334.826 50.6967 334.46 51.8201C335.33 51.7101 335.14 53.2301 335.14 53.2301L333.79 57.0001C333.683 57.4392 333.491 57.8527 333.223 58.2167C332.955 58.5806 332.618 58.8877 332.23 59.1201C331.36 61.5401 329.9 66.4201 329.9 66.4201C329.31 68.6401 333.32 69.7501 333.32 69.7501C334.38 70.0973 335.467 70.3548 336.57 70.5201C337.703 70.6745 338.855 70.6032 339.96 70.3101C341.719 70.0644 343.464 69.7306 345.19 69.3101C345.37 62.9901 343.87 54.4501 340.83 45.2201C339 46.2701 337.11 47.3301 335.12 48.3501H335.1ZM291 55.5801C289.878 55.1354 288.814 54.558 287.83 53.8601C290.139 59.4958 293.731 64.5154 298.32 68.5201C300.68 69.8404 303.302 70.6256 306 70.8201H306.32C302.39 66.7524 299.13 62.088 296.66 57.0001C294.722 56.7594 292.822 56.2825 291 55.5801ZM341.89 44.5001C345.05 53.9101 346.59 62.5001 346.44 68.9401C347.77 68.5901 349.2 68.1601 350.65 67.6301C350.65 67.6301 350.56 67.7401 350.38 67.9201C353.538 65.037 356.206 61.6596 358.28 57.9201C359.807 49.3489 359.02 40.5256 356 32.3601C351.999 37.1577 347.231 41.2598 341.89 44.5001ZM296.05 55.6901C295.85 55.2601 295.65 54.8301 295.46 54.3901C291.999 46.4755 290.53 37.8337 291.18 29.2201C289.494 28.6137 288.077 27.4306 287.18 25.8801C284.233 34.118 284.127 43.1052 286.88 51.4101C288.12 52.7774 289.67 53.8269 291.4 54.4701C292.901 55.0462 294.46 55.4554 296.05 55.6901ZM302 7.88004C302.71 8.21004 306.55 7.88004 310.69 6.15004C314.83 4.42004 317.47 2.25004 317.95 1.08004C317.994 0.946952 317.994 0.803128 317.95 0.67004C317.907 0.594166 317.84 0.534466 317.76 0.50004C311.87 1.48011 306.281 3.79221 301.42 7.26004C301.42 7.26004 301.28 7.56004 302 7.88004ZM317 3.88004C321.09 6.88004 325.47 12.0101 329.61 18.5001C334.24 15.2401 337.61 11.7301 339.12 8.50004C333 3.81004 326.06 1.07004 319.14 1.00004C319.127 1.17749 319.09 1.35237 319.03 1.52004C318.547 2.44897 317.851 3.25072 317 3.86004V3.88004ZM291.3 28.0001C291.976 20.9352 294.783 14.2426 299.35 8.81004C294.271 12.9353 290.307 18.2678 287.82 24.3201C287.865 24.5504 287.925 24.7776 288 25.0001C288.68 26.382 289.86 27.4542 291.3 28.0001ZM304.6 28.7901C302.75 21.1301 302.14 14.3201 302.94 9.29004C302.458 9.26813 301.982 9.17026 301.53 9.00004C301.339 8.91819 301.161 8.81051 301 8.68004C296.18 13.7301 293.29 20.6801 292.44 28.4001C295.55 29.4301 299.8 29.5101 304.6 28.7401V28.7901Z" fill="#005187"/>
<path d="M0.650391 16.6599H2.27039V27.9999H0.650391V16.6599Z" fill="#4B5C66"/>
<path d="M5.25 19.7H6.72V21C6.99043 20.5268 7.38466 20.1362 7.86036 19.8701C8.33605 19.6041 8.87524 19.4727 9.42 19.49C11.56 19.49 12.52 20.82 12.52 23.04V28H11V23.69C11 21.76 10.58 20.82 9.25 20.69C7.51 20.69 6.73 22.09 6.73 24.1V28H5.25V19.7Z" fill="#4B5C66"/>
<path d="M19.79 20.9401H17.6V25.46C17.5775 25.6425 17.5937 25.8277 17.6475 26.0035C17.7013 26.1793 17.7915 26.3417 17.9122 26.4804C18.033 26.6191 18.1815 26.7308 18.3483 26.8083C18.515 26.8858 18.6962 26.9272 18.88 26.93C19.2341 26.9299 19.5808 26.8294 19.88 26.64V27.9401C19.4598 28.0781 19.0221 28.1554 18.58 28.17C17.01 28.17 16.04 27.4201 16.04 25.7701V20.9401H14.21V19.7001H16.08V17.7901L17.6 17.3V19.7001H19.79V20.9401Z" fill="#4B5C66"/>
<path d="M28.2904 27.63C27.4683 27.9923 26.5788 28.1764 25.6804 28.17C22.7404 28.17 21.4004 26.38 21.4004 23.69C21.4004 21.24 22.9404 19.51 25.2704 19.51C28.0304 19.51 28.9204 21.51 28.9204 24.18H23.0004C22.9937 24.5405 23.0593 24.8986 23.1932 25.2333C23.3272 25.568 23.5268 25.8725 23.7803 26.1288C24.0338 26.3851 24.3361 26.588 24.6693 26.7256C25.0025 26.8633 25.3599 26.9327 25.7204 26.93C26.6301 26.8988 27.5131 26.6149 28.2704 26.11L28.2904 27.63ZM27.3004 23C27.3296 22.7109 27.2982 22.4189 27.2082 22.1427C27.1183 21.8664 26.9717 21.612 26.7778 21.3955C26.584 21.1791 26.3471 21.0055 26.0824 20.8857C25.8177 20.766 25.5309 20.7027 25.2404 20.7C24.6392 20.7105 24.0665 20.9581 23.6469 21.3889C23.2274 21.8197 22.995 22.3987 23.0004 23H27.3004Z" fill="#4B5C66"/>
<path d="M31.2002 19.7H32.6302V21C32.8206 20.5803 33.1228 20.2211 33.5038 19.9618C33.8849 19.7025 34.3299 19.5531 34.7902 19.53C35.1266 19.5295 35.462 19.5664 35.7902 19.64V21C35.5215 20.901 35.2365 20.8535 34.9502 20.86C33.5902 20.86 32.7002 22.16 32.7002 24.23V28H31.2002V19.7Z" fill="#4B5C66"/>
<path d="M37.75 19.7H39.23V21C39.5086 20.5196 39.915 20.1259 40.4041 19.8629C40.8931 19.5998 41.4456 19.4776 42 19.51C44.14 19.51 45.09 20.84 45.09 23.06V28H43.54V23.69C43.54 21.76 43.12 20.82 41.79 20.69C40.06 20.69 39.28 22.09 39.28 24.1V28H37.75V19.7Z" fill="#4B5C66"/>
<path d="M48.2904 20.29C49.1046 19.7854 50.0425 19.5154 51.0004 19.51C53.3704 19.51 54.3304 20.68 54.3304 22.93V26.35C54.3214 26.9009 54.3447 27.4519 54.4004 28H53.0004V26.9C52.7099 27.3047 52.3246 27.632 51.8783 27.8534C51.4321 28.0748 50.9384 28.1835 50.4404 28.17C48.6604 28.17 47.4404 27.39 47.4404 25.59C47.4404 23.51 49.7104 22.86 51.2804 22.86C51.8804 22.86 52.2804 22.86 52.9004 22.86C52.9004 21.43 52.3804 20.7 50.9004 20.7C50.0289 20.7033 49.1837 20.9991 48.5004 21.54L48.2904 20.29ZM52.8104 24H51.8104C51.0004 24 49.0004 24.13 49.0004 25.59C49.0286 25.9713 49.2062 26.326 49.4946 26.5769C49.7831 26.8279 50.1589 26.9548 50.5404 26.93C50.8392 26.9622 51.1414 26.9292 51.4262 26.8333C51.7111 26.7375 51.9717 26.5811 52.1903 26.3749C52.4089 26.1686 52.5802 25.9175 52.6924 25.6387C52.8046 25.3599 52.8551 25.0602 52.8404 24.76L52.8104 24Z" fill="#4B5C66"/>
<path d="M61.55 20.9401H59.36V25.46C59.3375 25.6425 59.3537 25.8277 59.4075 26.0035C59.4613 26.1793 59.5515 26.3417 59.6722 26.4804C59.793 26.6191 59.9415 26.7308 60.1083 26.8083C60.275 26.8858 60.4562 26.9272 60.64 26.93C60.9941 26.9299 61.3408 26.8294 61.64 26.64V27.9401C61.2198 28.0781 60.7821 28.1554 60.34 28.17C58.77 28.17 57.8 27.4201 57.8 25.7701V20.9401H56V19.7001H57.87V17.7901L59.39 17.3V19.7001H61.58L61.55 20.9401Z" fill="#4B5C66"/>
<path d="M65.5198 17.8499H63.7998V16.1399H65.5198V17.8499ZM63.8998 19.6999H65.4298V27.9999H63.8998V19.6999Z" fill="#4B5C66"/>
<path d="M72.1198 19.51C72.6873 19.4922 73.2523 19.5931 73.7786 19.8061C74.3049 20.0192 74.7809 20.3397 75.1762 20.7473C75.5715 21.1548 75.8774 21.6404 76.0744 22.173C76.2713 22.7055 76.3549 23.2733 76.3198 23.84C76.3476 24.4094 76.2594 24.9786 76.0606 25.513C75.8618 26.0473 75.5566 26.5357 75.1634 26.9486C74.7702 27.3614 74.2972 27.6901 73.7732 27.9147C73.2491 28.1393 72.6849 28.2551 72.1148 28.2551C71.5447 28.2551 70.9805 28.1393 70.4564 27.9147C69.9324 27.6901 69.4594 27.3614 69.0662 26.9486C68.673 26.5357 68.3678 26.0473 68.169 25.513C67.9702 24.9786 67.882 24.4094 67.9098 23.84C67.8731 23.272 67.9558 22.7027 68.1528 22.1688C68.3498 21.6348 68.6565 21.1481 69.0532 20.7401C69.45 20.332 69.9279 20.0117 70.4561 19.7998C70.9843 19.588 71.5511 19.4892 72.1198 19.51ZM72.1198 26.93C73.8998 26.93 74.6998 25.31 74.6998 23.84C74.6998 22.37 73.6998 20.74 72.1198 20.74C70.5398 20.74 69.5298 22.26 69.5298 23.84C69.5298 25.42 70.3198 26.93 72.1198 26.93Z" fill="#4B5C66"/>
<path d="M78.5996 19.6999H80.0796V20.9999C80.3508 20.5251 80.7466 20.1335 81.2243 19.8674C81.7019 19.6013 82.2432 19.4707 82.7896 19.4899C84.9296 19.4899 85.8896 20.8199 85.8896 23.0399V27.9999H84.3896V23.6899C84.3896 21.7599 83.9696 20.8199 82.6396 20.6899C80.9096 20.6899 80.1296 22.0899 80.1296 24.0999V27.9999H78.5996V19.6999Z" fill="#4B5C66"/>
<path d="M89.1395 20.29C89.9597 19.7823 90.9048 19.5123 91.8695 19.51C94.2295 19.51 95.1895 20.68 95.1895 22.93V26.35C95.1771 26.9007 95.1972 27.4517 95.2495 28H93.8295V26.9C93.5389 27.3047 93.1537 27.632 92.7074 27.8534C92.2612 28.0748 91.7675 28.1835 91.2695 28.17C89.4895 28.17 88.2695 27.39 88.2695 25.59C88.2695 23.51 90.5395 22.86 92.1095 22.86C92.7095 22.86 93.1095 22.86 93.7295 22.86C93.7295 21.43 93.2195 20.7 91.7295 20.7C90.858 20.7033 90.0128 20.9991 89.3295 21.54L89.1395 20.29ZM93.6595 24C93.3395 24 93.0195 24 92.6595 24C91.8395 24 89.7895 24.13 89.7895 25.59C89.8202 25.9703 89.9986 26.3234 90.2864 26.5739C90.5742 26.8243 90.9486 26.9522 91.3295 26.93C91.6283 26.9622 91.9305 26.9292 92.2153 26.8333C92.5001 26.7375 92.7608 26.5811 92.9794 26.3749C93.198 26.1686 93.3693 25.9175 93.4815 25.6387C93.5937 25.3599 93.6442 25.0602 93.6295 24.76L93.6595 24Z" fill="#4B5C66"/>
<path d="M98.2002 15.8101H99.7302V28.0001H98.2002V15.8101Z" fill="#4B5C66"/>
<path d="M107.56 16.6599H110.62C112.97 16.6599 114.62 17.4199 114.62 19.5099C114.642 20.1692 114.414 20.8125 113.982 21.3112C113.55 21.8098 112.946 22.1272 112.29 22.1999C112.646 22.2074 112.998 22.2865 113.323 22.4324C113.648 22.5783 113.94 22.7881 114.183 23.0493C114.425 23.3105 114.613 23.6177 114.734 23.9528C114.856 24.2879 114.909 24.644 114.89 24.9999C114.89 27.4299 112.89 27.9999 110.57 27.9999H107.57L107.56 16.6599ZM109.18 21.4899H110.07C111.64 21.4899 112.97 21.3399 112.97 19.6699C112.97 18.3299 111.82 17.9799 110.88 17.9799H109.18V21.4899ZM109.18 26.6399H110.4C111.85 26.6399 113.17 26.3299 113.17 24.8099C113.17 23.0599 111.63 22.8099 110.23 22.8099H109.23L109.18 26.6399Z" fill="#4B5C66"/>
<path d="M121.32 19.51C121.888 19.4922 122.452 19.5931 122.979 19.8061C123.505 20.0192 123.981 20.3397 124.376 20.7473C124.772 21.1548 125.078 21.6404 125.275 22.173C125.471 22.7055 125.555 23.2733 125.52 23.84C125.548 24.4094 125.46 24.9786 125.261 25.513C125.062 26.0473 124.757 26.5357 124.364 26.9486C123.97 27.3614 123.497 27.6901 122.973 27.9147C122.449 28.1393 121.885 28.2551 121.315 28.2551C120.745 28.2551 120.181 28.1393 119.657 27.9147C119.133 27.6901 118.66 27.3614 118.266 26.9486C117.873 26.5357 117.568 26.0473 117.369 25.513C117.17 24.9786 117.082 24.4094 117.11 23.84C117.073 23.272 117.156 22.7027 117.353 22.1688C117.55 21.6348 117.857 21.1481 118.253 20.7401C118.65 20.332 119.128 20.0117 119.656 19.7998C120.184 19.588 120.751 19.4892 121.32 19.51ZM121.32 26.93C123.1 26.93 123.9 25.31 123.9 23.84C123.9 22.37 122.9 20.74 121.32 20.74C119.74 20.74 118.73 22.26 118.73 23.84C118.73 25.42 119.52 26.93 121.32 26.93Z" fill="#4B5C66"/>
<path d="M133.66 26.8001C133.339 27.2425 132.913 27.5988 132.421 27.8378C131.929 28.0767 131.386 28.1908 130.84 28.1701C128.34 28.1701 127.28 25.9401 127.28 23.6901C127.28 21.4401 128.45 19.5101 130.85 19.5101C131.384 19.467 131.92 19.5677 132.401 19.8016C132.883 20.0354 133.294 20.394 133.59 20.8401V15.8401H135.12V28.0001H133.66V26.8001ZM131.16 26.9301C132.88 26.9301 133.59 25.2301 133.59 23.8501C133.59 22.3101 132.8 20.7401 131.15 20.7401C129.5 20.7401 128.84 22.3001 128.88 23.8001C128.84 25.1001 129.52 26.9301 131.16 26.9301Z" fill="#4B5C66"/>
<path d="M137.34 30.2099C137.569 30.2883 137.808 30.3323 138.05 30.34C139.41 30.34 139.87 28.46 139.87 28.34C139.8 28.0387 139.702 27.7441 139.58 27.4599L136.77 19.74H138.44L140.66 26.58L143 19.7H144.54L141.54 28.15C140.97 29.74 140.37 31.57 138.36 31.57C138.024 31.5671 137.689 31.5301 137.36 31.4599L137.34 30.2099Z" fill="#4B5C66"/>
<path d="M148.7 18.0799H145.18V16.6599H153.84V18.0799H150.32V27.9999H148.7V18.0799Z" fill="#4B5C66"/>
<path d="M154.75 20.29C155.567 19.7836 156.509 19.5136 157.47 19.51C159.84 19.51 160.8 20.68 160.8 22.93V26.35C160.789 26.8907 160.809 27.4316 160.86 27.97H159.43V26.9C159.138 27.3034 158.753 27.6298 158.307 27.851C157.861 28.0723 157.368 28.1818 156.87 28.17C155.09 28.17 153.87 27.39 153.87 25.59C153.87 23.51 156.14 22.86 157.71 22.86C158.31 22.86 158.71 22.86 159.33 22.86C159.33 21.43 158.81 20.7 157.33 20.7C156.458 20.7033 155.613 20.9991 154.93 21.54L154.75 20.29ZM159.27 24H158.27C157.44 24 155.4 24.13 155.4 25.59C155.414 25.7843 155.466 25.9739 155.555 26.1474C155.643 26.3209 155.766 26.4747 155.915 26.5998C156.065 26.7249 156.238 26.8186 156.424 26.8753C156.61 26.932 156.806 26.9506 157 26.93C157.299 26.9622 157.601 26.9292 157.886 26.8333C158.171 26.7375 158.431 26.5811 158.65 26.3749C158.868 26.1686 159.04 25.9175 159.152 25.6387C159.264 25.3599 159.315 25.0602 159.3 24.76L159.27 24Z" fill="#4B5C66"/>
<path d="M163.81 15.8101H165.34V28.0001H163.81V15.8101Z" fill="#4B5C66"/>
<path d="M168.37 15.8101H169.89V23.0601L173.21 19.7001H175.29L171.45 23.3701L175.78 27.9701H173.59L169.89 23.7201V28.0001H168.37V15.8101Z" fill="#4B5C66"/>
<path d="M186.1 16.6599H187.8L192.59 27.9999H190.82L189.67 25.1499H184.12L183 27.9999H181.3L186.1 16.6599ZM186.9 18.1799L184.64 23.7899H189.15L186.9 18.1799Z" fill="#4B5C66"/>
<path d="M193.7 26.35C194.275 26.6981 194.928 26.8974 195.6 26.93C196.3 26.93 197.16 26.64 197.16 25.75C197.16 24.24 193.57 24.37 193.57 22.05C193.57 20.34 194.86 19.51 196.49 19.51C197.136 19.5186 197.777 19.6266 198.39 19.83L198.26 21.16C197.757 20.9217 197.215 20.7792 196.66 20.74C195.88 20.74 195.2 21.06 195.2 21.74C195.2 23.42 198.78 22.94 198.78 25.58C198.778 25.9451 198.699 26.3057 198.549 26.6385C198.399 26.9713 198.181 27.2689 197.908 27.5121C197.636 27.7552 197.315 27.9386 196.968 28.0502C196.62 28.1618 196.253 28.1992 195.89 28.16C195.107 28.1943 194.328 28.0363 193.62 27.7L193.7 26.35Z" fill="#4B5C66"/>
<path d="M200.25 26.35C200.825 26.6981 201.478 26.8974 202.15 26.93C202.85 26.93 203.71 26.64 203.71 25.75C203.71 24.24 200.12 24.37 200.12 22.05C200.12 20.34 201.41 19.51 203.04 19.51C203.686 19.5186 204.327 19.6266 204.94 19.83L204.81 21.16C204.307 20.9217 203.765 20.7792 203.21 20.74C202.43 20.74 201.75 21.06 201.75 21.74C201.75 23.42 205.33 22.94 205.33 25.58C205.328 25.9451 205.249 26.3057 205.099 26.6385C204.949 26.9713 204.731 27.2689 204.458 27.5121C204.186 27.7552 203.865 27.9386 203.518 28.0502C203.17 28.1618 202.803 28.1992 202.44 28.16C201.657 28.1943 200.878 28.0363 200.17 27.7L200.25 26.35Z" fill="#4B5C66"/>
<path d="M211.08 19.51C211.648 19.4906 212.214 19.5904 212.741 19.803C213.268 20.0155 213.744 20.336 214.14 20.7439C214.536 21.1518 214.841 21.638 215.038 22.1712C215.234 22.7045 215.317 23.2729 215.28 23.84C215.308 24.4094 215.22 24.9786 215.021 25.513C214.822 26.0473 214.517 26.5357 214.124 26.9486C213.73 27.3614 213.257 27.6901 212.733 27.9147C212.209 28.1393 211.645 28.2551 211.075 28.2551C210.505 28.2551 209.941 28.1393 209.417 27.9147C208.893 27.6901 208.42 27.3614 208.026 26.9486C207.633 26.5357 207.328 26.0473 207.129 25.513C206.93 24.9786 206.842 24.4094 206.87 23.84C206.833 23.272 206.916 22.7027 207.113 22.1688C207.31 21.6348 207.617 21.1481 208.013 20.7401C208.41 20.332 208.888 20.0117 209.416 19.7998C209.944 19.588 210.511 19.4892 211.08 19.51ZM211.08 26.93C212.87 26.93 213.66 25.31 213.66 23.84C213.66 22.37 212.66 20.74 211.08 20.74C209.5 20.74 208.49 22.26 208.49 23.84C208.49 25.42 209.28 26.93 211.08 26.93Z" fill="#4B5C66"/>
<path d="M222.82 21.1C222.299 20.8718 221.738 20.7495 221.17 20.74C220.789 20.7611 220.416 20.859 220.074 21.0279C219.732 21.1968 219.427 21.4332 219.179 21.7228C218.93 22.0123 218.743 22.3492 218.628 22.713C218.513 23.0769 218.473 23.4602 218.51 23.84C218.51 25.31 219.3 26.93 221.26 26.93C221.839 26.9261 222.407 26.7636 222.9 26.46L223.02 27.83C222.411 28.0754 221.757 28.1912 221.1 28.17C220.536 28.1744 219.976 28.0645 219.456 27.8469C218.935 27.6293 218.464 27.3086 218.07 26.904C217.677 26.4994 217.37 26.0193 217.167 25.4927C216.964 24.9661 216.87 24.4039 216.89 23.84C216.853 23.272 216.936 22.7027 217.133 22.1688C217.33 21.6348 217.637 21.1481 218.033 20.7401C218.43 20.332 218.908 20.0117 219.436 19.7998C219.964 19.588 220.531 19.4892 221.1 19.51C221.73 19.5131 222.355 19.6212 222.95 19.83L222.82 21.1Z" fill="#4B5C66"/>
<path d="M226.82 17.8499H225.11V16.1399H226.82V17.8499ZM225.2 19.6999H226.73V27.9999H225.2V19.6999Z" fill="#4B5C66"/>
<path d="M230.15 20.29C230.967 19.7836 231.909 19.5136 232.87 19.51C235.24 19.51 236.19 20.68 236.19 22.93V26.35C236.18 26.8909 236.203 27.432 236.26 27.97H234.83V26.9C234.537 27.3022 234.151 27.6276 233.706 27.8487C233.26 28.0698 232.767 28.1801 232.27 28.17C230.49 28.17 229.27 27.39 229.27 25.59C229.27 23.51 231.54 22.86 233.11 22.86C233.71 22.86 234.11 22.86 234.73 22.86C234.73 21.43 234.21 20.7 232.73 20.7C231.858 20.7009 231.012 20.997 230.33 21.54L230.15 20.29ZM234.67 24H233.67C232.84 24 230.8 24.13 230.8 25.59C230.828 25.9713 231.006 26.326 231.294 26.5769C231.583 26.8279 231.958 26.9548 232.34 26.93C232.639 26.9622 232.941 26.9292 233.226 26.8333C233.511 26.7375 233.771 26.5811 233.99 26.3749C234.208 26.1686 234.38 25.9175 234.492 25.6387C234.604 25.3599 234.655 25.0602 234.64 24.76L234.67 24Z" fill="#4B5C66"/>
<path d="M243.41 20.9401H241.22V25.46C241.196 25.6427 241.211 25.8285 241.264 26.005C241.317 26.1815 241.407 26.3447 241.528 26.4837C241.649 26.6227 241.799 26.7344 241.966 26.8114C242.134 26.8883 242.316 26.9287 242.5 26.93C242.854 26.9299 243.201 26.8294 243.5 26.64V27.9401C243.08 28.0781 242.642 28.1554 242.2 28.17C240.63 28.17 239.66 27.4201 239.66 25.7701V20.9401H237.79V19.7001H239.66V17.7901L241.18 17.3V19.7001H243.37L243.41 20.9401Z" fill="#4B5C66"/>
<path d="M247.38 17.8499H245.66V16.1399H247.38V17.8499ZM245.76 19.6999H247.28V27.9999H245.76V19.6999Z" fill="#4B5C66"/>
<path d="M254 19.51C254.568 19.4922 255.132 19.5931 255.659 19.8061C256.185 20.0192 256.661 20.3397 257.056 20.7473C257.452 21.1549 257.758 21.6404 257.955 22.173C258.151 22.7055 258.235 23.2733 258.2 23.84C258.2 24.9566 257.756 26.0274 256.967 26.8169C256.177 27.6065 255.107 28.05 253.99 28.05C252.873 28.05 251.803 27.6065 251.013 26.8169C250.224 26.0274 249.78 24.9566 249.78 23.84C249.745 23.2716 249.829 22.702 250.027 22.1681C250.225 21.6341 250.533 21.1475 250.93 20.7397C251.328 20.3318 251.806 20.0117 252.335 19.7999C252.864 19.5881 253.431 19.4894 254 19.51ZM254 26.93C255.78 26.93 256.58 25.31 256.58 23.84C256.58 22.37 255.58 20.74 254 20.74C252.42 20.74 251.4 22.26 251.4 23.84C251.4 25.42 252.18 26.93 254 26.93Z" fill="#4B5C66"/>
<path d="M260.46 19.6999H261.94V20.9999C262.211 20.5251 262.607 20.1335 263.085 19.8674C263.562 19.6013 264.104 19.4707 264.65 19.4899C266.79 19.4899 267.74 20.8199 267.74 23.0399V27.9999H266.22V23.6899C266.22 21.7599 265.8 20.8199 264.47 20.6899C262.73 20.6899 261.96 22.0899 261.96 24.0999V27.9999H260.43L260.46 19.6999Z" fill="#4B5C66"/>
<rect x="-1" width="389" height="245" fill="#C4C4C4"/>
<path d="M111.833 131.47H122.951V134H108.723V110.539H111.833V131.47ZM143.463 123.027C143.463 125.326 143.077 127.334 142.303 129.053C141.53 130.761 140.434 132.066 139.016 132.969C137.598 133.871 135.944 134.322 134.053 134.322C132.206 134.322 130.567 133.871 129.139 132.969C127.71 132.056 126.598 130.761 125.803 129.085C125.019 127.399 124.616 125.449 124.595 123.236V121.544C124.595 119.289 124.987 117.296 125.771 115.566C126.555 113.837 127.662 112.516 129.09 111.603C130.53 110.679 132.173 110.217 134.021 110.217C135.901 110.217 137.555 110.673 138.984 111.586C140.423 112.489 141.53 113.805 142.303 115.534C143.077 117.253 143.463 119.256 143.463 121.544V123.027ZM140.386 121.512C140.386 118.73 139.827 116.598 138.71 115.115C137.593 113.622 136.03 112.875 134.021 112.875C132.066 112.875 130.524 113.622 129.396 115.115C128.279 116.598 127.705 118.66 127.672 121.303V123.027C127.672 125.723 128.236 127.845 129.364 129.392C130.503 130.928 132.066 131.696 134.053 131.696C136.051 131.696 137.598 130.971 138.694 129.521C139.79 128.06 140.354 125.97 140.386 123.252V121.512ZM165.426 130.922C164.631 132.061 163.519 132.915 162.09 133.484C160.672 134.043 159.018 134.322 157.127 134.322C155.215 134.322 153.518 133.876 152.036 132.985C150.553 132.083 149.404 130.804 148.587 129.15C147.782 127.496 147.368 125.578 147.347 123.397V121.351C147.347 117.817 148.168 115.078 149.812 113.133C151.466 111.189 153.787 110.217 156.773 110.217C159.222 110.217 161.193 110.845 162.687 112.102C164.18 113.348 165.093 115.121 165.426 117.419H162.332C161.752 114.315 159.904 112.763 156.789 112.763C154.716 112.763 153.142 113.493 152.068 114.954C151.004 116.404 150.467 118.51 150.457 121.271V123.188C150.457 125.82 151.058 127.915 152.261 129.472C153.464 131.019 155.092 131.792 157.144 131.792C158.304 131.792 159.319 131.664 160.189 131.406C161.059 131.148 161.779 130.713 162.348 130.101V124.832H156.918V122.318H165.426V130.922ZM188.645 123.027C188.645 125.326 188.258 127.334 187.485 129.053C186.711 130.761 185.616 132.066 184.198 132.969C182.78 133.871 181.125 134.322 179.235 134.322C177.387 134.322 175.749 133.871 174.32 132.969C172.892 132.056 171.78 130.761 170.985 129.085C170.201 127.399 169.798 125.449 169.776 123.236V121.544C169.776 119.289 170.168 117.296 170.953 115.566C171.737 113.837 172.843 112.516 174.272 111.603C175.711 110.679 177.355 110.217 179.203 110.217C181.083 110.217 182.737 110.673 184.166 111.586C185.605 112.489 186.711 113.805 187.485 115.534C188.258 117.253 188.645 119.256 188.645 121.544V123.027ZM185.567 121.512C185.567 118.73 185.009 116.598 183.892 115.115C182.774 113.622 181.211 112.875 179.203 112.875C177.248 112.875 175.706 113.622 174.578 115.115C173.461 116.598 172.886 118.66 172.854 121.303V123.027C172.854 125.723 173.418 127.845 174.546 129.392C175.685 130.928 177.248 131.696 179.235 131.696C181.233 131.696 182.78 130.971 183.875 129.521C184.971 128.06 185.535 125.97 185.567 123.252V121.512ZM219.502 134H216.392V123.156H204.565V134H201.471V110.539H204.565V120.626H216.392V110.539H219.502V134ZM238.258 123.156H228.09V131.47H239.901V134H224.997V110.539H239.74V113.085H228.09V120.626H238.258V123.156ZM252.357 124.509H246.846V134H243.736V110.539H251.503C254.146 110.539 256.176 111.141 257.594 112.344C259.022 113.547 259.737 115.298 259.737 117.597C259.737 119.058 259.339 120.331 258.544 121.416C257.76 122.5 256.665 123.312 255.257 123.849L260.768 133.807V134H257.449L252.357 124.509ZM246.846 121.979H251.6C253.136 121.979 254.355 121.582 255.257 120.787C256.17 119.992 256.627 118.929 256.627 117.597C256.627 116.146 256.192 115.035 255.322 114.261C254.462 113.488 253.216 113.096 251.583 113.085H246.846V121.979ZM277.349 123.156H267.181V131.47H278.992V134H264.087V110.539H278.831V113.085H267.181V120.626H277.349V123.156Z" fill="black"/>
</g>
<defs>
<clipPath id="clip0_1791_49242">
<rect width="388" height="245" fill="white"/>
</clipPath>
</defs>
</svg>
