<svg width="121" height="117" viewBox="0 0 121 117" fill="none" xmlns="http://www.w3.org/2000/svg">
<g clip-path="url(#clip0_1791_49294)">
<path d="M106.919 42.7576C107.25 43.5307 107.56 44.3038 107.869 45.0769C111.427 40.0088 113.271 35.0553 112.954 30.7173C106.637 19.4336 96.808 10.4895 84.9435 5.22651C84.6011 7.34764 83.853 9.38392 82.7395 11.2252C92.7149 18.7701 101.286 29.6722 106.919 42.7576ZM65.6625 27.3243C61.1771 30.1438 56.4679 32.5953 51.5817 34.6544C45.1017 37.4435 38.3205 39.4827 31.3716 40.7318C33.478 49.7815 36.3401 58.6408 39.9281 67.2177C42.9642 66.9322 46.0249 67.0429 49.032 67.5469C49.6995 67.7073 50.3957 67.7073 51.0631 67.5469C51.0631 67.5469 53.8865 66.4947 54.9092 66.0222C55.1182 65.9393 55.3058 65.8107 55.4579 65.6459C55.61 65.481 55.7228 65.2843 55.7879 65.0702C56.0711 63.6785 56.0955 62.2471 55.86 60.8468C55.86 60.8468 54.8372 57.2676 54.1818 55.3563C53.5831 54.9759 53.1589 54.3769 53.0006 53.6884C53.0006 53.6884 52.1363 51.1114 51.9778 50.7106C51.9778 50.7106 51.8338 49.5151 52.4964 49.601C52.4964 49.601 51.6105 46.9739 52.2011 44.9839C52.2011 44.9839 53.5912 39.2572 56.3785 37.2672C56.3785 37.2672 58.9714 35.7425 61.4203 35.9501C62.9652 36.0703 64.4661 36.5196 65.821 37.2672C68.6011 39.2572 69.9912 44.9839 69.9912 44.9839C70.5818 46.9739 69.6959 49.601 69.6959 49.601C70.3585 49.5151 70.2144 50.7106 70.2144 50.7106C70.0632 51.1114 69.1917 53.6526 69.1917 53.6526C69.0264 54.3458 68.5912 54.9456 67.9817 55.3205C67.3407 57.2676 66.3179 60.8468 66.3179 60.8468C66.0824 62.2471 66.1068 63.6785 66.3899 65.0702C66.4589 65.277 66.5727 65.4662 66.7233 65.6245C66.8739 65.7828 67.0576 65.9064 67.2614 65.9864C68.2842 66.4589 71.1075 67.5112 71.1075 67.5112C71.775 67.6715 72.4712 67.6715 73.1386 67.5112C76.0169 67.0283 78.9447 66.9056 81.8536 67.1461C82.6603 66.6736 83.4597 66.2083 84.2376 65.7144C82.7971 61.5483 81.1694 57.3105 79.3327 53.0442C75.5221 44.0992 70.9487 35.4946 65.6625 27.3243ZM47.3107 6.65818C44.9787 8.23334 42.4934 9.57152 39.8921 10.6525C36.5485 12.1553 32.9963 13.1495 29.355 13.6018C28.217 20.1731 28.8724 29.1926 31.0619 39.3718C37.9245 38.1345 44.6212 36.1169 51.0199 33.3588C55.8249 31.3244 60.4526 28.899 64.8558 26.1074C59.0362 17.4315 52.9646 10.6311 47.3107 6.65818ZM106.875 46.4585C106.472 45.4134 106.047 44.3611 105.6 43.3232C100.091 30.5169 91.7282 19.8438 82.0049 12.4493C78.9438 17.1523 73.7148 22.0629 66.8797 26.5512C72.2154 34.8041 76.8321 43.4949 80.6796 52.5288C82.4802 56.7164 84.0864 60.8825 85.5052 64.9843C94.71 59.1932 102.078 52.7507 106.875 46.4585ZM11.9826 40.5171C10.4385 50.3149 11.3186 60.3391 14.5467 69.7231L15.9872 69.5584C18.0687 69.3508 21.2378 69.2578 21.2378 69.2578C23.7154 69.2578 28.1449 69.401 28.1449 69.401C30.2456 69.3573 32.332 69.047 34.3535 68.4775C35.6768 67.9745 37.0508 67.6146 38.4516 67.4038C34.874 58.8428 32.0122 50.0033 29.8951 40.9752C22.9376 42.0275 16.7002 41.9058 11.9826 40.5171ZM115.763 36.401C115.309 35.3345 114.82 34.2965 114.323 33.2729C113.869 37.439 111.823 41.9702 108.46 46.573C111.343 54.1974 113.043 62.2134 113.502 70.3459C115.51 70.7319 117.544 70.9712 119.588 71.0617C121.81 59.3872 120.478 47.3194 115.763 36.401ZM85.9878 66.3587L86.7081 68.0767C87.097 68.1984 87.4859 68.3272 87.8676 68.4775C89.8712 69.0549 91.9405 69.3772 94.0257 69.4367C94.0257 69.4367 98.4553 69.3222 100.926 69.2936C100.926 69.2936 104.102 69.3866 106.177 69.5942C106.177 69.5942 109.259 69.9521 112.061 70.2242C112.364 65.5856 111.154 58.3127 107.408 47.9832C102.46 54.2468 95.0773 60.632 85.9878 66.3587ZM10.7654 38.5843H10.8303C12.35 29.4861 15.7999 21.2469 21.1009 14.6397C14.6188 20.2699 9.43515 27.2238 5.90375 35.0266C7.14106 36.6578 8.83079 37.8944 10.7654 38.5843ZM83.5534 4.63237C74.9669 1.05641 65.6603 -0.482731 56.3713 0.136941C65.1007 1.11047 73.7436 4.70396 81.5871 10.359C82.6392 8.60824 83.3091 6.65714 83.5534 4.63237ZM10.5926 40.0876L10.2252 39.9516C8.30902 39.2274 6.60207 38.0448 5.25553 36.5084C1.27978 45.9646 -0.0526738 59.9734 1.85597 71.0832C4.2612 71.0273 6.65683 70.7614 9.01521 70.2886C10.3405 70.1669 11.8386 70.0166 13.1062 69.8806C9.72825 59.1932 9.31771 51.0398 10.5926 40.0876ZM29.5926 39.6151C27.4319 29.4575 26.7621 20.4451 27.8784 13.6662C27.1156 13.6741 26.3573 13.5481 25.6385 13.294C25.3115 13.1549 25.0153 12.953 24.767 12.6998C18.1335 19.5718 13.9129 28.7631 12.2275 39.0783C16.7291 40.4741 22.7863 40.6101 29.5926 39.5793V39.6151ZM48.5351 5.76339C54.2034 9.86511 60.2607 16.6942 66.0586 25.3343C72.7425 20.9247 77.8923 16.1143 80.8381 11.5831C71.9214 5.11914 61.9316 1.4326 51.9778 1.30375C51.9154 1.61167 51.8187 1.91177 51.6897 2.19854C50.9423 3.62191 49.8601 4.84485 48.5351 5.76339ZM26.2075 11.9267C28.0153 12.6425 33.1218 11.9911 39.3808 9.32824C42.1879 8.17502 44.8473 6.69483 47.3035 4.91871C48.9672 3.666 50.026 2.52782 50.3645 1.6903C50.4742 1.46803 50.4998 1.21393 50.4365 0.974466C50.4171 0.946506 50.3954 0.92017 50.3717 0.895724C45.7543 1.66103 41.2434 2.96324 36.9319 4.77554C32.9202 6.48664 29.107 8.62517 25.5593 11.1536C25.5324 11.2569 25.5324 11.3653 25.5593 11.4686C25.6297 11.5852 25.7237 11.6861 25.8353 11.7649C25.9468 11.8437 26.0735 11.8988 26.2075 11.9267Z" fill="#006397"/>
<path d="M45.7636 94.9053C45.2451 90.3454 44.5104 83.588 44.5104 83.588C44.0558 81.5752 42.8548 79.8065 41.1469 78.6344C39.8648 77.7324 36.0187 78.0116 36.0187 78.0116C31.7333 78.7275 26.5691 77.5392 26.5691 77.5392C25.9137 77.3029 23.0543 76.8232 23.0543 76.8232C20.9585 76.6688 18.8807 76.3287 16.8458 75.8069C15.8525 75.6499 14.8482 75.5709 13.8424 75.5706C12.6823 75.7479 11.5141 75.8674 10.342 75.9285C7.96218 76.3189 5.55104 76.4891 3.13957 76.4368C5.24269 82.1635 12.5027 99.0142 27.1237 106.774L28.0672 104.454L33.1738 110.296L25.4383 110.883L26.5187 108.091C11.7249 100.324 4.26315 83.6452 1.89355 77.3459V116.216H45.4899C46.1238 114.154 47.0097 111.691 47.0097 111.691C47.7299 109.544 47.2978 106.43 47.2978 106.43C46.6423 104.512 45.7636 94.9053 45.7636 94.9053ZM110.585 75.9285C109.411 75.8675 108.24 75.748 107.078 75.5706C106.072 75.5709 105.068 75.6499 104.074 75.8069C102.033 76.3348 99.9481 76.6798 97.8446 76.8376C97.8446 76.8376 94.9636 77.3029 94.337 77.5535C94.337 77.5535 89.1728 78.7346 84.8873 78.0259C84.8873 78.0259 81.0412 77.7468 79.752 78.6487C78.0466 79.8234 76.8464 81.5909 76.3885 83.6023C76.3885 83.6023 75.6682 90.3597 75.1352 94.9196C75.1352 94.9196 74.2637 104.497 73.6083 106.466C73.6083 106.466 73.1618 109.608 73.8964 111.727C73.8964 111.727 74.7751 114.19 75.4161 116.251H81.7183C82.9355 115.822 84.1383 115.364 85.3195 114.855C95.3469 110.618 104.001 103.709 110.326 94.891L107.445 93.3448L114.936 88.1693L114.647 97.1959L111.622 95.5782C105.133 104.679 96.2295 111.811 85.9029 116.18L85.73 116.251H119.624V76.4153C116.603 76.5515 113.575 76.3884 110.585 75.9285Z" fill="#B67A00"/>
<rect x="-1" width="122" height="118" fill="#C4C4C4"/>
<path d="M28.126 49.7769H37.8965V52H25.3931V31.3828H28.126V49.7769ZM55.9224 42.3569C55.9224 44.3771 55.5825 46.1424 54.9028 47.6528C54.2231 49.1538 53.2603 50.3008 52.0142 51.0938C50.7681 51.8867 49.3143 52.2832 47.6528 52.2832C46.0291 52.2832 44.5895 51.8867 43.334 51.0938C42.0785 50.2913 41.1014 49.1538 40.4028 47.6812C39.7137 46.1991 39.3597 44.4857 39.3408 42.541V41.0542C39.3408 39.0718 39.6854 37.3206 40.3745 35.8008C41.0636 34.2809 42.036 33.1198 43.2915 32.3174C44.5565 31.5055 46.0008 31.0996 47.6245 31.0996C49.2765 31.0996 50.7303 31.5008 51.9858 32.3032C53.2508 33.0962 54.2231 34.2526 54.9028 35.7725C55.5825 37.2829 55.9224 39.0435 55.9224 41.0542V42.3569ZM53.2178 41.0259C53.2178 38.5809 52.7269 36.707 51.7451 35.4043C50.7633 34.0921 49.3898 33.436 47.6245 33.436C45.9064 33.436 44.5518 34.0921 43.5605 35.4043C42.5788 36.707 42.0737 38.5195 42.0454 40.8418V42.3569C42.0454 44.7264 42.541 46.5908 43.5322 47.9502C44.5329 49.3001 45.9064 49.9751 47.6528 49.9751C49.4087 49.9751 50.7681 49.3379 51.731 48.0635C52.6938 46.7796 53.1895 44.9435 53.2178 42.5552V41.0259ZM75.2227 49.2954C74.5241 50.2961 73.547 51.0465 72.2915 51.5469C71.0454 52.0378 69.5916 52.2832 67.9302 52.2832C66.2498 52.2832 64.7583 51.8914 63.4556 51.1079C62.1528 50.3149 61.1427 49.1916 60.4253 47.7378C59.7173 46.284 59.3538 44.599 59.335 42.6826V40.8843C59.335 37.7785 60.0571 35.3713 61.5015 33.6626C62.9552 31.9539 64.9943 31.0996 67.6187 31.0996C69.771 31.0996 71.5033 31.6519 72.8154 32.7563C74.1276 33.8514 74.93 35.409 75.2227 37.4292H72.5039C71.9941 34.701 70.3704 33.3369 67.6328 33.3369C65.8109 33.3369 64.4279 33.9788 63.4839 35.2627C62.5493 36.5371 62.0773 38.3874 62.0679 40.8135V42.4985C62.0679 44.8114 62.5965 46.6522 63.6538 48.021C64.7111 49.3804 66.1413 50.0601 67.9443 50.0601C68.9639 50.0601 69.856 49.9468 70.6206 49.7202C71.3853 49.4937 72.0177 49.1113 72.5181 48.5732V43.9429H67.7461V41.7339H75.2227V49.2954ZM95.6274 42.3569C95.6274 44.3771 95.2876 46.1424 94.6079 47.6528C93.9282 49.1538 92.9653 50.3008 91.7192 51.0938C90.4731 51.8867 89.0194 52.2832 87.3579 52.2832C85.7342 52.2832 84.2946 51.8867 83.0391 51.0938C81.7835 50.2913 80.8065 49.1538 80.1079 47.6812C79.4188 46.1991 79.0648 44.4857 79.0459 42.541V41.0542C79.0459 39.0718 79.3905 37.3206 80.0796 35.8008C80.7687 34.2809 81.741 33.1198 82.9966 32.3174C84.2616 31.5055 85.7059 31.0996 87.3296 31.0996C88.9816 31.0996 90.4354 31.5008 91.6909 32.3032C92.9559 33.0962 93.9282 34.2526 94.6079 35.7725C95.2876 37.2829 95.6274 39.0435 95.6274 41.0542V42.3569ZM92.9229 41.0259C92.9229 38.5809 92.432 36.707 91.4502 35.4043C90.4684 34.0921 89.0949 33.436 87.3296 33.436C85.6115 33.436 84.2568 34.0921 83.2656 35.4043C82.2839 36.707 81.7788 38.5195 81.7505 40.8418V42.3569C81.7505 44.7264 82.2461 46.5908 83.2373 47.9502C84.238 49.3001 85.6115 49.9751 87.3579 49.9751C89.1138 49.9751 90.4731 49.3379 91.436 48.0635C92.3989 46.7796 92.8945 44.9435 92.9229 42.5552V41.0259ZM41.2383 86H38.5054V76.4702H28.1118V86H25.3931V65.3828H28.1118V74.2471H38.5054V65.3828H41.2383V86ZM57.7207 76.4702H48.7856V83.7769H59.165V86H46.0669V65.3828H59.0234V67.6201H48.7856V74.2471H57.7207V76.4702ZM70.1108 77.6597H65.2681V86H62.5352V65.3828H69.3604C71.6826 65.3828 73.4668 65.9115 74.7129 66.9688C75.9684 68.026 76.5962 69.5648 76.5962 71.585C76.5962 72.8688 76.2469 73.9875 75.5483 74.9409C74.8592 75.8944 73.8963 76.6071 72.6597 77.0791L77.5024 85.8301V86H74.5854L70.1108 77.6597ZM65.2681 75.4365H69.4453C70.7952 75.4365 71.8667 75.0872 72.6597 74.3887C73.4621 73.6901 73.8633 72.7555 73.8633 71.585C73.8633 70.3105 73.481 69.3335 72.7163 68.6538C71.9611 67.9741 70.866 67.6296 69.4312 67.6201H65.2681V75.4365ZM92.0732 76.4702H83.1382V83.7769H93.5176V86H80.4194V65.3828H93.376V67.6201H83.1382V74.2471H92.0732V76.4702Z" fill="black"/>
</g>
<defs>
<clipPath id="clip0_1791_49294">
<rect width="121" height="117" fill="white"/>
</clipPath>
</defs>
</svg>
