<svg width="266" height="208" viewBox="0 0 266 208" fill="none" xmlns="http://www.w3.org/2000/svg">
<g clip-path="url(#clip0)">
<path opacity="0.1" d="M93.3081 203.971C118.934 203.971 139.708 200.039 139.708 195.187C139.708 190.336 118.934 186.403 93.3081 186.403C67.6822 186.403 46.9082 190.336 46.9082 195.187C46.9082 200.039 67.6822 203.971 93.3081 203.971Z" fill="#6B7A8F"/>
<path opacity="0.1" d="M154.547 29.3337C137.494 28.7439 121.253 23.2406 105.744 17.2212C90.2355 11.2019 74.8743 4.53473 58.2299 1.34599C47.5244 -0.705227 35.2802 -0.997506 26.6563 4.73222C18.3538 10.2618 15.6715 19.7806 14.2303 28.6201C13.1447 35.2714 12.5071 42.273 15.4792 48.5003C17.5449 52.824 21.2074 56.4577 23.7421 60.5996C32.561 75.0082 26.3269 92.7767 16.7729 106.846C12.2936 113.444 7.08979 119.748 3.63022 126.765C0.17064 133.783 -1.42872 141.851 1.59874 149.029C4.59721 156.138 11.7456 161.467 19.4895 165.22C35.217 172.843 53.7427 175.023 71.8205 176.261C111.826 178.994 152.042 177.811 192.152 176.624C206.997 176.187 221.905 175.742 236.507 173.448C244.617 172.174 252.988 170.152 258.877 165.27C266.35 159.074 268.202 148.584 263.193 140.816C254.793 127.782 231.575 124.546 225.696 110.561C222.466 102.862 225.783 94.2881 230.481 87.1496C240.557 71.8326 257.444 58.3957 258.332 40.8906C258.943 28.8676 250.825 16.8263 238.273 11.136C225.117 5.17195 206.87 5.9224 197.169 15.7941C187.17 25.9475 169.606 29.8577 154.547 29.3337Z" fill="#6B7A8F"/>
<path d="M140.997 95.2512L132.926 89.8138L136.997 83.7575L115.681 82.0592L108.021 87.9785L98.433 82.6068L90.4362 83.5679L90.3414 81.4614C90.2424 79.2654 90.0216 77.0765 89.68 74.9049C89.7143 74.2466 89.738 73.4909 89.7353 72.6694C89.7353 69.2068 89.2663 64.6172 87.2059 61.5575L87.6802 57.2971L83.8333 52.7549C84.451 51.5251 85.1554 50.3407 85.9411 49.2107C86.0729 49.0211 86.2046 48.8368 86.3469 48.6577C91.34 48.297 95.2791 44.1945 95.2791 39.1784C95.2791 38.9467 95.2791 38.715 95.2528 38.4859C95.2528 38.3937 95.2343 38.2989 95.2238 38.2068C95.7112 38.4701 96.2039 38.7334 96.6967 38.9967C96.7889 39.1284 96.8943 39.26 97.0102 39.4154L97.0339 39.4443L97.1815 39.626L97.2289 39.6813C97.2816 39.7445 97.3369 39.8051 97.3923 39.8683L97.4292 39.9104C97.5688 40.0658 97.7164 40.2238 97.8744 40.3791C97.8933 40.3944 97.9109 40.4111 97.9271 40.4291L98.1248 40.6135L98.1801 40.6635C98.3487 40.8136 98.5279 40.9584 98.7071 41.0953L98.765 41.1375L98.9916 41.2928L99.0654 41.3402C99.1524 41.3929 99.2419 41.4482 99.3289 41.4982L99.3605 41.5166C99.4633 41.5719 99.5687 41.6246 99.6741 41.6746L99.7268 41.6957C99.8163 41.7343 99.9042 41.7712 99.9902 41.8063L100.072 41.8352C100.164 41.8668 100.254 41.8958 100.349 41.9221L100.407 41.9379C100.522 41.9669 100.638 41.9906 100.757 42.009H100.77C100.882 42.0271 100.994 42.0385 101.107 42.0433H101.184C101.285 42.0485 101.386 42.0485 101.487 42.0433H101.553C101.679 42.036 101.805 42.021 101.929 41.9985C102.519 41.921 103.085 41.7181 103.589 41.4034C103.718 41.3176 103.832 41.2118 103.927 41.0901C104.454 40.4002 103.874 39.6445 103.874 39.6445C103.669 39.1547 102.335 38.8098 102.335 38.8098C102.335 38.8098 98.1195 37.0508 98.1195 35.65C98.1195 34.2491 97.0655 26.9817 86.1862 25.3202C86.1862 25.3202 79.1089 24.9225 77.1196 28.709L77.0775 29.1514C76.4925 29.5174 76.0077 30.252 75.4307 30.468C75.1814 30.5215 74.941 30.6101 74.7166 30.7313V30.6812C74.65 30.7395 74.5954 30.8101 74.5559 30.8893C74.432 31.1357 74.3576 31.4041 74.3372 31.6792C74.2778 32.0152 74.1611 32.3386 73.992 32.635C73.9449 32.7193 73.8921 32.8002 73.834 32.8773L73.7892 32.9484C74.0951 32.9722 74.4022 32.9225 74.685 32.8035C74.6404 33.1641 74.552 33.5178 74.4215 33.8568C74.589 33.8622 74.7546 33.8194 74.8984 33.7335C75.0423 33.6477 75.1584 33.5223 75.2331 33.3723V33.3512L75.2673 33.3038C75.3336 33.182 75.3883 33.0541 75.4307 32.922L75.4017 32.9536C75.4544 32.7825 75.5018 32.6087 75.5598 32.4402C75.5863 32.3452 75.6301 32.256 75.6889 32.1769C75.7592 32.106 75.8452 32.0527 75.9399 32.0211C76.0347 31.9895 76.1355 31.9807 76.2343 31.9952L76.1263 34.2781H76.1737C76.1102 34.4442 76.0327 34.6045 75.9418 34.7573C75.5677 35.363 74.8879 35.7764 74.6376 36.4399C74.5297 36.76 74.4884 37.0987 74.5164 37.4352C74.5164 37.6327 74.5401 37.8329 74.5559 38.0303V38.0145C74.5928 38.5412 74.6033 39.0415 74.3188 39.4654C74.1238 39.7551 73.8102 39.9736 73.7022 40.3027C73.6723 40.3945 73.6589 40.4907 73.6627 40.5871C73.6838 40.8757 73.7441 41.16 73.8419 41.4324C73.843 41.4272 73.843 41.4218 73.8419 41.4166C73.9076 41.6169 73.923 41.8303 73.8866 42.038C73.7681 42.5646 73.1278 43.0044 73.1594 43.5073C73.1576 43.5734 73.1674 43.6394 73.1884 43.7021C73.3116 43.9478 73.5249 44.1364 73.7839 44.2288C74.1901 44.4596 74.6567 44.5624 75.1224 44.5237C75.2969 44.4922 75.4657 44.4345 75.623 44.3525C75.4386 44.7765 75.2489 45.1951 75.0565 45.5927C75.0275 45.6559 74.9959 45.7191 74.9643 45.7823C74.9643 45.7823 73.336 44.6948 72.4111 46.9119C72.1411 47.3727 71.948 47.8743 71.8394 48.397C71.793 48.6061 71.7278 48.8106 71.6444 49.0079C71.2338 49.7026 70.6193 50.2541 69.8843 50.5878C67.9977 51.4515 60.3777 60.9492 60.2433 63.4086C60.1774 64.3686 60.015 65.3196 59.7585 66.2471C59.1587 68.4314 59.0045 70.714 59.3053 72.959C59.3995 73.6846 59.5555 74.4007 59.7717 75.0998C60.5806 77.5565 61.1207 82.1408 61.1207 82.1408L61.9955 90.0982C61.963 91.1964 62.0106 92.2956 62.1378 93.3869C61.2446 94.406 57.6585 98.6532 59.0287 99.8092C60.0826 100.72 61.927 100.57 62.9625 100.383C62.0904 102.54 60.7176 106.289 60.5358 108.865C60.2723 112.675 60.9864 117.722 62.1167 119.66C63.2471 121.598 67.0149 126.57 67.0149 126.57C67.0149 126.57 66.8384 133.39 68.1848 135.867C69.5312 138.345 70.074 143.485 70.074 143.485C70.074 143.485 71.3308 147.825 70.7011 149.42C70.0714 151.016 71.8683 152.343 69.9818 153.404C68.0952 154.465 65.6817 178.382 65.6817 178.382C65.6817 178.382 64.7094 194.057 65.6817 194.855C65.7337 194.893 65.7893 194.926 65.8477 194.953V200.219C65.8477 200.219 65.1732 201.325 67.916 201.549C69.7947 201.699 75.1198 202.038 78.279 202.236L80.7267 202.389C80.7267 202.389 86.5234 203.542 89.0845 202.389C91.6456 201.235 96.1855 201.262 95.511 198.215C95.4215 197.8 95.3018 197.393 95.1526 196.996C94.4122 195.105 93.1554 194.889 90.8394 194.363C90.705 194.334 90.5759 194.307 90.4573 194.286C88.0174 193.862 87.2164 194.997 85.8489 193.52C84.6606 192.243 80.8769 190.813 79.5885 190.36C79.6201 190.266 79.6596 190.173 79.6912 190.076C79.3264 190.014 78.9871 189.849 78.7137 189.599L82.2049 189.821L84.2838 189.95C84.2838 189.95 89.211 190.932 91.3979 189.95C93.5849 188.967 97.4318 188.994 96.8574 186.405C96.7817 186.053 96.6805 185.706 96.5544 185.368C95.9246 183.762 94.8549 183.585 92.8867 183.14C92.7734 183.117 92.668 183.093 92.5626 183.074C90.4889 182.714 89.8091 183.677 88.6472 182.424C87.6512 181.355 84.5078 180.157 83.3774 179.749C83.3774 179.164 82.587 178.332 82.089 177.497C81.504 176.523 82.5843 173.113 82.5843 173.113L83.2009 158.965C83.4357 158.861 83.684 158.79 83.9386 158.755C83.9386 158.755 86.7263 156.095 86.0966 153.262C85.9683 152.405 85.9014 151.54 85.8964 150.674C86.8133 149.823 88.0754 148.567 88.4337 147.793C89.0187 146.532 88.4337 140.42 88.4337 140.42V117.051L93.0974 117.522L97.329 117.957L98.6175 118.088L102.849 118.515L112.574 119.497L121.338 117.838L125.129 117.122L132.926 115.648V96.5836L140.997 95.2512ZM76.8087 32.0794L76.2659 32.0215C76.4451 32.0294 76.6348 32.0636 76.8087 32.0794Z" fill="url(#paint0_linear)"/>
<path d="M122.082 107.63C119.447 111.398 109.974 109.402 109.974 109.402L102.634 102.537L101.646 101.608L103.303 98.0899C103.303 98.0899 103.83 98.2347 104.734 98.4928C109.479 99.8699 124.305 104.462 122.082 107.63Z" fill="#EFB7B9"/>
<path opacity="0.1" d="M104.728 98.4928C104.404 99.6197 103.516 101.308 102.634 102.537L101.646 101.608L103.303 98.0899C103.303 98.0899 103.835 98.2347 104.728 98.4928Z" fill="black"/>
<path d="M79.5516 58.8219C79.5516 58.8219 72.7853 61.821 73.1173 69.186C73.3562 73.9308 73.8735 78.6575 74.6666 83.3418C74.6666 83.3418 73.2833 94.4247 79.0431 97.2816C84.8029 100.139 90.1332 102.487 90.1332 102.487C90.1332 102.487 99.1445 103.456 100.264 103.857C101.384 104.257 104.883 98.1374 104.238 97.1842C103.592 96.231 95.3213 94.2324 94.2673 92.642C93.2134 91.0516 90.7761 90.0694 90.7761 90.0694C90.7761 90.0694 88.2598 88.5475 88.0886 87.173C87.9173 85.7985 88.5813 84.7742 88.7499 84.1712C88.9186 83.5682 89.3454 77.7463 89.3454 77.7463C89.3454 77.7463 92.1858 57.0235 79.5516 58.8219Z" fill="#DCE6F2"/>
<path opacity="0.1" d="M84.0182 83.0388C84.0182 83.0388 74.7355 84.5923 75.634 87.839C75.634 87.839 79.004 84.3343 84.0182 83.0388Z" fill="black"/>
<path opacity="0.1" d="M84.0891 84.3527C84.0891 84.3527 78.9854 88.5157 79.984 88.729C80.9826 88.9423 84.0891 84.3527 84.0891 84.3527Z" fill="black"/>
<path opacity="0.1" d="M86.5423 85.8036C86.5423 85.8036 85.1748 88.6026 86.0153 88.413C86.8559 88.2234 86.5423 85.8036 86.5423 85.8036Z" fill="black"/>
<path opacity="0.1" d="M105.07 98.7903L104.506 98.6296C104.667 98.103 104.712 97.6764 104.58 97.479C103.934 96.5258 95.6689 94.5298 94.6176 92.9368C93.5662 91.3437 91.1264 90.3642 91.1264 90.3642C91.1264 90.3642 88.6101 88.8422 88.4388 87.4677C88.2675 86.0932 88.9315 85.0689 89.1002 84.466C89.2688 83.863 89.6956 78.0384 89.6956 78.0384C89.6956 78.0384 92.5281 57.3182 79.8939 59.1167C79.8939 59.1167 73.1276 62.1185 73.457 69.4834C73.6959 74.2283 74.2141 78.9551 75.0089 83.6392C75.0089 83.6392 73.6256 94.722 79.3854 97.579C85.1452 100.436 90.4755 102.785 90.4755 102.785C90.4755 102.785 99.4841 103.751 100.607 104.154C101.031 104.307 101.798 103.519 102.548 102.437L102.975 102.835L110.316 109.697C110.316 109.697 119.788 111.695 122.423 107.927C124.65 104.757 109.826 100.165 105.07 98.7903Z" fill="black"/>
<path d="M75.6575 31.1791C75.3995 31.2295 75.1525 31.3248 74.9276 31.4608C74.6641 31.6794 74.6641 32.0533 74.5983 32.3798C74.5209 32.834 74.3406 33.2645 74.0713 33.6384C74.3711 33.6604 74.6719 33.6108 74.9487 33.4936C74.9036 33.854 74.8151 34.2076 74.6852 34.5469C74.8494 34.551 75.0113 34.5078 75.1515 34.4223C75.2917 34.3369 75.4043 34.2128 75.4757 34.065C75.6151 33.7683 75.7254 33.4588 75.805 33.1408C75.8298 33.0457 75.8727 32.9562 75.9315 32.8774C76.1739 32.5904 76.6245 32.7195 76.9986 32.7563C77.31 32.7826 77.6227 32.7251 77.9044 32.5899C78.1861 32.4547 78.4265 32.2467 78.6006 31.9874C78.9985 31.3845 79.0222 29.8414 78.0737 29.6782C77.0829 29.5149 76.4664 30.8789 75.6575 31.1791Z" fill="#965D7B"/>
<g opacity="0.1">
<path opacity="0.1" d="M74.9017 31.7845C74.9254 31.6555 74.9412 31.5212 74.9702 31.3922C74.7199 31.6107 74.7067 31.982 74.6408 32.3112C74.6076 32.5011 74.5555 32.6872 74.4854 32.8668C74.6928 32.5363 74.8342 32.1688 74.9017 31.7845Z" fill="black"/>
<path opacity="0.1" d="M74.9861 33.9595C75.1173 33.6207 75.2058 33.2669 75.2496 32.9063C74.9858 33.0172 74.7001 33.0668 74.4143 33.0511C74.3311 33.2363 74.2296 33.4127 74.1113 33.5777C74.4101 33.6008 74.7101 33.5521 74.9861 33.4355C74.9423 33.7962 74.8538 34.15 74.7226 34.4888C74.8867 34.4926 75.0485 34.4492 75.1886 34.3638C75.3288 34.2784 75.4414 34.1545 75.5131 34.0069C75.5787 33.8872 75.6317 33.761 75.6712 33.6304C75.5939 33.7383 75.4906 33.8251 75.3708 33.8826C75.2511 33.9402 75.1188 33.9666 74.9861 33.9595Z" fill="black"/>
<path opacity="0.1" d="M77.2995 32.169C76.9254 32.1321 76.4722 32.0031 76.2297 32.2901C76.172 32.3695 76.1292 32.4587 76.1033 32.5534C76.0796 32.6219 76.0585 32.693 76.04 32.7641C76.2904 32.5666 76.6961 32.6719 77.036 32.7061C77.3473 32.7315 77.6597 32.6737 77.9412 32.5386C78.2228 32.4035 78.4633 32.1959 78.638 31.9373C78.7179 31.8094 78.7774 31.6699 78.8145 31.5238C78.6341 31.747 78.4016 31.9226 78.1374 32.0351C77.8733 32.1475 77.5856 32.1935 77.2995 32.169Z" fill="black"/>
</g>
<path d="M83.5883 52.9262L87.6065 57.7554L87.0821 62.6294L82.2261 55.0327L83.5883 52.9262Z" fill="#DCE6F2"/>
<path opacity="0.1" d="M87.6038 57.7554L87.1111 62.3397L87.0795 62.6294L82.6977 55.7726L82.2261 55.0327L82.3631 54.8195L83.5857 52.9262L83.8571 53.2527L87.6038 57.7554Z" fill="black"/>
<path d="M89.691 46.3879C88.3314 46.7776 87.0324 48.1153 85.902 49.7399C85.138 50.8609 84.4547 52.0347 83.8574 53.2525C83.4858 53.9951 83.1591 54.7087 82.8877 55.3301L82.698 55.7725C82.2396 56.8547 81.984 57.5788 81.984 57.5788C81.984 57.5788 71.5763 49.7584 73.2231 49.2317C73.7764 49.0553 74.5036 47.8704 75.2229 46.3774L75.3125 46.1878C75.7683 45.2294 76.2163 44.1603 76.6141 43.1544C77.4283 41.0874 78.0317 39.2916 78.0317 39.2916C78.0317 39.2916 93.8409 45.203 89.691 46.3879Z" fill="#EFB7B9"/>
<path d="M95.9165 38.8522C95.9165 38.8522 98.3195 43.1969 101.547 42.6044C104.775 42.012 103.447 40.2715 103.447 40.2715L95.9165 38.8522Z" fill="#444053"/>
<path d="M91.2609 189.244C89.1319 190.216 84.3181 189.244 84.3181 189.244L82.2892 189.118C79.6543 188.949 75.2436 188.665 73.6837 188.538C71.4072 188.351 71.9658 187.419 71.9658 187.419V181.787L83.0112 178.991C83.0112 178.991 87.3771 180.484 88.5734 181.787C89.709 183.03 90.373 182.074 92.3992 182.432C92.4993 182.451 92.6047 182.472 92.7154 182.498C94.6388 182.938 95.6822 183.111 96.2988 184.705C96.4227 185.039 96.5222 185.382 96.5965 185.731C97.1656 188.296 93.3873 188.278 91.2609 189.244Z" fill="#A36468"/>
<path opacity="0.1" d="M96.2988 184.704C95.903 184.952 95.4869 185.165 95.0551 185.342C93.6059 186.003 92.2279 186.808 90.7629 187.432C89.2979 188.056 87.7197 188.501 86.1335 188.383C85.3035 188.322 84.4551 188.12 83.662 188.357C83.1715 188.546 82.7095 188.802 82.2892 189.118C79.6543 188.949 75.2436 188.665 73.6837 188.538C71.4072 188.351 71.9658 187.419 71.9658 187.419V186.761C72.0475 186.761 72.1397 186.737 72.2451 186.729C72.7904 186.721 73.3334 186.802 73.8524 186.969C74.9959 187.28 76.1342 187.585 77.2777 187.891C77.3717 187.536 77.5371 187.204 77.7635 186.915C77.99 186.626 78.273 186.387 78.5951 186.211C79.2478 185.864 79.9804 185.696 80.7188 185.723C82.4921 185.747 84.1705 186.587 85.9411 186.671C86.4362 186.717 86.9345 186.633 87.3877 186.429C87.6301 186.308 87.8435 186.132 88.0806 185.997C88.4601 185.814 88.8611 185.679 89.2742 185.594C90.4354 185.306 91.5754 184.938 92.6864 184.494C93.0026 184.37 93.3714 184.146 93.3293 183.809C93.274 183.362 92.5704 183.309 92.386 182.898C92.3535 182.824 92.3384 182.743 92.3421 182.663C92.3457 182.582 92.368 182.503 92.4071 182.432C92.5072 182.45 92.6126 182.472 92.7233 182.498C94.6388 182.938 95.6822 183.111 96.2988 184.704Z" fill="black"/>
<path d="M89.0111 201.567C86.508 202.71 80.8431 201.567 80.8431 201.567L78.4585 201.428C75.3705 201.23 70.1692 200.901 68.3327 200.746C65.6531 200.525 66.3118 199.429 66.3118 199.429V192.791L79.3096 189.5C79.3096 189.5 84.4476 191.256 85.8546 192.791C87.1905 194.252 87.9625 193.128 90.3576 193.549C90.4761 193.57 90.6 193.597 90.7291 193.626C92.9924 194.152 94.2203 194.35 94.9449 196.225C95.0916 196.618 95.2087 197.022 95.2953 197.433C95.9487 200.451 91.5143 200.427 89.0111 201.567Z" fill="#A36468"/>
<path opacity="0.1" d="M94.9396 196.224C94.474 196.515 93.9848 196.766 93.4772 196.975C91.7725 197.752 90.1494 198.7 88.4262 199.434C86.703 200.169 84.8454 200.69 82.9773 200.553C82.0024 200.482 81.0038 200.237 80.079 200.522C79.4995 200.747 78.9541 201.052 78.4585 201.428C75.3705 201.23 70.1692 200.901 68.3327 200.746C65.6531 200.524 66.3118 199.429 66.3118 199.429V198.655C66.4209 198.637 66.5308 198.625 66.6412 198.618C67.283 198.606 67.9224 198.702 68.533 198.9L72.5617 199.985C72.6739 199.566 72.8704 199.175 73.139 198.835C73.4077 198.495 73.7429 198.213 74.1242 198.007C74.8921 197.598 75.755 197.4 76.6247 197.433C78.7115 197.462 80.685 198.449 82.7692 198.55C83.3496 198.602 83.9339 198.505 84.466 198.268C84.7532 198.123 84.993 197.915 85.2828 197.76C85.7284 197.542 86.2005 197.382 86.6872 197.286C88.046 196.943 89.3805 196.51 90.6817 195.99C91.0532 195.843 91.4879 195.579 91.4379 195.184C91.372 194.658 90.5446 194.595 90.3259 194.11C90.2891 194.023 90.2723 193.928 90.2769 193.833C90.2814 193.738 90.3072 193.646 90.3523 193.562C90.4709 193.583 90.5947 193.61 90.7238 193.639C92.9872 194.144 94.215 194.35 94.9396 196.224Z" fill="black"/>
<path d="M83.3464 156.016L82.6429 172.56C82.6429 172.56 81.5889 175.939 82.1607 176.905C82.7324 177.872 83.6968 178.835 83.3464 179.407C82.9959 179.978 78.7801 186.155 77.4179 183.786C76.0557 181.416 74.7119 171.146 74.7119 171.146L75.9687 158.463L83.3464 156.016Z" fill="#444053"/>
<path d="M86.3966 114.797L88.3517 117.409V140.128C88.3517 140.128 88.9235 146.184 88.3517 147.435C87.7799 148.686 84.8816 151.187 84.8816 151.187L82.4443 138.68L82.9713 125.448L86.3966 114.797Z" fill="#444053"/>
<path opacity="0.1" d="M83.3464 156.016L82.6429 172.56C82.6429 172.56 81.5889 175.939 82.1607 176.905C82.7324 177.872 83.6968 178.835 83.3464 179.407C82.9959 179.978 78.7801 186.155 77.4179 183.786C76.0557 181.416 74.7119 171.146 74.7119 171.146L75.9687 158.463L83.3464 156.016Z" fill="black"/>
<path opacity="0.1" d="M86.3966 114.797L88.3517 117.409V140.128C88.3517 140.128 88.9235 146.184 88.3517 147.435C87.7799 148.686 84.8816 151.187 84.8816 151.187L82.4443 138.68L82.9713 125.448L86.3966 114.797Z" fill="black"/>
<path d="M88.3523 105.107V117.396L86.1575 126.962C86.1575 126.962 85.4539 150.047 86.0679 152.854C86.6818 155.661 83.96 158.297 83.96 158.297C83.96 158.297 82.3791 158.473 82.3791 159.7C82.3791 160.927 79.7442 164.44 79.7442 164.44L79.8311 171.286C79.8311 171.286 80.9747 184.102 79.2172 186.558C77.4598 189.015 79.8311 189.368 79.8311 189.368C77.6363 196.564 67.0968 194.898 66.1457 194.108C65.1945 193.318 66.1457 177.782 66.1457 177.782C66.1457 177.782 68.5012 154.084 70.3456 153.031C72.19 151.977 70.4352 150.661 71.0491 149.081C71.6631 147.501 70.4352 143.201 70.4352 143.201C70.4352 143.201 69.9082 138.109 68.5908 135.652C67.2734 133.195 67.4473 126.436 67.4473 126.436C67.4473 126.436 63.7585 121.52 62.6624 119.59C61.5663 117.66 60.8601 112.657 61.1236 108.881C61.3028 106.329 62.6439 102.614 63.495 100.476C63.9034 99.4513 64.1985 98.7878 64.1985 98.7878L64.4488 98.8536L78.8404 102.619L88.3523 105.107Z" fill="#444053"/>
<path opacity="0.1" d="M89.6908 46.3882C88.3312 46.7779 87.0322 48.1155 85.9019 49.7402H85.6068C83.9499 49.7414 82.3221 49.3054 80.8879 48.4764C79.4537 47.6474 78.2639 46.4548 77.4387 45.0189C77.0938 44.424 76.8163 43.7926 76.6113 43.1363C77.4255 41.0692 78.0289 39.2734 78.0289 39.2734C78.0289 39.2734 93.8407 45.2033 89.6908 46.3882Z" fill="black"/>
<path d="M95.0263 39.8052C95.0286 41.246 94.7 42.6681 94.0658 43.9619C93.4315 45.2557 92.5085 46.3868 91.3679 47.268C90.2273 48.1492 88.8995 48.757 87.4868 49.0446C86.0741 49.3321 84.6143 49.2918 83.2196 48.9267C81.825 48.5616 80.5328 47.8815 79.4427 46.9387C78.3525 45.9959 77.4934 44.8156 76.9316 43.4887C76.3698 42.1619 76.1203 40.7238 76.2022 39.2854C76.2842 37.847 76.6954 36.4465 77.4043 35.192C77.6899 34.6822 78.0234 34.2008 78.4003 33.7543C79.0216 33.0145 79.7519 32.3735 80.5662 31.8532C81.9414 30.9798 83.5199 30.4779 85.1473 30.3964C86.7747 30.315 88.3955 30.6569 89.8511 31.3886C91.3068 32.1204 92.5476 33.217 93.4524 34.5713C94.3572 35.9256 94.8949 37.4913 95.0131 39.1154C95.0184 39.3471 95.0263 39.5762 95.0263 39.8052Z" fill="#EFB7B9"/>
<path opacity="0.1" d="M87.1114 62.3396L87.0798 62.6292L82.698 55.7831C82.2396 56.8653 81.984 57.5894 81.984 57.5894C81.984 57.5894 71.5763 49.7584 73.2231 49.2318C73.7764 49.0554 74.5036 47.8705 75.2229 46.3775L75.3125 46.1879C76.0766 48.4629 80.5164 53.0104 82.3634 54.8325C82.5768 55.0431 82.7534 55.2169 82.8904 55.3433L83.1723 55.6066L83.3199 55.7541C83.9917 56.4466 86.8268 59.501 87.1114 62.3396Z" fill="black"/>
<path d="M90.3863 85.5692L89.9068 100.991L89.8225 103.738C89.8225 103.738 84.1417 103.211 78.8404 102.632C74.5719 102.166 70.5484 101.663 69.9293 101.368C69.1388 100.997 67.4446 100.71 66.1087 100.528C65.0758 100.389 64.2643 100.315 64.2643 100.315C64.2643 100.315 63.9613 100.404 63.4949 100.489C62.4779 100.673 60.6914 100.823 59.6507 99.9198C58.32 98.7639 61.8165 94.564 62.6887 93.5555L62.881 93.3369L62.5516 90.2957L61.6953 82.4094C61.6953 82.4094 61.1683 77.8672 60.3779 75.4316C60.1666 74.7391 60.0141 74.03 59.922 73.3119C59.6284 71.0873 59.7788 68.8267 60.3647 66.6606C60.615 65.7402 60.7739 64.7973 60.839 63.8457C60.9707 61.4101 68.4142 51.9966 70.2586 51.1408C71.0883 50.7542 71.7559 50.0888 72.1452 49.2607C72.2737 49.0004 72.3701 48.7254 72.4324 48.4418C73.2228 45.0188 75.2227 46.3775 75.2227 46.3775C75.7049 49.0554 83.1694 56.1438 83.1694 56.1438L83.317 56.2912C84.0574 57.0496 87.3562 60.6096 87.1217 63.6482C87.0749 64.7792 87.2439 65.9087 87.6197 66.9765C89.1381 71.7543 90.0109 76.7134 90.2151 81.7222L90.3863 85.5692Z" fill="#DCE6F2"/>
<path opacity="0.1" d="M79.8103 67.2559C79.8103 67.2559 77.9659 71.7322 76.5826 72.4563C75.1993 73.1804 80.469 73.9835 79.8103 67.2559Z" fill="black"/>
<path opacity="0.1" d="M81.1928 75.6161C81.1928 75.6161 76.9771 76.1427 76.9771 76.9327C76.9771 77.7226 81.1928 75.6161 81.1928 75.6161Z" fill="black"/>
<path opacity="0.1" d="M85.6063 80.7507C85.6063 80.7507 79.4802 93.7848 77.7676 94.1797C76.0549 94.5747 85.6063 80.7507 85.6063 80.7507Z" fill="black"/>
<path opacity="0.1" d="M83.0539 56.8049L77.9871 59.0062L71.8716 49.7744C72.0001 49.5141 72.0965 49.2391 72.1588 48.9555C72.9492 45.5324 74.9491 46.8911 74.9491 46.8911C75.4313 49.569 82.8958 56.6575 82.8958 56.6575L83.0539 56.8049Z" fill="black"/>
<path d="M83.3171 56.2783L78.2503 58.4796L72.1348 49.2478C72.2633 48.9874 72.3597 48.7125 72.422 48.4289C73.2124 45.0058 75.2123 46.3645 75.2123 46.3645C75.6945 49.0424 83.159 56.1308 83.159 56.1308L83.3171 56.2783Z" fill="#DCE6F2"/>
<path opacity="0.1" d="M89.8224 103.738C89.8224 103.738 84.1417 103.211 78.8403 102.632L88.3522 105.121V108.017C87.9359 108.394 87.5749 108.588 87.3404 108.488C86.2443 108.028 77.2989 106.579 77.2989 106.579C77.2989 106.579 72.103 103.946 66.496 100.786C66.3599 100.711 66.228 100.628 66.1008 100.539C65.447 100.095 64.8837 99.5314 64.4408 98.8773C63.4053 97.3791 62.8994 95.4542 62.6807 93.5663C62.5578 92.4843 62.512 91.3949 62.5437 90.3064C62.5709 89.0722 62.6836 87.8413 62.881 86.6227C62.3387 81.9026 62.0748 77.1548 62.0905 72.4037C62.1564 65.0309 69.0729 62.3978 69.0729 62.3978C81.7861 61.2787 77.8444 81.8172 77.8444 81.8172C77.8444 81.8172 77.1092 87.6101 76.909 88.2026C76.7087 88.795 75.9894 89.7825 76.0869 91.1649C76.1844 92.5473 78.6137 94.2009 78.6137 94.2009C78.6137 94.2009 80.9851 95.3121 81.9626 96.9578C82.6741 98.1716 87.2956 99.8174 89.9068 100.992L89.8224 103.738Z" fill="black"/>
<path opacity="0.1" d="M94.0805 33.9595C94.0853 34.3932 93.9954 34.8227 93.817 35.2181C93.6819 35.5408 93.5252 35.854 93.348 36.1555C93.0707 36.7103 92.677 37.1988 92.1939 37.588C91.5852 38.0224 90.8159 38.1436 90.086 38.32C89.3562 38.4964 88.5973 38.7782 88.181 39.3996C87.9554 39.7991 87.8045 40.2363 87.7357 40.6898C87.6659 41.143 87.4849 41.5718 87.2087 41.9379C87.065 42.1167 86.8658 42.2427 86.6426 42.296C86.4194 42.3494 86.1848 42.3272 85.9756 42.2328C85.7553 42.0844 85.5882 41.8694 85.4987 41.6193C85.1983 40.9426 85.1219 40.1921 85.0007 39.4628C84.8795 38.7334 84.7082 37.9829 84.2603 37.3958C83.8124 36.8086 83.0193 36.4215 82.3158 36.6506C82.0803 36.7412 81.8656 36.8784 81.6845 37.0539C81.5034 37.2295 81.3596 37.4398 81.2618 37.6722C81.0671 38.1376 80.9334 38.6261 80.864 39.1257C80.5373 40.9128 80.1517 42.6892 79.7073 44.4552C79.6937 44.5276 79.664 44.596 79.6203 44.6553C79.5503 44.7251 79.4557 44.7648 79.3568 44.7659C78.7666 44.8449 78.2001 44.4315 77.6047 44.4763C77.5433 44.4804 77.4824 44.4901 77.4228 44.5052C76.4601 42.8331 76.035 40.9056 76.2051 38.9839C76.3752 37.0622 77.1324 35.2392 78.374 33.762L78.4215 33.7488C78.8176 33.6083 79.1775 33.3817 79.4754 33.0853C79.8558 32.7049 80.208 32.2975 80.5293 31.8661L80.7401 31.6028C81.3458 30.8737 82.0356 30.2188 82.7953 29.6517C83.0027 29.4819 83.2406 29.3532 83.4962 29.2725C83.715 29.2299 83.9392 29.2228 84.1602 29.2514C85.0701 29.3606 85.9875 29.3949 86.9031 29.3541C87.5411 29.2539 88.1841 29.1889 88.8292 29.1593C90.497 29.2067 91.9199 30.3837 92.9738 31.6739C93.5403 32.3349 94.0462 33.0958 94.0805 33.9595Z" fill="black"/>
<path d="M76.1741 35.4421C75.8079 36.0425 75.1465 36.4506 74.8989 37.1089C74.5353 38.0647 75.1492 39.2549 74.5853 40.1081C74.3982 40.3951 74.09 40.6084 73.9846 40.9375C73.8054 41.4931 74.2955 42.0855 74.169 42.6569C74.0425 43.2283 73.289 43.7102 73.4892 44.2684C73.6076 44.5119 73.8151 44.7005 74.0689 44.7951C74.4681 45.0239 74.9277 45.1259 75.3863 45.0873C76.1056 44.9688 76.6405 44.2632 77.3704 44.2105C77.9632 44.1684 78.5297 44.5791 79.1199 44.5028C79.2188 44.4993 79.3129 44.4589 79.3834 44.3896C79.4282 44.3309 79.458 44.2622 79.4704 44.1894C79.913 42.4252 80.2995 40.6487 80.6297 38.8599C80.697 38.3602 80.8299 37.8715 81.0249 37.4064C81.1235 37.1745 81.2675 36.9646 81.4485 36.7891C81.6295 36.6136 81.8439 36.4762 82.0789 36.3848C82.7824 36.1583 83.5728 36.5428 84.0234 37.13C84.474 37.7172 84.6452 38.4676 84.7664 39.197C84.8876 39.9264 84.964 40.6768 85.2618 41.3535C85.3523 41.6045 85.5202 41.8203 85.7413 41.9697C86.1366 42.1988 86.6688 42.0171 86.9718 41.6748C87.2494 41.3085 87.4306 40.8784 87.4988 40.424C87.5675 39.9713 87.7184 39.535 87.9441 39.1364C88.3604 38.515 89.1219 38.2333 89.8491 38.0568C90.5763 37.8804 91.3431 37.7567 91.957 37.3222C92.4395 36.9335 92.833 36.4459 93.111 35.8924C93.501 35.213 93.8646 34.4758 93.833 33.6937C93.7987 32.8406 93.2929 32.0796 92.7527 31.416C91.6988 30.1258 90.2733 28.9488 88.6054 28.904C87.9601 28.931 87.317 28.9961 86.6793 29.0989C85.7637 29.14 84.8462 29.1048 83.9365 28.9935C83.7152 28.9671 83.4912 28.9751 83.2725 29.0172C83.0165 29.0954 82.779 29.2243 82.5742 29.3964C81.8138 29.9626 81.123 30.6166 80.5164 31.3449C80.1252 31.8633 79.701 32.3558 79.2464 32.8195C78.9484 33.1164 78.5885 33.3438 78.1924 33.4857C77.929 33.5594 77.6655 33.5068 77.4152 33.5884C76.6379 33.8333 76.5351 34.847 76.1741 35.4421Z" fill="#965D7B"/>
<path opacity="0.1" d="M101.547 42.6018C99.4393 42.9889 97.6924 41.2852 96.7254 40.0424C96.4284 39.6649 96.1581 39.2672 95.9165 38.8522L103.152 40.2162L103.444 40.2715C103.444 40.2715 104.775 42.012 101.547 42.6018Z" fill="black"/>
<g opacity="0.1">
<path opacity="0.1" d="M74.1689 41.9037C74.1984 41.5593 74.146 41.2128 74.0161 40.8925C74.0161 40.9189 73.9923 40.9452 73.9844 40.9715C73.8711 41.3244 74.024 41.6904 74.1214 42.0564C74.1424 42.0072 74.1583 41.956 74.1689 41.9037Z" fill="black"/>
<path opacity="0.1" d="M74.7964 37.5934C74.7693 37.9575 74.7764 38.3234 74.8175 38.6862C74.8445 38.322 74.8374 37.9562 74.7964 37.5934Z" fill="black"/>
<path opacity="0.1" d="M93.0954 35.1313C92.8181 35.686 92.4245 36.1746 91.9413 36.5637C91.3327 36.9982 90.5659 37.1193 89.8334 37.2957C89.1009 37.4721 88.3447 37.7539 87.9284 38.3753C87.7032 38.7749 87.5523 39.2121 87.4831 39.6655C87.4145 40.1198 87.2333 40.5498 86.9561 40.9163C86.6531 41.2586 86.1209 41.4429 85.7257 41.2112C85.5045 41.0618 85.3366 40.846 85.2461 40.595C84.9484 39.9183 84.8693 39.1705 84.7508 38.4385C84.6322 37.7065 84.4557 36.9587 84.0077 36.3715C83.5598 35.7843 82.7667 35.3972 82.0632 35.6263C81.828 35.7173 81.6134 35.8546 81.4324 36.0301C81.2513 36.2056 81.1074 36.4157 81.0092 36.648C80.8142 37.113 80.6813 37.6017 80.614 38.1014C80.2855 39.8902 79.8991 41.6667 79.4547 43.4309C79.4423 43.5037 79.4125 43.5724 79.3677 43.6311C79.2972 43.7004 79.2032 43.7408 79.1042 43.7443C78.514 43.8206 77.9475 43.4099 77.3547 43.452C76.6248 43.5047 76.09 44.2103 75.3706 44.3262C74.9118 44.3673 74.4515 44.2652 74.0532 44.0339C73.8701 43.9552 73.7057 43.8385 73.571 43.6916C73.5094 43.7798 73.4686 43.8809 73.4517 43.9872C73.4348 44.0934 73.4423 44.2022 73.4735 44.3051C73.5896 44.5503 73.798 44.7396 74.0532 44.8318C74.4515 45.0631 74.9118 45.1652 75.3706 45.124C76.09 45.0082 76.6248 44.3025 77.3547 44.2498C77.9475 44.2077 78.514 44.6185 79.1042 44.5421C79.2032 44.5387 79.2972 44.4983 79.3677 44.4289C79.4125 44.3702 79.4423 44.3015 79.4547 44.2288C79.8973 42.4733 80.2838 40.6969 80.614 38.8993C80.6813 38.3995 80.8142 37.9108 81.0092 37.4458C81.1074 37.2136 81.2513 37.0035 81.4324 36.828C81.6134 36.6525 81.828 36.5151 82.0632 36.4241C82.7667 36.1951 83.5572 36.5821 84.0077 37.1693C84.4583 37.7565 84.6296 38.507 84.7508 39.2363C84.872 39.9657 84.9484 40.7162 85.2461 41.3929C85.3366 41.6439 85.5045 41.8596 85.7257 42.009C86.1209 42.2381 86.6531 42.0564 86.9561 41.7141C87.2333 41.3476 87.4145 40.9177 87.4831 40.4634C87.5523 40.0099 87.7032 39.5728 87.9284 39.1731C88.3447 38.5517 89.1062 38.2726 89.8334 38.0935C90.5606 37.9145 91.3274 37.796 91.9413 37.3615C92.4245 36.9724 92.8181 36.4839 93.0954 35.9291C93.4853 35.2524 93.849 34.5151 93.8173 33.7331C93.8122 33.6325 93.8016 33.5323 93.7857 33.4329C93.6586 34.0356 93.4248 34.6107 93.0954 35.1313Z" fill="black"/>
</g>
<path opacity="0.1" d="M93.8275 35.2103C94.5032 36.4109 94.9037 37.7465 95 39.1206C92.6523 37.804 90.4443 36.3584 89.3298 35.8555C87.3879 34.9786 80.1262 35.1103 77.3965 35.1919C77.682 34.6821 78.0155 34.2007 78.3925 33.7542C79.0162 33.0138 79.7492 32.3728 80.5662 31.8531C81.6482 31.1668 82.8589 30.7083 84.1242 30.5056C85.3895 30.3028 86.683 30.36 87.9254 30.6738C89.1678 30.9875 90.3332 31.5511 91.3503 32.3302C92.3674 33.1094 93.2147 34.0876 93.8407 35.2051L93.8275 35.2103Z" fill="black"/>
<path opacity="0.1" d="M102.206 41.4853C100.939 41.8751 98.8702 41.122 96.7254 40.0424C96.4284 39.6649 96.1581 39.2672 95.9165 38.8522L103.152 40.2162C103.631 40.5427 103.753 41.0087 102.206 41.4853Z" fill="black"/>
<path d="M86.1683 26.0811C86.1683 26.0811 79.2518 25.6862 77.3072 29.4384L76.9937 32.764L76.4667 32.7061L76.3613 34.968C76.3613 34.968 86.9324 34.5072 89.338 35.592C91.7437 36.6769 99.2188 42.1433 102.215 41.2217C105.21 40.3001 101.951 39.4443 101.951 39.4443C101.951 39.4443 97.8276 37.6986 97.8276 36.3293C97.8276 34.9601 96.8052 27.7268 86.1683 26.0811Z" fill="#444053"/>
<path opacity="0.1" d="M72.8271 149.365C72.8271 149.365 77.2405 153.644 79.1508 153.315C79.1508 153.315 73.7494 152.854 72.8271 149.365Z" fill="black"/>
<path opacity="0.1" d="M71.9053 151.348C71.9053 151.348 72.3005 153.549 73.3544 153.333C74.4084 153.117 71.9053 151.348 71.9053 151.348Z" fill="black"/>
<path opacity="0.1" d="M78.8218 188.138C78.8218 188.138 72.5561 193.01 73.6127 193.141C74.6693 193.273 78.8218 188.138 78.8218 188.138Z" fill="black"/>
<path d="M87.2036 91.457L107.492 88.1576V107.353L88.2154 106.345L87.2036 91.457Z" fill="#6B7A8F"/>
<path opacity="0.05" d="M87.2036 91.457L107.492 88.1576V107.353L88.2154 106.345L87.2036 91.457Z" fill="black"/>
<path d="M107.492 88.1576L131.822 89.9771L130.476 106.682L107.492 107.353V88.1576Z" fill="#6B7A8F"/>
<path opacity="0.1" d="M107.492 88.1576L131.822 89.9771L130.476 106.682L107.492 107.353V88.1576Z" fill="black"/>
<path d="M114.972 82.2989L107.492 88.1576L131.822 89.9771L135.798 83.9815L114.972 82.2989Z" fill="#6B7A8F"/>
<path d="M79.8574 85.0584L98.1223 82.836L107.492 88.1576L87.2034 91.4569L79.8574 85.0584Z" fill="#6B7A8F"/>
<path d="M111.94 93.1422V119.387L102.436 118.412L98.3017 117.991L97.0422 117.859L92.9107 117.436L87.2036 116.851V91.4569L107.489 92.8367L111.94 93.1422Z" fill="#6B7A8F"/>
<path d="M131.822 89.9772V115.571L124.205 117.033L120.5 117.744L111.939 119.387V93.1423L131.822 89.9772Z" fill="#6B7A8F"/>
<path opacity="0.05" d="M131.822 89.9772V115.571L124.205 117.033L120.5 117.744L111.939 119.387V93.1423L131.822 89.9772Z" fill="black"/>
<path d="M79.8574 96.9813L87.2034 91.4569L111.94 93.1422L108.298 99.2721L79.8574 96.9813Z" fill="#6B7A8F"/>
<path opacity="0.1" d="M79.8574 96.9813L87.2034 91.4569L111.94 93.1422L108.298 99.2721L79.8574 96.9813Z" fill="white"/>
<path d="M131.822 89.9772L111.939 93.1423L118.411 98.9352L139.708 95.3646L131.822 89.9772Z" fill="#6B7A8F"/>
<path opacity="0.1" d="M131.822 89.9772L111.939 93.1423L118.411 98.9352L139.708 95.3646L131.822 89.9772Z" fill="white"/>
<path opacity="0.1" d="M124.205 117.033L120.5 117.744V112.275L123.97 111.4L124.205 117.033Z" fill="white"/>
<path opacity="0.1" d="M102.435 114.795V118.413L98.3013 117.991V114.795H102.435Z" fill="white"/>
<path opacity="0.1" d="M97.0421 115.935V117.86L92.9106 117.436V115.935H97.0421Z" fill="white"/>
<path opacity="0.1" d="M109.452 112.875C106.619 116.496 97.2656 113.994 97.2656 113.994L90.3149 106.748L89.3716 105.766L91.216 102.343C91.216 102.343 91.743 102.516 92.623 102.822C97.2814 104.449 111.836 109.829 109.452 112.875Z" fill="black"/>
<path d="M109.188 112.348C106.356 115.969 97.002 113.468 97.002 113.468L90.0512 106.221L89.1079 105.239L90.9523 101.816C90.9523 101.816 91.4793 101.99 92.3593 102.295C97.0178 103.922 111.573 109.302 109.188 112.348Z" fill="#EFB7B9"/>
<path opacity="0.1" d="M92.3491 102.295C91.9644 103.401 90.9869 105.039 90.0409 106.221L89.0977 105.239L90.9421 101.816C90.9421 101.816 91.4717 101.99 92.3491 102.295Z" fill="black"/>
<path d="M69.3366 61.3443C69.3366 61.3443 62.4201 63.9774 62.3542 71.3502C62.3384 76.1013 62.6024 80.8491 63.1446 85.5692C63.1446 85.5692 61.1685 96.5626 66.7676 99.7223C72.3667 102.882 77.5705 105.515 77.5705 105.515C77.5705 105.515 86.5159 106.963 87.6146 107.424C88.7133 107.885 92.5313 101.961 91.9384 100.973C91.3456 99.9857 83.2012 97.55 82.2342 95.9043C81.2672 94.2586 78.8853 93.15 78.8853 93.15C78.8853 93.15 76.456 91.4938 76.3585 90.1114C76.261 88.729 76.9777 87.7415 77.1806 87.1491C77.3834 86.5566 78.1186 80.7637 78.1186 80.7637C78.1186 80.7637 82.0498 60.212 69.3366 61.3443Z" fill="#DCE6F2"/>
<path opacity="0.1" d="M72.4983 85.7537C72.4983 85.7537 63.1445 86.807 63.8691 90.0984C63.8691 90.0984 67.4236 86.778 72.4983 85.7537Z" fill="black"/>
<path opacity="0.1" d="M72.4983 87.0703C72.4983 87.0703 67.1891 90.9542 68.164 91.2175C69.1389 91.4808 72.4983 87.0703 72.4983 87.0703Z" fill="black"/>
<path opacity="0.1" d="M74.8702 88.6502C74.8702 88.6502 73.3551 91.3728 74.2115 91.2306C75.0678 91.0884 74.8702 88.6502 74.8702 88.6502Z" fill="black"/>
<path d="M172.259 29.5939C172.259 29.5939 162.246 28.9909 163.416 36.0108C163.416 36.0108 163.182 37.2511 164.307 37.8146C164.307 37.8146 164.325 37.2879 165.335 37.4696C165.694 37.5301 166.059 37.5477 166.423 37.5223C166.915 37.4894 167.384 37.2961 167.756 36.9719C167.756 36.9719 170.573 35.8107 171.669 31.208C171.669 31.208 172.48 30.2021 172.459 29.9441L170.768 30.6682C170.768 30.6682 171.345 31.8873 170.889 32.9011C170.889 32.9011 170.836 30.713 170.509 30.763C170.444 30.763 169.632 31.1869 169.632 31.1869C169.632 31.1869 170.625 33.3092 169.874 34.8549C169.874 34.8549 170.159 32.2376 169.321 31.3397L168.13 32.0348C168.13 32.0348 169.292 34.2282 168.504 36.0187C168.504 36.0187 168.707 33.2724 167.88 32.2033L166.8 33.0433C166.8 33.0433 167.893 35.2077 167.226 36.6928C167.226 36.6928 167.139 33.4962 166.565 33.2539C166.565 33.2539 165.622 34.086 165.479 34.4283C165.479 34.4283 166.225 36.0082 165.761 36.8271C165.761 36.8271 165.477 34.6969 165.234 34.6864C165.234 34.6864 164.294 36.0977 164.196 37.0562C164.242 36.1626 164.521 35.2966 165.005 34.5442C164.463 34.6467 163.963 34.9058 163.567 35.2894C163.567 35.2894 163.711 34.2914 165.237 34.2045C165.237 34.2045 166.028 33.1328 166.223 33.067C166.223 33.067 164.705 32.9406 163.785 33.3487C163.785 33.3487 164.594 32.4087 166.502 32.8221L167.556 31.9532C167.556 31.9532 165.559 31.6899 164.71 31.9821C164.71 31.9821 165.685 31.1501 167.843 31.7557L169.002 31.0632C169.002 31.0632 167.3 30.6945 166.286 30.8288C166.286 30.8288 167.355 30.2522 169.342 30.8762L170.172 30.5049C170.172 30.5049 168.923 30.2601 168.56 30.2206C168.196 30.1811 168.175 30.081 168.175 30.081C168.965 29.9496 169.776 30.0408 170.517 30.3443C170.517 30.3443 172.296 29.7045 172.259 29.5939Z" fill="#6B7A8F"/>
<path opacity="0.1" d="M202.681 64.7043C202.681 64.7043 192.669 64.1014 193.839 71.1213C193.839 71.1213 193.604 72.3615 194.729 72.925C194.729 72.925 194.748 72.3984 195.76 72.5801C196.119 72.6405 196.484 72.6582 196.848 72.6328C197.335 72.5975 197.797 72.4053 198.165 72.0851C198.165 72.0851 200.984 70.9212 202.081 66.3185C202.081 66.3185 202.889 65.3152 202.858 65.0572L201.166 65.7787C201.166 65.7787 201.743 66.9978 201.29 68.0116C201.29 68.0116 201.235 65.8234 200.911 65.8735C200.845 65.8735 200.031 66.2974 200.031 66.2974C200.031 66.2974 201.027 68.4223 200.276 69.9654C200.276 69.9654 200.56 67.348 199.72 66.4501L198.542 67.1374C198.542 67.1374 199.704 69.3308 198.916 71.1213C198.916 71.1213 199.119 68.375 198.292 67.3059L197.214 68.1485C197.214 68.1485 198.305 70.3103 197.641 71.7954C197.641 71.7954 197.554 68.5988 196.979 68.3565C196.979 68.3565 196.036 69.1886 195.891 69.5309C195.891 69.5309 196.64 71.1108 196.176 71.9297C196.176 71.9297 195.891 69.7995 195.649 69.789C195.649 69.789 194.708 71.2003 194.611 72.1588C194.658 71.2651 194.938 70.3992 195.422 69.6468C194.879 69.7495 194.379 70.0085 193.981 70.3919C193.981 70.3919 194.129 69.394 195.654 69.3071C195.654 69.3071 196.431 68.2354 196.64 68.1696C196.64 68.1696 195.122 68.0432 194.202 68.4513C194.202 68.4513 195.011 67.5113 196.916 67.9378L197.97 67.0689C197.97 67.0689 195.97 66.8056 195.125 67.0979C195.125 67.0979 196.099 66.2658 198.257 66.8714L199.417 66.1789C199.417 66.1789 197.712 65.8129 196.698 65.9446C196.698 65.9446 197.77 65.3679 199.757 65.9919L200.587 65.6207C200.587 65.6207 199.338 65.3758 198.971 65.3363C198.605 65.2968 198.587 65.1967 198.587 65.1967C199.378 65.0652 200.19 65.1564 200.932 65.4601C200.932 65.4601 202.713 64.8149 202.681 64.7043Z" fill="#6B7A8F"/>
<path opacity="0.1" d="M141.856 58.4716C141.856 58.4716 144.161 48.7053 137.037 48.6711C137.037 48.6711 135.854 48.2287 135.108 49.2398C135.108 49.2398 135.616 49.3478 135.271 50.3115C135.152 50.6523 135.072 51.0057 135.034 51.3648C134.983 51.8542 135.093 52.347 135.348 52.7682C135.348 52.7682 136.014 55.7437 140.354 57.608C140.354 57.608 141.208 58.577 141.466 58.5875L141.044 56.7996C141.044 56.7996 139.743 57.1603 138.82 56.5363C138.82 56.5363 140.989 56.8549 140.992 56.5363C140.992 56.4704 140.728 55.5989 140.728 55.5989C140.728 55.5989 138.465 56.215 137.068 55.2118C137.068 55.2118 139.6 55.9385 140.631 55.2671L140.156 53.9716C140.156 53.9716 137.785 54.7431 136.162 53.6609C136.162 53.6609 138.836 54.3297 140.033 53.6977L139.387 52.4918C139.387 52.4918 137.068 53.1974 135.717 52.289C135.717 52.289 138.878 52.7472 139.221 52.2258C139.221 52.2258 138.562 51.1541 138.249 50.954C138.249 50.954 136.573 51.4227 135.835 50.825C135.835 50.825 137.983 50.9066 138.033 50.6802C138.033 50.6802 136.802 49.5137 135.864 49.2504C136.738 49.4493 137.546 49.8721 138.207 50.4774C138.197 49.9255 138.027 49.3885 137.716 48.9317C137.716 48.9317 138.676 49.2477 138.507 50.7749C138.507 50.7749 139.429 51.7229 139.458 51.9388C139.458 51.9388 139.84 50.4669 139.595 49.49C139.595 49.49 140.386 50.4484 139.64 52.2521L140.314 53.4502C140.314 53.4502 140.926 51.528 140.77 50.6433C140.77 50.6433 141.426 51.7439 140.459 53.7662L140.947 55.0275C140.947 55.0275 141.598 53.4107 141.64 52.3943C141.64 52.3943 142.027 53.5477 141.071 55.3988L141.297 56.2782C141.297 56.2782 141.75 55.0907 141.851 54.7378C141.951 54.385 142.053 54.3824 142.053 54.3824C142.049 55.1834 141.822 55.9676 141.397 56.6469C141.397 56.6469 141.743 58.4848 141.856 58.4716Z" fill="#6B7A8F"/>
<path opacity="0.1" d="M119.929 61.7999C119.929 61.7999 111.887 55.7884 109.012 62.3002C109.012 62.3002 108.135 63.2086 108.765 64.2961C108.765 64.2961 109.065 63.8722 109.819 64.5752C110.085 64.8234 110.381 65.039 110.699 65.2177C111.129 65.4572 111.626 65.5496 112.114 65.481C112.114 65.481 115.107 66.0577 118.553 62.8163C118.553 62.8163 119.784 62.4213 119.9 62.1896L118.084 61.871C118.084 61.871 117.894 63.206 116.959 63.8037C116.959 63.8037 118.116 61.9447 117.815 61.8104C117.755 61.7814 116.848 61.6788 116.848 61.6788C116.848 61.6788 116.511 64.0012 115.036 64.878C115.036 64.878 116.714 62.8479 116.506 61.6366L115.128 61.5629C115.128 61.5629 114.893 64.0354 113.249 65.0992C113.249 65.0992 114.928 62.9163 114.83 61.5682L113.465 61.6788C113.465 61.6788 113.189 64.0828 111.816 64.957C111.816 64.957 113.499 62.2396 113.154 61.7235C113.154 61.7235 111.908 61.8999 111.6 62.1053C111.6 62.1053 111.36 63.8274 110.517 64.2645C110.517 64.2645 111.452 62.3291 111.262 62.1949C111.262 62.1949 109.7 62.8558 109.086 63.6088C109.617 62.8878 110.327 62.3178 111.147 61.9552C110.637 61.7435 110.076 61.685 109.534 61.7867C109.534 61.7867 110.203 61.0336 111.526 61.7999C111.526 61.7999 112.764 61.3338 112.975 61.3917C112.975 61.3917 111.776 60.4517 110.783 60.2885C110.783 60.2885 111.979 59.9461 113.336 61.3417L114.704 61.2022C114.704 61.2022 113.183 59.8856 112.311 59.6644C112.311 59.6644 113.584 59.5038 115.051 61.1943L116.4 61.2548C116.4 61.2548 115.181 60.012 114.261 59.5643C114.261 59.5643 115.47 59.6697 116.788 61.2838L117.686 61.4286C117.686 61.4286 116.777 60.5386 116.493 60.3069C116.208 60.0752 116.248 59.9777 116.248 59.9777C116.981 60.3021 117.609 60.8236 118.063 61.4839C118.063 61.4839 119.894 61.9078 119.929 61.7999Z" fill="#6B7A8F"/>
<path opacity="0.1" d="M146.701 5.94811C146.701 5.94811 138.659 -0.065995 135.785 6.44841C135.785 6.44841 134.907 7.35684 135.537 8.44433C135.537 8.44433 135.837 8.0204 136.591 8.72345C136.859 8.97032 137.156 9.18506 137.474 9.3633C137.904 9.60295 138.401 9.69542 138.889 9.62661C138.889 9.62661 141.882 10.2033 145.328 6.95924C145.328 6.95924 146.559 6.5669 146.672 6.33255L144.857 6.0192C144.857 6.0192 144.67 7.35421 143.732 7.95193C143.732 7.95193 144.891 6.09293 144.59 5.95864C144.53 5.92968 143.623 5.82699 143.623 5.82699C143.623 5.82699 143.276 8.15468 141.8 9.02626C141.8 9.02626 143.476 6.9961 143.27 5.78485L141.892 5.71113C141.892 5.71113 141.655 8.18365 140.014 9.24481C140.014 9.24481 141.692 7.06193 141.595 5.71376L140.232 5.82435C140.232 5.82435 139.953 8.23105 138.58 9.10525C138.58 9.10525 140.267 6.38785 139.921 5.87175C139.921 5.87175 138.675 6.04817 138.367 6.25355C138.367 6.25355 138.127 7.97563 137.284 8.41273C137.284 8.41273 138.219 6.47737 138.03 6.34045C138.03 6.34045 136.467 7.004 135.853 7.75708C136.384 7.03526 137.094 6.46508 137.914 6.10346C137.404 5.89019 136.842 5.83159 136.299 5.93494C136.299 5.93494 136.97 5.18186 138.293 5.94811C138.293 5.94811 139.532 5.47941 139.742 5.53997C139.742 5.53997 138.543 4.59994 137.55 4.43405C137.55 4.43405 138.744 4.09438 140.101 5.48731L141.468 5.34775C141.468 5.34775 139.95 4.03118 139.076 3.80736C139.076 3.80736 140.348 3.64937 141.819 5.33985L143.168 5.39778C143.168 5.39778 141.948 4.15494 141.026 3.70994C141.026 3.70994 142.238 3.81526 143.555 5.42938L144.451 5.5742C144.451 5.5742 143.539 4.69473 143.255 4.46828C142.97 4.24183 143.01 4.14177 143.01 4.14177C143.743 4.4658 144.371 4.9873 144.825 5.64793C144.825 5.64793 146.656 6.04817 146.701 5.94811Z" fill="#6B7A8F"/>
<path opacity="0.1" d="M177.429 13.566C177.429 13.566 174.214 4.05773 168.151 7.79416C168.151 7.79416 166.913 8.05748 166.815 9.29769C166.815 9.29769 167.303 9.11863 167.519 10.1192C167.599 10.4752 167.72 10.8206 167.88 11.1488C168.098 11.5904 168.453 11.9498 168.892 12.1731C168.892 12.1731 171.031 14.3454 175.711 13.6266C175.711 13.6266 176.946 14.0005 177.173 13.8715L175.856 12.5786C175.856 12.5786 174.944 13.5713 173.832 13.5318C173.832 13.5318 175.842 12.6576 175.676 12.3758C175.642 12.3205 174.955 11.7228 174.955 11.7228C174.955 11.7228 173.358 13.4423 171.645 13.329C171.645 13.329 174.177 12.6076 174.694 11.4858L173.603 10.6459C173.603 10.6459 172.006 12.547 170.048 12.4891C170.048 12.4891 172.683 11.6438 173.35 10.4747L172.164 9.79272C172.164 9.79272 170.583 11.6175 168.944 11.5596C168.944 11.5596 171.874 10.2772 171.882 9.65579C171.882 9.65579 170.757 9.09494 170.386 9.08967C170.386 9.08967 169.211 10.372 168.278 10.2562C168.278 10.2562 170.143 9.18973 170.064 8.97118C170.064 8.97118 168.404 8.6315 167.469 8.90535C168.315 8.61098 169.223 8.5429 170.104 8.70786C169.803 8.24416 169.374 7.87814 168.868 7.65461C168.868 7.65461 169.848 7.41499 170.504 8.79476C170.504 8.79476 171.79 9.11337 171.927 9.27926C171.927 9.27926 171.474 7.82839 170.749 7.12798C170.749 7.12798 171.927 7.52558 172.249 9.45041L173.455 10.1087C173.455 10.1087 172.957 8.15754 172.357 7.47555C172.357 7.47555 173.497 8.06538 173.745 10.2904L174.825 11.104C174.825 11.104 174.525 9.38722 174.019 8.49721C174.019 8.49721 174.957 9.27136 175.126 11.3489L175.782 11.9756C175.782 11.9756 175.539 10.7275 175.439 10.3746C175.339 10.0218 175.421 9.9981 175.421 9.9981C175.84 10.6812 176.061 11.4667 176.061 12.2679C176.061 12.2679 177.336 13.6345 177.429 13.566Z" fill="#6B7A8F"/>
<path opacity="0.1" d="M156.45 14.0347C156.45 14.0347 146.464 12.9235 147.289 20.0041C147.289 20.0041 146.991 21.2311 148.079 21.8473C148.079 21.8473 148.124 21.3206 149.133 21.5576C149.49 21.6343 149.854 21.6705 150.219 21.6656C150.711 21.6567 151.188 21.4875 151.576 21.1837C151.576 21.1837 154.45 20.1647 155.791 15.6225C155.791 15.6225 156.65 14.6614 156.632 14.4007L154.906 15.038C154.906 15.038 155.433 16.2834 154.906 17.2735C154.906 17.2735 154.961 15.0854 154.643 15.1196C154.577 15.1196 153.744 15.4988 153.744 15.4988C153.744 15.4988 154.629 17.6711 153.802 19.1852C153.802 19.1852 154.218 16.5836 153.425 15.6462L152.2 16.2782C152.2 16.2782 153.254 18.5295 152.371 20.2779C152.371 20.2779 152.714 17.5447 151.942 16.4362L150.822 17.2261C150.822 17.2261 151.802 19.4406 151.062 20.8914C151.062 20.8914 151.138 17.6948 150.577 17.4236C150.577 17.4236 149.592 18.2135 149.431 18.54C149.431 18.54 150.097 20.1463 149.594 20.9494C149.594 20.9494 149.418 18.8086 149.186 18.7876C149.186 18.7876 148.174 20.1489 148.026 21.11C148.118 20.2189 148.441 19.3674 148.964 18.6401C148.418 18.7156 147.905 18.949 147.489 19.3115C147.489 19.3115 147.684 18.3241 149.212 18.3136C149.212 18.3136 150.042 17.284 150.266 17.2287C150.266 17.2287 148.756 17.026 147.816 17.3867C147.816 17.3867 148.672 16.4862 150.553 17.0102L151.663 16.1965C151.663 16.1965 149.657 15.791 148.809 16.0543C148.809 16.0543 149.826 15.2644 151.95 15.9885L153.143 15.3539C153.143 15.3539 151.46 14.901 150.44 14.9827C150.44 14.9827 151.539 14.456 153.491 15.1854L154.34 14.8563C154.34 14.8563 153.104 14.5482 152.74 14.4903C152.377 14.4323 152.363 14.3323 152.363 14.3323C153.16 14.2409 153.966 14.3722 154.693 14.7114C154.693 14.7114 156.469 14.1453 156.45 14.0347Z" fill="#6B7A8F"/>
<path opacity="0.1" d="M243.822 91.4939C243.822 91.4939 233.841 90.3827 234.666 97.4553C234.666 97.4553 234.368 98.6824 235.457 99.2985C235.457 99.2985 235.501 98.7719 236.511 99.0062C236.867 99.0855 237.231 99.1218 237.596 99.1142C238.089 99.1067 238.566 98.9373 238.953 98.6323C238.953 98.6323 241.828 97.6133 243.156 93.0738C243.156 93.0738 244.015 92.11 243.996 91.852L242.27 92.4866C242.27 92.4866 242.797 93.7347 242.27 94.7247C242.27 94.7247 242.326 92.534 242.007 92.5708C241.941 92.5708 241.108 92.9474 241.108 92.9474C241.108 92.9474 241.994 95.1197 241.166 96.6338C241.166 96.6338 241.583 94.0349 240.79 93.0948L239.564 93.7294C239.564 93.7294 240.618 95.9808 239.738 97.7292C239.738 97.7292 240.078 94.996 239.306 93.8848L238.186 94.6747C238.186 94.6747 239.166 96.8892 238.426 98.3374C238.426 98.3374 238.502 95.1408 237.941 94.8722C237.941 94.8722 236.958 95.6621 236.795 95.9887C236.795 95.9887 237.464 97.5949 236.958 98.398C236.958 98.398 236.782 96.2572 236.55 96.2362C236.55 96.2362 235.538 97.5975 235.391 98.5586C235.482 97.6676 235.805 96.816 236.329 96.0887C235.782 96.1629 235.268 96.3964 234.853 96.7602C234.853 96.7602 235.048 95.7701 236.576 95.7596C236.576 95.7596 237.409 94.73 237.63 94.6774C237.63 94.6774 236.121 94.472 235.18 94.8327C235.18 94.8327 236.036 93.9348 237.92 94.4588L239.027 93.6452C239.027 93.6452 237.045 93.2713 236.184 93.5293C236.184 93.5293 237.201 92.7394 239.325 93.4608L240.518 92.8289C240.518 92.8289 238.834 92.376 237.815 92.4576C237.815 92.4576 238.914 91.931 240.866 92.6604L241.714 92.3286C241.714 92.3286 240.479 92.0205 240.115 91.9652C239.751 91.9099 239.738 91.8072 239.738 91.8072C240.535 91.7142 241.341 91.8446 242.067 92.1838C242.067 92.1838 243.849 91.6071 243.822 91.4939Z" fill="#6B7A8F"/>
<path opacity="0.1" d="M259.081 100.81C259.081 100.81 249.1 99.7014 249.925 106.771C249.925 106.771 249.63 107.998 250.715 108.615C250.715 108.615 250.76 108.088 251.769 108.325C252.125 108.402 252.488 108.438 252.852 108.43C253.343 108.42 253.817 108.252 254.204 107.951C254.204 107.951 257.076 106.932 258.404 102.39C258.404 102.39 259.265 101.429 259.244 101.168L257.519 101.803C257.519 101.803 258.046 103.051 257.519 104.041C257.519 104.041 257.574 101.853 257.255 101.887C257.189 101.887 256.357 102.263 256.357 102.263C256.357 102.263 257.242 104.436 256.415 105.95C256.415 105.95 256.831 103.351 256.038 102.414L254.813 103.045C254.813 103.045 255.866 105.297 254.986 107.045C254.986 107.045 255.326 104.312 254.554 103.203L253.435 103.993C253.435 103.993 254.415 106.208 253.677 107.659C253.677 107.659 253.751 104.459 253.189 104.191C253.189 104.191 252.207 104.981 252.043 105.307C252.043 105.307 252.713 106.914 252.207 107.717C252.207 107.717 252.03 105.576 251.798 105.555C251.798 105.555 250.786 106.916 250.642 107.877C250.733 106.987 251.055 106.135 251.577 105.407C251.03 105.483 250.517 105.716 250.101 106.079C250.101 106.079 250.299 105.089 251.827 105.081C251.827 105.081 252.657 104.051 252.881 103.996C252.881 103.996 251.371 103.793 250.431 104.154C250.431 104.154 251.287 103.253 253.171 103.777L254.278 102.964C254.278 102.964 252.296 102.59 251.435 102.848C251.435 102.848 252.452 102.058 254.575 102.782L255.769 102.148C255.769 102.148 254.085 101.695 253.066 101.776C253.066 101.776 254.164 101.25 256.117 101.979L256.965 101.65C256.965 101.65 255.729 101.342 255.369 101.284C255.008 101.226 254.989 101.126 254.989 101.126C255.786 101.035 256.592 101.166 257.318 101.505C257.318 101.505 259.107 100.923 259.081 100.81Z" fill="#6B7A8F"/>
<path opacity="0.1" d="M225.204 22.3395C225.204 22.3395 217.163 16.328 214.288 22.8398C214.288 22.8398 213.411 23.7482 214.04 24.8357C214.04 24.8357 214.341 24.4117 215.094 25.1148C215.361 25.363 215.657 25.5786 215.974 25.7573C216.405 25.9966 216.902 26.089 217.389 26.0206C217.389 26.0206 220.383 26.5973 223.832 23.3559C223.832 23.3559 225.059 22.9609 225.175 22.7292L223.365 22.4027C223.365 22.4027 223.176 23.7377 222.24 24.3354C222.24 24.3354 223.397 22.4764 223.096 22.3421C223.036 22.3131 222.132 22.2104 222.132 22.2104C222.132 22.2104 221.792 24.5329 220.317 25.4097C220.317 25.4097 221.995 23.3796 221.787 22.1683L220.409 22.0946C220.409 22.0946 220.174 24.5671 218.53 25.6309C218.53 25.6309 220.211 23.448 220.111 22.0998L218.746 22.2104C218.746 22.2104 218.483 24.6145 217.097 25.4887C217.097 25.4887 218.783 22.7713 218.435 22.2552C218.435 22.2552 217.189 22.4316 216.881 22.637C216.881 22.637 216.644 24.3591 215.801 24.7962C215.801 24.7962 216.733 22.8608 216.544 22.7265C216.544 22.7265 214.981 23.3875 214.367 24.1405C214.898 23.4195 215.609 22.8495 216.428 22.4869C215.918 22.2752 215.358 22.2167 214.815 22.3184C214.815 22.3184 215.487 21.5653 216.81 22.3316C216.81 22.3316 218.045 21.8655 218.256 21.9234C218.256 21.9234 217.057 20.9834 216.064 20.8201C216.064 20.8201 217.26 20.4778 218.617 21.8734L219.985 21.7338C219.985 21.7338 218.467 20.4173 217.592 20.1961C217.592 20.1961 218.865 20.0355 220.333 21.7259L221.684 21.7865C221.684 21.7865 220.462 20.5437 219.542 20.096C219.542 20.096 220.754 20.2014 222.069 21.8155L222.967 21.9603C222.967 21.9603 222.058 21.0703 221.774 20.8386C221.489 20.6069 221.531 20.5305 221.531 20.5305C222.263 20.8554 222.891 21.3768 223.344 22.0367C223.344 22.0367 225.17 22.4474 225.204 22.3395Z" fill="#6B7A8F"/>
<path opacity="0.1" d="M231.417 65.739C231.417 65.739 228.645 56.0938 222.411 59.5564C222.411 59.5564 221.162 59.7486 221.007 60.9967C221.007 60.9967 221.502 60.8414 221.673 61.8499C221.737 62.2122 221.843 62.5657 221.99 62.9031C222.185 63.3569 222.524 63.7342 222.954 63.9774C222.954 63.9774 224.993 66.242 229.699 65.7364C229.699 65.7364 230.917 66.163 231.148 66.0471L229.902 64.6937C229.902 64.6937 228.946 65.6469 227.839 65.5573C227.839 65.5573 229.884 64.7674 229.726 64.4856C229.694 64.4277 229.035 63.7984 229.035 63.7984C229.035 63.7984 227.365 65.4467 225.657 65.2545C225.657 65.2545 228.221 64.6489 228.785 63.5588L227.731 62.6688C227.731 62.6688 226.05 64.4962 224.098 64.354C224.098 64.354 226.753 63.6246 227.486 62.4897L226.332 61.7551C226.332 61.7551 224.659 63.5061 223.036 63.3745C223.036 63.3745 226.021 62.2238 226.058 61.605C226.058 61.605 224.957 60.9941 224.585 60.973C224.585 60.973 223.354 62.2001 222.419 62.0421C222.419 62.0421 224.332 61.0599 224.264 60.8387C224.264 60.8387 222.619 60.4253 221.673 60.6544C222.53 60.4005 223.438 60.3742 224.308 60.5781C224.03 60.1016 223.617 59.7171 223.123 59.4721C223.123 59.4721 224.113 59.2746 224.704 60.6834C224.704 60.6834 225.971 61.0573 226.103 61.2311C226.103 61.2311 225.715 59.7591 225.022 59.0298C225.022 59.0298 226.182 59.4774 226.416 61.4154L227.591 62.129C227.591 62.129 227.18 60.1541 226.611 59.459C226.611 59.459 227.723 60.0988 227.873 62.3317L228.927 63.1928C228.927 63.1928 228.703 61.4654 228.24 60.5596C228.24 60.5596 229.143 61.3759 229.217 63.4561L229.844 64.1144C229.844 64.1144 229.66 62.8557 229.581 62.4976C229.502 62.1395 229.581 62.0895 229.581 62.0895C229.971 62.7899 230.158 63.5849 230.121 64.3856C230.121 64.3856 231.322 65.8022 231.417 65.739Z" fill="#6B7A8F"/>
<path opacity="0.1" d="M169.651 87.4731C169.651 87.4731 164.268 78.9996 159.27 84.071C159.27 84.071 158.126 84.5977 158.326 85.8484C158.326 85.8484 158.761 85.5588 159.209 86.4804C159.37 86.807 159.57 87.1129 159.804 87.3914C160.119 87.7716 160.549 88.0381 161.03 88.1498C161.03 88.1498 163.625 89.7507 167.999 87.9391C167.999 87.9391 169.287 88.0076 169.477 87.8312L167.896 86.8832C167.896 86.8832 167.245 88.0681 166.157 88.292C166.157 88.292 167.901 86.9754 167.667 86.7331C167.622 86.6858 166.811 86.2697 166.811 86.2697C166.811 86.2697 165.67 88.3183 163.978 88.6158C163.978 88.6158 166.268 87.3124 166.505 86.1065L165.243 85.5509C165.243 85.5509 164.144 87.7759 162.231 88.184C162.231 88.184 164.576 86.7384 164.958 85.4429L163.641 85.0637C163.641 85.0637 162.529 87.215 160.935 87.5441C160.935 87.5441 163.475 85.6009 163.335 84.9953C163.335 84.9953 162.107 84.7188 161.754 84.8031C161.754 84.8031 160.919 86.3276 159.976 86.4382C159.976 86.4382 161.536 84.9584 161.406 84.7636C161.406 84.7636 159.712 84.8294 158.869 85.3165C159.621 84.8296 160.488 84.5481 161.383 84.5002C160.982 84.1213 160.479 83.8678 159.936 83.7709C159.936 83.7709 160.829 83.3048 161.781 84.4897C161.781 84.4897 163.098 84.4897 163.28 84.6214C163.28 84.6214 162.489 83.3048 161.622 82.8124C161.622 82.8124 162.861 82.9177 163.63 84.7109L164.961 85.0637C164.961 85.0637 164.01 83.2864 163.269 82.7782C163.269 82.7782 164.516 83.0783 165.288 85.1822L166.531 85.7089C166.531 85.7089 165.83 84.1158 165.127 83.3706C165.127 83.3706 166.223 83.8973 166.879 85.8747L167.67 86.3303C167.67 86.3303 167.143 85.1743 166.955 84.8557C166.768 84.5371 166.842 84.4634 166.842 84.4634C167.412 85.0262 167.815 85.7364 168.004 86.5146C168.004 86.5146 169.58 87.5626 169.651 87.4731Z" fill="#6B7A8F"/>
<path d="M205.029 44.1789C205.029 44.1789 199.91 35.5448 194.753 40.4583C194.753 40.4583 193.594 40.9586 193.757 42.2067C193.757 42.2067 194.197 41.9276 194.619 42.8623C194.77 43.1946 194.96 43.5076 195.186 43.7945C195.488 44.1828 195.91 44.4605 196.387 44.5844C196.387 44.5844 198.93 46.2644 203.359 44.5844C203.359 44.5844 204.645 44.6924 204.84 44.5212L203.293 43.5259C203.293 43.5259 202.608 44.6871 201.512 44.8793C201.512 44.8793 203.296 43.6075 203.072 43.3679C203.024 43.3179 202.229 42.8755 202.229 42.8755C202.229 42.8755 201.024 44.8899 199.33 45.1348C199.33 45.1348 201.659 43.9024 201.931 42.707L200.687 42.1224C200.687 42.1224 199.52 44.3158 197.594 44.6661C197.594 44.6661 199.984 43.2942 200.405 42.0118L199.104 41.5905C199.104 41.5905 197.923 43.6971 196.321 43.9867C196.321 43.9867 198.919 42.1224 198.798 41.5142C198.798 41.5142 197.581 41.1982 197.217 41.2719C197.217 41.2719 196.334 42.7702 195.388 42.8518C195.388 42.8518 196.993 41.4246 196.872 41.2245C196.872 41.2245 195.175 41.2377 194.319 41.6985C195.086 41.2361 195.96 40.9819 196.856 40.9612C196.467 40.5698 195.971 40.3007 195.431 40.1871C195.431 40.1871 196.34 39.7473 197.275 40.9612C197.275 40.9612 198.592 41.006 198.769 41.1403C198.769 41.1403 198.023 39.8237 197.17 39.2813C197.17 39.2813 198.403 39.4235 199.117 41.2403L200.434 41.6353C200.434 41.6353 199.541 39.829 198.814 39.2971C198.814 39.2971 200.052 39.6367 200.758 41.7617L201.984 42.3331C201.984 42.3331 201.333 40.719 200.666 39.9633C200.666 39.9633 201.744 40.5241 202.342 42.52L203.114 42.9993C203.114 42.9993 202.619 41.8275 202.445 41.5036C202.271 41.1798 202.344 41.1087 202.344 41.1087C202.897 41.6888 203.277 42.4108 203.443 43.1941C203.443 43.1941 204.953 44.2658 205.029 44.1789Z" fill="#6B7A8F"/>
<path d="M172.639 62.3344C172.639 62.3344 172.902 52.3021 165.928 53.7161C165.928 53.7161 164.679 53.5239 164.152 54.6666C164.152 54.6666 164.679 54.6666 164.531 55.6804C164.483 56.0419 164.478 56.4078 164.515 56.7705C164.563 57.2625 164.771 57.7252 165.108 58.0871C165.108 58.0871 166.365 60.8624 171.005 61.8051C171.005 61.8051 172.035 62.5819 172.294 62.5398L171.503 60.8756C171.503 60.8756 170.304 61.4918 169.274 61.0731C169.274 61.0731 171.461 60.9441 171.4 60.6228C171.4 60.557 170.947 59.7565 170.947 59.7565C170.947 59.7565 168.855 60.8229 167.287 60.1225C167.287 60.1225 169.922 60.32 170.784 59.4537L170.049 58.2872C170.049 58.2872 167.893 59.5195 166.075 58.7928C166.075 58.7928 168.829 58.9034 169.872 58.0423L168.995 56.9891C168.995 56.9891 166.868 58.1529 165.361 57.5368C165.361 57.5368 168.555 57.3446 168.787 56.7626C168.787 56.7626 167.922 55.8489 167.575 55.7094C167.575 55.7094 166.031 56.4993 165.187 56.0727C165.187 56.0727 167.295 55.7199 167.308 55.4855C167.308 55.4855 165.867 54.5929 164.895 54.5271C165.791 54.5431 166.668 54.7937 167.438 55.2538C167.317 54.7156 167.043 54.2242 166.647 53.8398C166.647 53.8398 167.651 53.9531 167.788 55.4724C167.788 55.4724 168.887 56.2149 168.958 56.4203C168.958 56.4203 169.034 54.901 168.594 53.9952C168.594 53.9952 169.564 54.772 169.2 56.6889L170.104 57.7264C170.104 57.7264 170.31 55.7199 169.98 54.8852C169.98 54.8852 170.844 55.8305 170.312 58.0055L171.042 59.1404C171.042 59.1404 171.353 57.4262 171.187 56.4177C171.187 56.4177 171.798 57.4709 171.24 59.4748L171.64 60.291C171.64 60.291 171.843 59.035 171.869 58.669C171.896 58.303 171.996 58.2793 171.996 58.2793C172.154 59.0648 172.092 59.8789 171.814 60.6307C171.814 60.6307 172.523 62.3686 172.639 62.3344Z" fill="#6B7A8F"/>
<path opacity="0.1" d="M184.169 189.81C188.088 189.81 191.265 189.274 191.265 188.612C191.265 187.95 188.088 187.414 184.169 187.414C180.25 187.414 177.073 187.95 177.073 188.612C177.073 189.274 180.25 189.81 184.169 189.81Z" fill="#6B7A8F"/>
<path opacity="0.1" d="M158.303 208C162.222 208 165.398 207.464 165.398 206.802C165.398 206.14 162.222 205.604 158.303 205.604C154.384 205.604 151.207 206.14 151.207 206.802C151.207 207.464 154.384 208 158.303 208Z" fill="#6B7A8F"/>
<path opacity="0.1" d="M24.5412 198.681C28.4601 198.681 31.6369 198.145 31.6369 197.483C31.6369 196.822 28.4601 196.285 24.5412 196.285C20.6224 196.285 17.4456 196.822 17.4456 197.483C17.4456 198.145 20.6224 198.681 24.5412 198.681Z" fill="#6B7A8F"/>
<path opacity="0.1" d="M212.123 206.802C216.041 206.802 219.218 206.266 219.218 205.604C219.218 204.942 216.041 204.406 212.123 204.406C208.204 204.406 205.027 204.942 205.027 205.604C205.027 206.266 208.204 206.802 212.123 206.802Z" fill="#6B7A8F"/>
<path d="M219.511 192.193C225.362 192.193 230.106 191.392 230.106 190.403C230.106 189.414 225.362 188.612 219.511 188.612C213.659 188.612 208.916 189.414 208.916 190.403C208.916 191.392 213.659 192.193 219.511 192.193Z" fill="#6B7A8F"/>
<path d="M223.902 187.472C224.386 187.079 224.738 186.548 224.912 185.95C225.043 185.344 224.785 184.62 224.208 184.399C223.56 184.152 222.867 184.599 222.34 185.052C221.813 185.505 221.215 186.024 220.527 185.929C220.88 185.608 221.144 185.202 221.294 184.75C221.444 184.297 221.473 183.813 221.381 183.346C221.351 183.152 221.269 182.97 221.144 182.819C220.783 182.435 220.132 182.601 219.7 182.903C218.33 183.867 217.948 185.726 217.94 187.401C217.803 186.798 217.919 186.169 217.916 185.558C217.913 184.947 217.742 184.241 217.218 183.92C216.896 183.74 216.532 183.65 216.164 183.657C215.547 183.635 214.86 183.696 214.441 184.146C213.914 184.705 214.053 185.645 214.507 186.253C214.96 186.861 215.653 187.253 216.29 187.68C216.801 187.985 217.236 188.399 217.566 188.894C217.603 188.963 217.634 189.035 217.658 189.11H221.521C222.385 188.675 223.187 188.124 223.902 187.472Z" fill="#6B7A8F"/>
<path d="M19.7773 191.914C19.7773 191.914 23.8219 191.79 25.0471 190.921C26.2723 190.052 31.2733 189.018 31.5763 190.411C31.8793 191.804 37.6575 197.333 33.0887 197.37C28.5198 197.407 22.4728 196.659 21.2555 195.916C20.0382 195.174 19.7773 191.914 19.7773 191.914Z" fill="#A8A8A8"/>
<path opacity="0.2" d="M33.1651 196.886C28.5962 196.922 22.5492 196.175 21.3319 195.432C20.4044 194.869 20.0356 192.844 19.9117 191.909H19.7773C19.7773 191.909 20.0408 195.171 21.2502 195.911C22.4596 196.651 28.5146 197.402 33.0834 197.365C34.4008 197.365 34.8567 196.886 34.833 196.19C34.6485 196.614 34.1453 196.878 33.1651 196.886Z" fill="black"/>
</g>
<defs>
<linearGradient id="paint0_linear" x1="58.7546" y1="114.126" x2="140.997" y2="114.126" gradientUnits="userSpaceOnUse">
<stop stop-color="#808080" stop-opacity="0.25"/>
<stop offset="0.54" stop-color="#808080" stop-opacity="0.12"/>
<stop offset="1" stop-color="#808080" stop-opacity="0.1"/>
</linearGradient>
<clipPath id="clip0">
<rect width="266" height="208" fill="white"/>
</clipPath>
</defs>
</svg>
